<ttFont>
    <TTGlyph name=".notdef" xMin="-20" yMin="0" xMax="553" yMax="700">
      <contour>
        <pt x="-20" y="0" on="1"/>
        <pt x="53" y="700" on="1"/>
        <pt x="553" y="700" on="1"/>
        <pt x="480" y="0" on="1"/>
      </contour>
      <contour>
        <pt x="271" y="395" on="1"/>
        <pt x="467" y="650" on="1"/>
        <pt x="127" y="650" on="1"/>
      </contour>
      <contour>
        <pt x="39" y="95" on="1"/>
        <pt x="236" y="350" on="1"/>
        <pt x="92" y="605" on="1"/>
      </contour>
      <contour>
        <pt x="439" y="95" on="1"/>
        <pt x="492" y="605" on="1"/>
        <pt x="296" y="350" on="1"/>
      </contour>
      <contour>
        <pt x="65" y="50" on="1"/>
        <pt x="405" y="50" on="1"/>
        <pt x="261" y="305" on="1"/>
      </contour>
    </TTGlyph>
    <TTGlyph name="A" xMin="-25" yMin="-2" xMax="479" yMax="702">
      <contour>
        <pt x="-25" y="-2" on="0"/>
        <pt x="-23" y="20" on="1"/>
        <pt x="-21" y="32" on="0"/>
        <pt x="-18" y="38" on="1"/>
        <pt x="206" y="674" on="1"/>
        <pt x="216" y="702" on="0"/>
        <pt x="270" y="702" on="1"/>
        <pt x="326" y="702" on="1"/>
        <pt x="381" y="702" on="0"/>
        <pt x="385" y="674" on="1"/>
        <pt x="478" y="38" on="1"/>
        <pt x="479" y="35" on="0"/>
        <pt x="479" y="28" on="1"/>
        <pt x="479" y="23" on="0"/>
        <pt x="478" y="20" on="1"/>
        <pt x="476" y="-2" on="0"/>
        <pt x="433" y="-2" on="1"/>
        <pt x="384" y="-2" on="1"/>
        <pt x="337" y="-2" on="0"/>
        <pt x="333" y="19" on="1"/>
        <pt x="320" y="141" on="1"/>
        <pt x="164" y="141" on="1"/>
        <pt x="124" y="19" on="1"/>
        <pt x="119" y="-2" on="0"/>
        <pt x="75" y="-2" on="1"/>
        <pt x="23" y="-2" on="1"/>
      </contour>
      <contour>
        <pt x="312" y="263" on="1"/>
        <pt x="291" y="475" on="1"/>
        <pt x="287" y="525" on="0"/>
        <pt x="287" y="551" on="1"/>
        <pt x="282" y="551" on="1"/>
        <pt x="269" y="497" on="0"/>
        <pt x="262" y="475" on="1"/>
        <pt x="194" y="263" on="1"/>
      </contour>
    </TTGlyph>
    <TTGlyph name="AE" xMin="-25" yMin="-2" xMax="730" yMax="700">
      <contour>
        <pt x="-25" y="-2" on="0"/>
        <pt x="-22" y="20" on="1"/>
        <pt x="-22" y="28" on="0"/>
        <pt x="-17" y="38" on="1"/>
        <pt x="295" y="673" on="1"/>
        <pt x="308" y="700" on="0"/>
        <pt x="333" y="700" on="1"/>
        <pt x="705" y="700" on="1"/>
        <pt x="718" y="700" on="0"/>
        <pt x="730" y="684" on="0"/>
        <pt x="730" y="666" on="1"/>
        <pt x="730" y="656" on="0"/>
        <pt x="729" y="650" on="1"/>
        <pt x="726" y="619" on="1"/>
        <pt x="723" y="593" on="0"/>
        <pt x="706" y="569" on="0"/>
        <pt x="691" y="569" on="1"/>
        <pt x="483" y="569" on="1"/>
        <pt x="483" y="424" on="1"/>
        <pt x="676" y="424" on="1"/>
        <pt x="689" y="424" on="0"/>
        <pt x="701" y="408" on="0"/>
        <pt x="701" y="390" on="1"/>
        <pt x="701" y="380" on="0"/>
        <pt x="700" y="374" on="1"/>
        <pt x="697" y="343" on="1"/>
        <pt x="694" y="317" on="0"/>
        <pt x="677" y="293" on="0"/>
        <pt x="662" y="293" on="1"/>
        <pt x="486" y="293" on="1"/>
        <pt x="486" y="131" on="1"/>
        <pt x="666" y="131" on="1"/>
        <pt x="679" y="131" on="0"/>
        <pt x="691" y="115" on="0"/>
        <pt x="691" y="97" on="1"/>
        <pt x="691" y="87" on="0"/>
        <pt x="690" y="81" on="1"/>
        <pt x="687" y="50" on="1"/>
        <pt x="684" y="24" on="0"/>
        <pt x="668" y="0" on="0"/>
        <pt x="653" y="0" on="1"/>
        <pt x="366" y="0" on="1"/>
        <pt x="353" y="0" on="0"/>
        <pt x="341" y="14" on="0"/>
        <pt x="342" y="30" on="1"/>
        <pt x="341" y="141" on="1"/>
        <pt x="181" y="141" on="1"/>
        <pt x="122" y="19" on="1"/>
        <pt x="112" y="-2" on="0"/>
        <pt x="80" y="-2" on="1"/>
        <pt x="34" y="-2" on="1"/>
      </contour>
      <contour>
        <pt x="236" y="273" on="1"/>
        <pt x="343" y="273" on="1"/>
        <pt x="346" y="454" on="1"/>
        <pt x="354" y="526" on="1"/>
        <pt x="350" y="526" on="1"/>
        <pt x="319" y="455" on="1"/>
      </contour>
    </TTGlyph>
    <TTGlyph name="AEacute" xMin="-22" yMin="-2" xMax="730" yMax="911">
      <component glyphName="AE" x="0" y="0" flags="0x0"/>
      <component glyphName="acute" x="350" y="177" flags="0x4"/>
    </TTGlyph>
    <TTGlyph name="Aacute" xMin="-23" yMin="-2" xMax="479" yMax="911">
      <component glyphName="A" x="0" y="0" flags="0x0"/>
      <component glyphName="acute" x="209" y="177" flags="0x4"/>
    </TTGlyph>
    <TTGlyph name="Abreve" xMin="-23" yMin="-2" xMax="479" yMax="892">
      <component glyphName="A" x="0" y="0" flags="0x0"/>
      <component glyphName="breve" x="146" y="177" flags="0x4"/>
    </TTGlyph>
    <TTGlyph name="Acircumflex" xMin="-23" yMin="-2" xMax="479" yMax="895">
      <component glyphName="A" x="0" y="0" flags="0x0"/>
      <component glyphName="circumflex" x="146" y="177" flags="0x4"/>
    </TTGlyph>
    <TTGlyph name="Adieresis" xMin="-23" yMin="-2" xMax="479" yMax="879">
      <component glyphName="A" x="0" y="0" flags="0x0"/>
      <component glyphName="dieresis" x="144" y="177" flags="0x4"/>
    </TTGlyph>
    <TTGlyph name="Agrave" xMin="-23" yMin="-2" xMax="479" yMax="911">
      <component glyphName="A" x="0" y="0" flags="0x0"/>
      <component glyphName="grave" x="138" y="177" flags="0x4"/>
    </TTGlyph>
    <TTGlyph name="Amacron" xMin="-23" yMin="-2" xMax="479" yMax="869">
      <component glyphName="A" x="0" y="0" flags="0x0"/>
      <component glyphName="macron" x="146" y="177" flags="0x4"/>
    </TTGlyph>
    <TTGlyph name="Aogonek" xMin="-25" yMin="-168" xMax="479" yMax="702">
      <contour>
        <pt x="380" y="-2" on="1"/>
        <pt x="371" y="-31" on="0"/>
        <pt x="371" y="-55" on="1"/>
        <pt x="371" y="-99" on="0"/>
        <pt x="420" y="-99" on="1"/>
        <pt x="428" y="-99" on="0"/>
        <pt x="440" y="-95" on="0"/>
        <pt x="444" y="-95" on="1"/>
        <pt x="460" y="-95" on="0"/>
        <pt x="474" y="-108" on="0"/>
        <pt x="474" y="-125" on="1"/>
        <pt x="474" y="-146" on="0"/>
        <pt x="457" y="-156" on="1"/>
        <pt x="432" y="-168" on="0"/>
        <pt x="401" y="-168" on="1"/>
        <pt x="344" y="-168" on="0"/>
        <pt x="304" y="-108" on="0"/>
        <pt x="304" y="-74" on="1"/>
        <pt x="304" y="-54" on="0"/>
        <pt x="317" y="0" on="0"/>
        <pt x="332" y="26" on="1"/>
        <pt x="320" y="141" on="1"/>
        <pt x="164" y="141" on="1"/>
        <pt x="124" y="19" on="1"/>
        <pt x="119" y="-2" on="0"/>
        <pt x="75" y="-2" on="1"/>
        <pt x="23" y="-2" on="1"/>
        <pt x="-25" y="-2" on="0"/>
        <pt x="-23" y="20" on="1"/>
        <pt x="-21" y="32" on="0"/>
        <pt x="-18" y="38" on="1"/>
        <pt x="206" y="674" on="1"/>
        <pt x="216" y="702" on="0"/>
        <pt x="270" y="702" on="1"/>
        <pt x="326" y="702" on="1"/>
        <pt x="381" y="702" on="0"/>
        <pt x="385" y="674" on="1"/>
        <pt x="478" y="38" on="1"/>
        <pt x="479" y="35" on="0"/>
        <pt x="479" y="28" on="1"/>
        <pt x="479" y="23" on="0"/>
        <pt x="478" y="20" on="1"/>
        <pt x="476" y="-2" on="0"/>
        <pt x="433" y="-2" on="1"/>
        <pt x="384" y="-2" on="1"/>
      </contour>
      <contour>
        <pt x="312" y="263" on="1"/>
        <pt x="291" y="475" on="1"/>
        <pt x="287" y="525" on="0"/>
        <pt x="287" y="551" on="1"/>
        <pt x="282" y="551" on="1"/>
        <pt x="269" y="497" on="0"/>
        <pt x="262" y="475" on="1"/>
        <pt x="194" y="263" on="1"/>
      </contour>
    </TTGlyph>
    <TTGlyph name="Aring" xMin="-23" yMin="-2" xMax="479" yMax="926">
      <component glyphName="A" x="0" y="0" flags="0x0"/>
      <component glyphName="ring" x="144" y="177" flags="0x4"/>
    </TTGlyph>
    <TTGlyph name="Aringacute" xMin="-25" yMin="-2" xMax="479" yMax="931">
      <contour>
        <pt x="271" y="812" on="0"/>
        <pt x="258" y="819" on="0"/>
        <pt x="259" y="827" on="1"/>
        <pt x="281" y="867" on="0"/>
        <pt x="308" y="904" on="1"/>
        <pt x="327" y="931" on="0"/>
        <pt x="396" y="931" on="1"/>
        <pt x="428" y="931" on="0"/>
        <pt x="456" y="925" on="0"/>
        <pt x="455" y="917" on="1"/>
        <pt x="454" y="912" on="0"/>
        <pt x="435" y="895" on="0"/>
        <pt x="412" y="876" on="1"/>
        <pt x="366" y="837" on="1"/>
        <pt x="355" y="826" on="0"/>
        <pt x="321" y="812" on="0"/>
        <pt x="289" y="812" on="1"/>
      </contour>
      <contour>
        <pt x="479" y="35" on="0"/>
        <pt x="479" y="28" on="1"/>
        <pt x="479" y="23" on="0"/>
        <pt x="478" y="20" on="1"/>
        <pt x="476" y="-2" on="0"/>
        <pt x="433" y="-2" on="1"/>
        <pt x="384" y="-2" on="1"/>
        <pt x="337" y="-2" on="0"/>
        <pt x="333" y="19" on="1"/>
        <pt x="320" y="141" on="1"/>
        <pt x="164" y="141" on="1"/>
        <pt x="124" y="19" on="1"/>
        <pt x="119" y="-2" on="0"/>
        <pt x="75" y="-2" on="1"/>
        <pt x="23" y="-2" on="1"/>
        <pt x="-25" y="-2" on="0"/>
        <pt x="-23" y="20" on="1"/>
        <pt x="-21" y="32" on="0"/>
        <pt x="-18" y="38" on="1"/>
        <pt x="203" y="667" on="1"/>
        <pt x="202" y="681" on="1"/>
        <pt x="202" y="731" on="0"/>
        <pt x="262" y="796" on="0"/>
        <pt x="311" y="796" on="1"/>
        <pt x="354" y="796" on="0"/>
        <pt x="401" y="749" on="0"/>
        <pt x="401" y="710" on="1"/>
        <pt x="401" y="682" on="0"/>
        <pt x="388" y="654" on="1"/>
        <pt x="478" y="38" on="1"/>
      </contour>
      <contour>
        <pt x="263" y="678" on="0"/>
        <pt x="280" y="659" on="0"/>
        <pt x="298" y="659" on="1"/>
        <pt x="315" y="659" on="0"/>
        <pt x="337" y="678" on="0"/>
        <pt x="339" y="695" on="1"/>
        <pt x="341" y="712" on="0"/>
        <pt x="323" y="732" on="0"/>
        <pt x="306" y="732" on="1"/>
        <pt x="288" y="732" on="0"/>
        <pt x="267" y="712" on="0"/>
        <pt x="265" y="695" on="1"/>
      </contour>
      <contour>
        <pt x="312" y="263" on="1"/>
        <pt x="291" y="475" on="1"/>
        <pt x="287" y="525" on="0"/>
        <pt x="287" y="551" on="1"/>
        <pt x="282" y="551" on="1"/>
        <pt x="269" y="497" on="0"/>
        <pt x="262" y="475" on="1"/>
        <pt x="194" y="263" on="1"/>
      </contour>
    </TTGlyph>
    <TTGlyph name="Atilde" xMin="-23" yMin="-2" xMax="479" yMax="875">
      <component glyphName="A" x="0" y="0" flags="0x0"/>
      <component glyphName="tilde" x="154" y="177" flags="0x4"/>
    </TTGlyph>
    <TTGlyph name="B" xMin="32" yMin="0" xMax="513" yMax="700">
      <contour>
        <pt x="47" y="0" on="0"/>
        <pt x="32" y="19" on="0"/>
        <pt x="34" y="40" on="1"/>
        <pt x="100" y="661" on="1"/>
        <pt x="102" y="681" on="0"/>
        <pt x="122" y="700" on="0"/>
        <pt x="141" y="700" on="1"/>
        <pt x="320" y="700" on="1"/>
        <pt x="513" y="700" on="0"/>
        <pt x="513" y="556" on="1"/>
        <pt x="513" y="540" on="0"/>
        <pt x="512" y="531" on="1"/>
        <pt x="500" y="418" on="0"/>
        <pt x="405" y="366" on="1"/>
        <pt x="405" y="362" on="1"/>
        <pt x="450" y="348" on="0"/>
        <pt x="498" y="277" on="0"/>
        <pt x="498" y="223" on="1"/>
        <pt x="498" y="206" on="0"/>
        <pt x="497" y="197" on="1"/>
        <pt x="476" y="0" on="0"/>
        <pt x="249" y="0" on="1"/>
        <pt x="67" y="0" on="1"/>
      </contour>
      <contour>
        <pt x="291" y="415" on="1"/>
        <pt x="323" y="415" on="0"/>
        <pt x="359" y="456" on="0"/>
        <pt x="363" y="500" on="1"/>
        <pt x="364" y="508" on="0"/>
        <pt x="364" y="521" on="1"/>
        <pt x="364" y="552" on="0"/>
        <pt x="338" y="580" on="0"/>
        <pt x="310" y="580" on="1"/>
        <pt x="239" y="580" on="1"/>
        <pt x="222" y="415" on="1"/>
      </contour>
      <contour>
        <pt x="267" y="121" on="1"/>
        <pt x="304" y="121" on="0"/>
        <pt x="344" y="163" on="0"/>
        <pt x="348" y="211" on="1"/>
        <pt x="349" y="219" on="0"/>
        <pt x="349" y="233" on="1"/>
        <pt x="349" y="267" on="0"/>
        <pt x="318" y="296" on="0"/>
        <pt x="285" y="296" on="1"/>
        <pt x="209" y="296" on="1"/>
        <pt x="191" y="121" on="1"/>
      </contour>
    </TTGlyph>
    <TTGlyph name="C" xMin="43" yMin="-8" xMax="469" yMax="708">
      <contour>
        <pt x="43" y="-8" on="0"/>
        <pt x="43" y="273" on="1"/>
        <pt x="43" y="315" on="0"/>
        <pt x="47" y="352" on="1"/>
        <pt x="66" y="532" on="0"/>
        <pt x="217" y="708" on="0"/>
        <pt x="356" y="708" on="1"/>
        <pt x="402" y="708" on="0"/>
        <pt x="442" y="697" on="1"/>
        <pt x="469" y="689" on="0"/>
        <pt x="469" y="661" on="1"/>
        <pt x="469" y="654" on="0"/>
        <pt x="468" y="650" on="1"/>
        <pt x="463" y="612" on="0"/>
        <pt x="430" y="556" on="0"/>
        <pt x="412" y="563" on="1"/>
        <pt x="380" y="573" on="0"/>
        <pt x="349" y="573" on="1"/>
        <pt x="289" y="573" on="0"/>
        <pt x="218" y="463" on="0"/>
        <pt x="206" y="351" on="1"/>
        <pt x="203" y="317" on="0"/>
        <pt x="203" y="288" on="1"/>
        <pt x="203" y="128" on="0"/>
        <pt x="307" y="128" on="1"/>
        <pt x="326" y="128" on="0"/>
        <pt x="358" y="134" on="0"/>
        <pt x="374" y="139" on="1"/>
        <pt x="377" y="140" on="0"/>
        <pt x="383" y="140" on="1"/>
        <pt x="399" y="140" on="0"/>
        <pt x="415" y="108" on="0"/>
        <pt x="415" y="81" on="1"/>
        <pt x="415" y="27" on="0"/>
        <pt x="375" y="6" on="1"/>
        <pt x="346" y="-8" on="0"/>
        <pt x="293" y="-8" on="1"/>
      </contour>
    </TTGlyph>
    <TTGlyph name="Cacute" xMin="43" yMin="-8" xMax="469" yMax="911">
      <component glyphName="C" x="0" y="0" flags="0x0"/>
      <component glyphName="acute" x="233" y="177" flags="0x4"/>
    </TTGlyph>
    <TTGlyph name="Cacute.loclPLK" xMin="43" yMin="-8" xMax="469" yMax="911">
      <component glyphName="C" x="0" y="0" flags="0x0"/>
      <component glyphName="acute.loclPLK" x="238" y="177" flags="0x4"/>
    </TTGlyph>
    <TTGlyph name="Ccaron" xMin="43" yMin="-8" xMax="469" yMax="895">
      <component glyphName="C" x="0" y="0" flags="0x0"/>
      <component glyphName="caron" x="171" y="177" flags="0x4"/>
    </TTGlyph>
    <TTGlyph name="Ccedilla" xMin="42" yMin="-212" xMax="469" yMax="708">
      <contour>
        <pt x="469" y="689" on="0"/>
        <pt x="469" y="661" on="1"/>
        <pt x="469" y="654" on="0"/>
        <pt x="468" y="650" on="1"/>
        <pt x="463" y="612" on="0"/>
        <pt x="430" y="556" on="0"/>
        <pt x="412" y="563" on="1"/>
        <pt x="380" y="573" on="0"/>
        <pt x="349" y="573" on="1"/>
        <pt x="289" y="573" on="0"/>
        <pt x="218" y="463" on="0"/>
        <pt x="206" y="351" on="1"/>
        <pt x="203" y="317" on="0"/>
        <pt x="203" y="288" on="1"/>
        <pt x="203" y="128" on="0"/>
        <pt x="307" y="128" on="1"/>
        <pt x="326" y="128" on="0"/>
        <pt x="358" y="134" on="0"/>
        <pt x="374" y="139" on="1"/>
        <pt x="377" y="140" on="0"/>
        <pt x="383" y="140" on="1"/>
        <pt x="399" y="140" on="0"/>
        <pt x="415" y="108" on="0"/>
        <pt x="415" y="81" on="1"/>
        <pt x="415" y="27" on="0"/>
        <pt x="375" y="6" on="1"/>
        <pt x="346" y="-8" on="0"/>
        <pt x="293" y="-8" on="1"/>
        <pt x="278" y="-8" on="0"/>
        <pt x="250" y="-6" on="1"/>
        <pt x="238" y="-48" on="1"/>
        <pt x="267" y="-53" on="0"/>
        <pt x="302" y="-90" on="0"/>
        <pt x="302" y="-122" on="1"/>
        <pt x="302" y="-166" on="0"/>
        <pt x="246" y="-212" on="0"/>
        <pt x="198" y="-212" on="1"/>
        <pt x="155" y="-212" on="0"/>
        <pt x="92" y="-181" on="0"/>
        <pt x="92" y="-160" on="1"/>
        <pt x="92" y="-142" on="0"/>
        <pt x="115" y="-118" on="0"/>
        <pt x="124" y="-118" on="1"/>
        <pt x="133" y="-118" on="0"/>
        <pt x="149" y="-127" on="1"/>
        <pt x="151" y="-128" on="0"/>
        <pt x="175" y="-139" on="0"/>
        <pt x="189" y="-139" on="1"/>
        <pt x="209" y="-139" on="0"/>
        <pt x="209" y="-123" on="1"/>
        <pt x="209" y="-115" on="0"/>
        <pt x="198" y="-106" on="0"/>
        <pt x="186" y="-101" on="1"/>
        <pt x="174" y="-96" on="0"/>
        <pt x="162" y="-87" on="0"/>
        <pt x="162" y="-79" on="1"/>
        <pt x="162" y="-72" on="0"/>
        <pt x="179" y="-25" on="1"/>
        <pt x="190" y="7" on="1"/>
        <pt x="42" y="58" on="0"/>
        <pt x="42" y="272" on="1"/>
        <pt x="42" y="305" on="0"/>
        <pt x="47" y="352" on="1"/>
        <pt x="66" y="532" on="0"/>
        <pt x="217" y="708" on="0"/>
        <pt x="356" y="708" on="1"/>
        <pt x="402" y="708" on="0"/>
        <pt x="442" y="697" on="1"/>
      </contour>
    </TTGlyph>
    <TTGlyph name="Ccircumflex" xMin="43" yMin="-8" xMax="469" yMax="895">
      <component glyphName="C" x="0" y="0" flags="0x0"/>
      <component glyphName="circumflex" x="170" y="177" flags="0x4"/>
    </TTGlyph>
    <TTGlyph name="Cdotaccent" xMin="43" yMin="-8" xMax="469" yMax="879">
      <component glyphName="C" x="0" y="0" flags="0x0"/>
      <component glyphName="dotaccent" x="167" y="177" flags="0x4"/>
    </TTGlyph>
    <TTGlyph name="D" xMin="27" yMin="0" xMax="547" yMax="700">
      <contour>
        <pt x="42" y="0" on="0"/>
        <pt x="27" y="19" on="0"/>
        <pt x="29" y="40" on="1"/>
        <pt x="95" y="660" on="1"/>
        <pt x="97" y="681" on="0"/>
        <pt x="117" y="700" on="0"/>
        <pt x="136" y="700" on="1"/>
        <pt x="326" y="700" on="1"/>
        <pt x="439" y="700" on="0"/>
        <pt x="547" y="569" on="0"/>
        <pt x="547" y="437" on="1"/>
        <pt x="547" y="402" on="0"/>
        <pt x="542" y="350" on="1"/>
        <pt x="524" y="174" on="0"/>
        <pt x="383" y="0" on="0"/>
        <pt x="252" y="0" on="1"/>
        <pt x="62" y="0" on="1"/>
      </contour>
      <contour>
        <pt x="261" y="131" on="1"/>
        <pt x="314" y="131" on="0"/>
        <pt x="370" y="230" on="0"/>
        <pt x="383" y="350" on="1"/>
        <pt x="388" y="393" on="0"/>
        <pt x="388" y="438" on="1"/>
        <pt x="388" y="508" on="0"/>
        <pt x="349" y="569" on="0"/>
        <pt x="307" y="569" on="1"/>
        <pt x="243" y="569" on="1"/>
        <pt x="197" y="131" on="1"/>
      </contour>
    </TTGlyph>
    <TTGlyph name="Dcaron" xMin="28" yMin="0" xMax="547" yMax="895">
      <component glyphName="D" x="0" y="0" flags="0x0"/>
      <component glyphName="caron" x="171" y="177" flags="0x4"/>
    </TTGlyph>
    <TTGlyph name="Dcroat" xMin="16" yMin="0" xMax="547" yMax="700">
      <component glyphName="Eth" x="0" y="0" flags="0x0"/>
    </TTGlyph>
    <TTGlyph name="E" xMin="32" yMin="0" xMax="461" yMax="700">
      <contour>
        <pt x="47" y="0" on="0"/>
        <pt x="32" y="19" on="0"/>
        <pt x="34" y="40" on="1"/>
        <pt x="100" y="660" on="1"/>
        <pt x="102" y="681" on="0"/>
        <pt x="122" y="700" on="0"/>
        <pt x="141" y="700" on="1"/>
        <pt x="436" y="700" on="1"/>
        <pt x="461" y="700" on="0"/>
        <pt x="461" y="664" on="1"/>
        <pt x="460" y="650" on="1"/>
        <pt x="457" y="619" on="1"/>
        <pt x="453" y="569" on="0"/>
        <pt x="422" y="569" on="1"/>
        <pt x="246" y="569" on="1"/>
        <pt x="231" y="424" on="1"/>
        <pt x="387" y="424" on="1"/>
        <pt x="412" y="424" on="0"/>
        <pt x="412" y="388" on="1"/>
        <pt x="411" y="374" on="1"/>
        <pt x="408" y="343" on="1"/>
        <pt x="404" y="293" on="0"/>
        <pt x="373" y="293" on="1"/>
        <pt x="217" y="293" on="1"/>
        <pt x="200" y="131" on="1"/>
        <pt x="377" y="131" on="1"/>
        <pt x="390" y="131" on="0"/>
        <pt x="401" y="114" on="0"/>
        <pt x="401" y="96" on="1"/>
        <pt x="400" y="81" on="1"/>
        <pt x="397" y="50" on="1"/>
        <pt x="393" y="0" on="0"/>
        <pt x="363" y="0" on="1"/>
        <pt x="67" y="0" on="1"/>
      </contour>
    </TTGlyph>
    <TTGlyph name="Eacute" xMin="33" yMin="0" xMax="461" yMax="911">
      <component glyphName="E" x="0" y="0" flags="0x0"/>
      <component glyphName="acute" x="204" y="177" flags="0x4"/>
    </TTGlyph>
    <TTGlyph name="Ebreve" xMin="33" yMin="0" xMax="461" yMax="892">
      <component glyphName="E" x="0" y="0" flags="0x0"/>
      <component glyphName="breve" x="141" y="177" flags="0x4"/>
    </TTGlyph>
    <TTGlyph name="Ecaron" xMin="33" yMin="0" xMax="461" yMax="895">
      <component glyphName="E" x="0" y="0" flags="0x0"/>
      <component glyphName="caron" x="142" y="177" flags="0x4"/>
    </TTGlyph>
    <TTGlyph name="Ecircumflex" xMin="33" yMin="0" xMax="461" yMax="895">
      <component glyphName="E" x="0" y="0" flags="0x0"/>
      <component glyphName="circumflex" x="141" y="177" flags="0x4"/>
    </TTGlyph>
    <TTGlyph name="Edieresis" xMin="33" yMin="0" xMax="461" yMax="879">
      <component glyphName="E" x="0" y="0" flags="0x0"/>
      <component glyphName="dieresis" x="139" y="177" flags="0x4"/>
    </TTGlyph>
    <TTGlyph name="Edotaccent" xMin="33" yMin="0" xMax="461" yMax="879">
      <component glyphName="E" x="0" y="0" flags="0x0"/>
      <component glyphName="dotaccent" x="138" y="177" flags="0x4"/>
    </TTGlyph>
    <TTGlyph name="Egrave" xMin="33" yMin="0" xMax="461" yMax="911">
      <component glyphName="E" x="0" y="0" flags="0x0"/>
      <component glyphName="grave" x="133" y="177" flags="0x4"/>
    </TTGlyph>
    <TTGlyph name="Emacron" xMin="33" yMin="0" xMax="461" yMax="869">
      <component glyphName="E" x="0" y="0" flags="0x0"/>
      <component glyphName="macron" x="141" y="177" flags="0x4"/>
    </TTGlyph>
    <TTGlyph name="Eng" xMin="23" yMin="-212" xMax="584" yMax="702">
      <contour>
        <pt x="584" y="702" on="0"/>
        <pt x="581" y="670" on="1"/>
        <pt x="505" y="-50" on="1"/>
        <pt x="497" y="-129" on="0"/>
        <pt x="414" y="-212" on="0"/>
        <pt x="354" y="-212" on="1"/>
        <pt x="307" y="-212" on="0"/>
        <pt x="261" y="-192" on="0"/>
        <pt x="261" y="-167" on="1"/>
        <pt x="261" y="-148" on="0"/>
        <pt x="284" y="-91" on="0"/>
        <pt x="299" y="-91" on="1"/>
        <pt x="304" y="-91" on="0"/>
        <pt x="323" y="-95" on="0"/>
        <pt x="329" y="-95" on="1"/>
        <pt x="342" y="-95" on="0"/>
        <pt x="355" y="-75" on="0"/>
        <pt x="357" y="-52" on="1"/>
        <pt x="369" y="56" on="1"/>
        <pt x="230" y="376" on="1"/>
        <pt x="223" y="391" on="0"/>
        <pt x="212" y="432" on="0"/>
        <pt x="210" y="440" on="1"/>
        <pt x="204" y="437" on="1"/>
        <pt x="205" y="429" on="0"/>
        <pt x="207" y="408" on="0"/>
        <pt x="207" y="394" on="1"/>
        <pt x="207" y="385" on="0"/>
        <pt x="205" y="369" on="1"/>
        <pt x="168" y="30" on="1"/>
        <pt x="165" y="-2" on="0"/>
        <pt x="106" y="-2" on="1"/>
        <pt x="82" y="-2" on="1"/>
        <pt x="23" y="-2" on="0"/>
        <pt x="28" y="30" on="1"/>
        <pt x="95" y="670" on="1"/>
        <pt x="98" y="702" on="0"/>
        <pt x="156" y="702" on="1"/>
        <pt x="182" y="702" on="1"/>
        <pt x="201" y="702" on="0"/>
        <pt x="224" y="691" on="0"/>
        <pt x="231" y="674" on="1"/>
        <pt x="374" y="338" on="1"/>
        <pt x="388" y="305" on="0"/>
        <pt x="400" y="260" on="1"/>
        <pt x="404" y="262" on="1"/>
        <pt x="402" y="294" on="0"/>
        <pt x="402" y="310" on="1"/>
        <pt x="402" y="321" on="0"/>
        <pt x="404" y="341" on="1"/>
        <pt x="441" y="670" on="1"/>
        <pt x="444" y="702" on="0"/>
        <pt x="502" y="702" on="1"/>
        <pt x="526" y="702" on="1"/>
      </contour>
    </TTGlyph>
    <TTGlyph name="Eogonek" xMin="32" yMin="-177" xMax="470" yMax="700">
      <contour>
        <pt x="456" y="-104" on="0"/>
        <pt x="470" y="-117" on="0"/>
        <pt x="470" y="-134" on="1"/>
        <pt x="470" y="-155" on="0"/>
        <pt x="453" y="-165" on="1"/>
        <pt x="428" y="-177" on="0"/>
        <pt x="397" y="-177" on="1"/>
        <pt x="340" y="-177" on="0"/>
        <pt x="300" y="-117" on="0"/>
        <pt x="300" y="-83" on="1"/>
        <pt x="300" y="-41" on="0"/>
        <pt x="320" y="0" on="1"/>
        <pt x="67" y="0" on="1"/>
        <pt x="47" y="0" on="0"/>
        <pt x="32" y="19" on="0"/>
        <pt x="34" y="40" on="1"/>
        <pt x="100" y="660" on="1"/>
        <pt x="102" y="681" on="0"/>
        <pt x="122" y="700" on="0"/>
        <pt x="141" y="700" on="1"/>
        <pt x="436" y="700" on="1"/>
        <pt x="461" y="700" on="0"/>
        <pt x="461" y="664" on="1"/>
        <pt x="460" y="650" on="1"/>
        <pt x="457" y="619" on="1"/>
        <pt x="453" y="569" on="0"/>
        <pt x="422" y="569" on="1"/>
        <pt x="246" y="569" on="1"/>
        <pt x="231" y="424" on="1"/>
        <pt x="387" y="424" on="1"/>
        <pt x="412" y="424" on="0"/>
        <pt x="412" y="388" on="1"/>
        <pt x="411" y="374" on="1"/>
        <pt x="408" y="343" on="1"/>
        <pt x="404" y="293" on="0"/>
        <pt x="373" y="293" on="1"/>
        <pt x="217" y="293" on="1"/>
        <pt x="200" y="131" on="1"/>
        <pt x="377" y="131" on="1"/>
        <pt x="390" y="131" on="0"/>
        <pt x="401" y="114" on="0"/>
        <pt x="401" y="96" on="1"/>
        <pt x="400" y="81" on="1"/>
        <pt x="397" y="50" on="1"/>
        <pt x="394" y="18" on="0"/>
        <pt x="383" y="8" on="1"/>
        <pt x="367" y="-30" on="0"/>
        <pt x="367" y="-64" on="1"/>
        <pt x="367" y="-108" on="0"/>
        <pt x="416" y="-108" on="1"/>
        <pt x="424" y="-108" on="0"/>
        <pt x="436" y="-104" on="0"/>
        <pt x="440" y="-104" on="1"/>
      </contour>
    </TTGlyph>
    <TTGlyph name="Eth" xMin="16" yMin="0" xMax="547" yMax="700">
      <contour>
        <pt x="439" y="700" on="0"/>
        <pt x="547" y="569" on="0"/>
        <pt x="547" y="437" on="1"/>
        <pt x="547" y="402" on="0"/>
        <pt x="542" y="350" on="1"/>
        <pt x="524" y="174" on="0"/>
        <pt x="383" y="0" on="0"/>
        <pt x="252" y="0" on="1"/>
        <pt x="62" y="0" on="1"/>
        <pt x="42" y="0" on="0"/>
        <pt x="27" y="19" on="0"/>
        <pt x="29" y="40" on="1"/>
        <pt x="56" y="290" on="1"/>
        <pt x="42" y="290" on="1"/>
        <pt x="28" y="290" on="0"/>
        <pt x="16" y="309" on="0"/>
        <pt x="16" y="330" on="1"/>
        <pt x="16" y="421" on="0"/>
        <pt x="54" y="421" on="1"/>
        <pt x="70" y="421" on="1"/>
        <pt x="95" y="660" on="1"/>
        <pt x="97" y="681" on="0"/>
        <pt x="117" y="700" on="0"/>
        <pt x="136" y="700" on="1"/>
        <pt x="326" y="700" on="1"/>
      </contour>
      <contour>
        <pt x="388" y="393" on="0"/>
        <pt x="388" y="438" on="1"/>
        <pt x="388" y="508" on="0"/>
        <pt x="349" y="569" on="0"/>
        <pt x="307" y="569" on="1"/>
        <pt x="243" y="569" on="1"/>
        <pt x="227" y="421" on="1"/>
        <pt x="299" y="421" on="1"/>
        <pt x="313" y="421" on="0"/>
        <pt x="325" y="402" on="0"/>
        <pt x="325" y="381" on="1"/>
        <pt x="325" y="290" on="0"/>
        <pt x="287" y="290" on="1"/>
        <pt x="214" y="290" on="1"/>
        <pt x="197" y="131" on="1"/>
        <pt x="261" y="131" on="1"/>
        <pt x="314" y="131" on="0"/>
        <pt x="370" y="230" on="0"/>
        <pt x="383" y="350" on="1"/>
      </contour>
    </TTGlyph>
    <TTGlyph name="Euro" xMin="-1" yMin="-8" xMax="523" yMax="708">
      <contour>
        <pt x="170" y="-8" on="0"/>
        <pt x="62" y="109" on="0"/>
        <pt x="57" y="233" on="1"/>
        <pt x="27" y="233" on="1"/>
        <pt x="11" y="233" on="0"/>
        <pt x="-1" y="249" on="0"/>
        <pt x="1" y="267" on="1"/>
        <pt x="1" y="274" on="1"/>
        <pt x="3" y="292" on="0"/>
        <pt x="19" y="308" on="0"/>
        <pt x="35" y="308" on="1"/>
        <pt x="59" y="308" on="1"/>
        <pt x="59" y="322" on="0"/>
        <pt x="63" y="352" on="1"/>
        <pt x="66" y="384" on="1"/>
        <pt x="43" y="384" on="1"/>
        <pt x="27" y="384" on="0"/>
        <pt x="15" y="400" on="0"/>
        <pt x="16" y="418" on="1"/>
        <pt x="17" y="425" on="1"/>
        <pt x="19" y="443" on="0"/>
        <pt x="35" y="459" on="0"/>
        <pt x="51" y="459" on="1"/>
        <pt x="80" y="459" on="1"/>
        <pt x="110" y="584" on="0"/>
        <pt x="249" y="708" on="0"/>
        <pt x="362" y="708" on="1"/>
        <pt x="407" y="708" on="0"/>
        <pt x="481" y="687" on="0"/>
        <pt x="523" y="655" on="0"/>
        <pt x="523" y="640" on="1"/>
        <pt x="523" y="627" on="0"/>
        <pt x="497" y="582" on="0"/>
        <pt x="462" y="547" on="0"/>
        <pt x="450" y="547" on="1"/>
        <pt x="446" y="547" on="0"/>
        <pt x="417" y="562" on="0"/>
        <pt x="381" y="573" on="0"/>
        <pt x="355" y="573" on="1"/>
        <pt x="276" y="573" on="0"/>
        <pt x="241" y="459" on="1"/>
        <pt x="412" y="459" on="1"/>
        <pt x="428" y="459" on="0"/>
        <pt x="440" y="443" on="0"/>
        <pt x="438" y="425" on="1"/>
        <pt x="437" y="418" on="1"/>
        <pt x="436" y="400" on="0"/>
        <pt x="420" y="384" on="0"/>
        <pt x="404" y="384" on="1"/>
        <pt x="225" y="384" on="1"/>
        <pt x="223" y="362" on="0"/>
        <pt x="221" y="351" on="1"/>
        <pt x="220" y="343" on="0"/>
        <pt x="218" y="322" on="0"/>
        <pt x="218" y="308" on="1"/>
        <pt x="396" y="308" on="1"/>
        <pt x="412" y="308" on="0"/>
        <pt x="424" y="292" on="0"/>
        <pt x="422" y="274" on="1"/>
        <pt x="422" y="267" on="1"/>
        <pt x="420" y="249" on="0"/>
        <pt x="404" y="233" on="0"/>
        <pt x="388" y="233" on="1"/>
        <pt x="220" y="233" on="1"/>
        <pt x="232" y="128" on="0"/>
        <pt x="307" y="128" on="1"/>
        <pt x="333" y="128" on="0"/>
        <pt x="373" y="140" on="0"/>
        <pt x="394" y="150" on="1"/>
        <pt x="412" y="159" on="0"/>
        <pt x="418" y="159" on="1"/>
        <pt x="434" y="159" on="0"/>
        <pt x="457" y="127" on="0"/>
        <pt x="470" y="86" on="0"/>
        <pt x="469" y="76" on="1"/>
        <pt x="467" y="55" on="0"/>
        <pt x="414" y="16" on="0"/>
        <pt x="329" y="-8" on="0"/>
        <pt x="282" y="-8" on="1"/>
      </contour>
    </TTGlyph>
    <TTGlyph name="F" xMin="30" yMin="-2" xMax="441" yMax="700">
      <contour>
        <pt x="30" y="-2" on="0"/>
        <pt x="33" y="30" on="1"/>
        <pt x="100" y="660" on="1"/>
        <pt x="102" y="681" on="0"/>
        <pt x="122" y="700" on="0"/>
        <pt x="141" y="700" on="1"/>
        <pt x="416" y="700" on="1"/>
        <pt x="441" y="700" on="0"/>
        <pt x="441" y="664" on="1"/>
        <pt x="440" y="650" on="1"/>
        <pt x="436" y="619" on="1"/>
        <pt x="432" y="569" on="0"/>
        <pt x="402" y="569" on="1"/>
        <pt x="246" y="569" on="1"/>
        <pt x="231" y="423" on="1"/>
        <pt x="378" y="423" on="1"/>
        <pt x="403" y="423" on="0"/>
        <pt x="403" y="387" on="1"/>
        <pt x="402" y="373" on="1"/>
        <pt x="398" y="342" on="1"/>
        <pt x="394" y="292" on="0"/>
        <pt x="364" y="292" on="1"/>
        <pt x="217" y="292" on="1"/>
        <pt x="189" y="30" on="1"/>
        <pt x="186" y="-2" on="0"/>
        <pt x="128" y="-2" on="1"/>
        <pt x="88" y="-2" on="1"/>
      </contour>
    </TTGlyph>
    <TTGlyph name="G" xMin="43" yMin="-8" xMax="534" yMax="708">
      <contour>
        <pt x="291" y="573" on="0"/>
        <pt x="220" y="465" on="0"/>
        <pt x="208" y="351" on="1"/>
        <pt x="204" y="312" on="0"/>
        <pt x="204" y="275" on="1"/>
        <pt x="204" y="195" on="0"/>
        <pt x="252" y="128" on="0"/>
        <pt x="298" y="128" on="1"/>
        <pt x="322" y="128" on="0"/>
        <pt x="339" y="132" on="1"/>
        <pt x="354" y="278" on="1"/>
        <pt x="303" y="278" on="1"/>
        <pt x="279" y="278" on="0"/>
        <pt x="279" y="311" on="1"/>
        <pt x="279" y="322" on="0"/>
        <pt x="280" y="328" on="1"/>
        <pt x="283" y="360" on="1"/>
        <pt x="286" y="386" on="0"/>
        <pt x="302" y="410" on="0"/>
        <pt x="317" y="410" on="1"/>
        <pt x="482" y="410" on="1"/>
        <pt x="501" y="410" on="0"/>
        <pt x="517" y="391" on="0"/>
        <pt x="515" y="370" on="1"/>
        <pt x="484" y="72" on="1"/>
        <pt x="482" y="49" on="0"/>
        <pt x="417" y="12" on="0"/>
        <pt x="324" y="-8" on="0"/>
        <pt x="283" y="-8" on="1"/>
        <pt x="164" y="-8" on="0"/>
        <pt x="43" y="128" on="0"/>
        <pt x="43" y="268" on="1"/>
        <pt x="43" y="302" on="0"/>
        <pt x="48" y="352" on="1"/>
        <pt x="67" y="533" on="0"/>
        <pt x="217" y="708" on="0"/>
        <pt x="361" y="708" on="1"/>
        <pt x="405" y="708" on="0"/>
        <pt x="485" y="688" on="0"/>
        <pt x="534" y="656" on="0"/>
        <pt x="534" y="639" on="1"/>
        <pt x="534" y="627" on="0"/>
        <pt x="508" y="582" on="0"/>
        <pt x="474" y="547" on="0"/>
        <pt x="462" y="547" on="1"/>
        <pt x="458" y="547" on="0"/>
        <pt x="425" y="562" on="0"/>
        <pt x="384" y="573" on="0"/>
        <pt x="355" y="573" on="1"/>
      </contour>
    </TTGlyph>
    <TTGlyph name="Gbreve" xMin="43" yMin="-8" xMax="534" yMax="892">
      <component glyphName="G" x="0" y="0" flags="0x0"/>
      <component glyphName="breve" x="192" y="177" flags="0x4"/>
    </TTGlyph>
    <TTGlyph name="Gcircumflex" xMin="43" yMin="-8" xMax="534" yMax="895">
      <component glyphName="G" x="0" y="0" flags="0x0"/>
      <component glyphName="circumflex" x="192" y="177" flags="0x4"/>
    </TTGlyph>
    <TTGlyph name="Gcommaaccent" xMin="43" yMin="-240" xMax="534" yMax="708">
      <component glyphName="G" x="0" y="0" flags="0x0"/>
      <component glyphName="uni0326" x="409" y="0" flags="0x0"/>
    </TTGlyph>
    <TTGlyph name="Gdotaccent" xMin="43" yMin="-8" xMax="534" yMax="879">
      <component glyphName="G" x="0" y="0" flags="0x0"/>
      <component glyphName="dotaccent" x="189" y="177" flags="0x4"/>
    </TTGlyph>
    <TTGlyph name="H" xMin="30" yMin="-2" xMax="589" yMax="702">
      <contour>
        <pt x="30" y="-2" on="0"/>
        <pt x="33" y="30" on="1"/>
        <pt x="101" y="670" on="1"/>
        <pt x="104" y="702" on="0"/>
        <pt x="162" y="702" on="1"/>
        <pt x="204" y="702" on="1"/>
        <pt x="261" y="702" on="0"/>
        <pt x="258" y="670" on="1"/>
        <pt x="232" y="423" on="1"/>
        <pt x="403" y="423" on="1"/>
        <pt x="429" y="670" on="1"/>
        <pt x="432" y="702" on="0"/>
        <pt x="490" y="702" on="1"/>
        <pt x="531" y="702" on="1"/>
        <pt x="589" y="702" on="0"/>
        <pt x="586" y="670" on="1"/>
        <pt x="518" y="30" on="1"/>
        <pt x="515" y="-2" on="0"/>
        <pt x="457" y="-2" on="1"/>
        <pt x="416" y="-2" on="1"/>
        <pt x="358" y="-2" on="0"/>
        <pt x="361" y="30" on="1"/>
        <pt x="389" y="291" on="1"/>
        <pt x="218" y="291" on="1"/>
        <pt x="190" y="30" on="1"/>
        <pt x="187" y="-2" on="0"/>
        <pt x="130" y="-2" on="1"/>
        <pt x="88" y="-2" on="1"/>
      </contour>
    </TTGlyph>
    <TTGlyph name="Hbar" xMin="-17" yMin="-2" xMax="662" yMax="702">
      <contour>
        <pt x="662" y="571" on="0"/>
        <pt x="662" y="541" on="1"/>
        <pt x="662" y="517" on="0"/>
        <pt x="647" y="476" on="0"/>
        <pt x="625" y="476" on="1"/>
        <pt x="565" y="476" on="1"/>
        <pt x="518" y="30" on="1"/>
        <pt x="515" y="-2" on="0"/>
        <pt x="457" y="-2" on="1"/>
        <pt x="416" y="-2" on="1"/>
        <pt x="358" y="-2" on="0"/>
        <pt x="361" y="30" on="1"/>
        <pt x="389" y="291" on="1"/>
        <pt x="218" y="291" on="1"/>
        <pt x="190" y="30" on="1"/>
        <pt x="187" y="-2" on="0"/>
        <pt x="130" y="-2" on="1"/>
        <pt x="88" y="-2" on="1"/>
        <pt x="30" y="-2" on="0"/>
        <pt x="33" y="30" on="1"/>
        <pt x="80" y="476" on="1"/>
        <pt x="9" y="476" on="1"/>
        <pt x="-5" y="476" on="0"/>
        <pt x="-17" y="490" on="0"/>
        <pt x="-17" y="506" on="1"/>
        <pt x="-17" y="571" on="0"/>
        <pt x="20" y="571" on="1"/>
        <pt x="90" y="571" on="1"/>
        <pt x="101" y="670" on="1"/>
        <pt x="104" y="702" on="0"/>
        <pt x="162" y="702" on="1"/>
        <pt x="204" y="702" on="1"/>
        <pt x="261" y="702" on="0"/>
        <pt x="258" y="670" on="1"/>
        <pt x="248" y="571" on="1"/>
        <pt x="419" y="571" on="1"/>
        <pt x="429" y="670" on="1"/>
        <pt x="432" y="702" on="0"/>
        <pt x="490" y="702" on="1"/>
        <pt x="531" y="702" on="1"/>
        <pt x="589" y="702" on="0"/>
        <pt x="586" y="670" on="1"/>
        <pt x="575" y="571" on="1"/>
        <pt x="636" y="571" on="1"/>
      </contour>
      <contour>
        <pt x="403" y="423" on="1"/>
        <pt x="409" y="476" on="1"/>
        <pt x="238" y="476" on="1"/>
        <pt x="232" y="423" on="1"/>
      </contour>
    </TTGlyph>
    <TTGlyph name="Hcircumflex" xMin="33" yMin="-2" xMax="586" yMax="895">
      <component glyphName="H" x="0" y="0" flags="0x0"/>
      <component glyphName="circumflex" x="193" y="177" flags="0x4"/>
    </TTGlyph>
    <TTGlyph name="I" xMin="25" yMin="-3" xMax="256" yMax="703">
      <contour>
        <pt x="25" y="-3" on="0"/>
        <pt x="28" y="30" on="1"/>
        <pt x="96" y="670" on="1"/>
        <pt x="99" y="703" on="0"/>
        <pt x="157" y="703" on="1"/>
        <pt x="199" y="703" on="1"/>
        <pt x="256" y="703" on="0"/>
        <pt x="253" y="670" on="1"/>
        <pt x="185" y="30" on="1"/>
        <pt x="182" y="-3" on="0"/>
        <pt x="125" y="-3" on="1"/>
        <pt x="83" y="-3" on="1"/>
      </contour>
    </TTGlyph>
    <TTGlyph name="IJ" xMin="28" yMin="-8" xMax="599" yMax="703">
      <component glyphName="I" x="0" y="0" flags="0x0"/>
      <component glyphName="J" x="262" y="0" flags="0x0"/>
    </TTGlyph>
    <TTGlyph name="Iacute" xMin="28" yMin="-3" xMax="309" yMax="911">
      <component glyphName="I" x="0" y="0" flags="0x0"/>
      <component glyphName="acute" x="87" y="177" flags="0x4"/>
    </TTGlyph>
    <TTGlyph name="Iacute_J.loclNLD" xMin="28" yMin="-8" xMax="653" yMax="911">
      <component glyphName="I" x="0" y="0" flags="0x0"/>
      <component glyphName="acute" x="87" y="177" flags="0x4"/>
      <component glyphName="J" x="262" y="0" flags="0x0"/>
      <component glyphName="acute" x="431" y="177" flags="0x4"/>
    </TTGlyph>
    <TTGlyph name="Ibreve" xMin="28" yMin="-3" xMax="325" yMax="892">
      <component glyphName="I" x="0" y="0" flags="0x0"/>
      <component glyphName="breve" x="24" y="177" flags="0x4"/>
    </TTGlyph>
    <TTGlyph name="Icircumflex" xMin="28" yMin="-3" xMax="308" yMax="895">
      <component glyphName="I" x="0" y="0" flags="0x0"/>
      <component glyphName="circumflex" x="24" y="177" flags="0x4"/>
    </TTGlyph>
    <TTGlyph name="Idieresis" xMin="28" yMin="-3" xMax="332" yMax="879">
      <component glyphName="I" x="0" y="0" flags="0x0"/>
      <component glyphName="dieresis" x="22" y="177" flags="0x4"/>
    </TTGlyph>
    <TTGlyph name="Idotaccent" xMin="28" yMin="-3" xMax="262" yMax="879">
      <component glyphName="I" x="0" y="0" flags="0x0"/>
      <component glyphName="dotaccent" x="21" y="177" flags="0x4"/>
    </TTGlyph>
    <TTGlyph name="Igrave" xMin="28" yMin="-3" xMax="253" yMax="911">
      <component glyphName="I" x="0" y="0" flags="0x0"/>
      <component glyphName="grave" x="16" y="177" flags="0x4"/>
    </TTGlyph>
    <TTGlyph name="Imacron" xMin="28" yMin="-3" xMax="317" yMax="869">
      <component glyphName="I" x="0" y="0" flags="0x0"/>
      <component glyphName="macron" x="24" y="177" flags="0x4"/>
    </TTGlyph>
    <TTGlyph name="Iogonek" xMin="25" yMin="-172" xMax="266" yMax="703">
      <contour>
        <pt x="252" y="-99" on="0"/>
        <pt x="266" y="-112" on="0"/>
        <pt x="266" y="-129" on="1"/>
        <pt x="266" y="-150" on="0"/>
        <pt x="249" y="-160" on="1"/>
        <pt x="224" y="-172" on="0"/>
        <pt x="193" y="-172" on="1"/>
        <pt x="136" y="-172" on="0"/>
        <pt x="96" y="-112" on="0"/>
        <pt x="96" y="-78" on="1"/>
        <pt x="96" y="-43" on="0"/>
        <pt x="112" y="-3" on="1"/>
        <pt x="83" y="-3" on="1"/>
        <pt x="25" y="-3" on="0"/>
        <pt x="28" y="30" on="1"/>
        <pt x="96" y="670" on="1"/>
        <pt x="99" y="703" on="0"/>
        <pt x="157" y="703" on="1"/>
        <pt x="199" y="703" on="1"/>
        <pt x="256" y="703" on="0"/>
        <pt x="253" y="670" on="1"/>
        <pt x="185" y="30" on="1"/>
        <pt x="183" y="19" on="0"/>
        <pt x="180" y="15" on="1"/>
        <pt x="163" y="-22" on="0"/>
        <pt x="163" y="-59" on="1"/>
        <pt x="163" y="-103" on="0"/>
        <pt x="212" y="-103" on="1"/>
        <pt x="220" y="-103" on="0"/>
        <pt x="232" y="-99" on="0"/>
        <pt x="236" y="-99" on="1"/>
      </contour>
    </TTGlyph>
    <TTGlyph name="Itilde" xMin="25" yMin="-3" xMax="313" yMax="875">
      <contour>
        <pt x="55" y="760" on="1"/>
        <pt x="44" y="763" on="0"/>
        <pt x="34" y="778" on="0"/>
        <pt x="34" y="786" on="1"/>
        <pt x="34" y="793" on="0"/>
        <pt x="38" y="802" on="1"/>
        <pt x="49" y="833" on="0"/>
        <pt x="90" y="871" on="0"/>
        <pt x="119" y="871" on="1"/>
        <pt x="137" y="871" on="0"/>
        <pt x="179" y="855" on="1"/>
        <pt x="211" y="842" on="0"/>
        <pt x="223" y="842" on="1"/>
        <pt x="235" y="842" on="0"/>
        <pt x="247" y="858" on="1"/>
        <pt x="252" y="867" on="0"/>
        <pt x="263" y="875" on="0"/>
        <pt x="271" y="875" on="1"/>
        <pt x="274" y="875" on="0"/>
        <pt x="284" y="873" on="1"/>
        <pt x="293" y="870" on="1"/>
        <pt x="313" y="863" on="0"/>
        <pt x="313" y="844" on="1"/>
        <pt x="313" y="837" on="0"/>
        <pt x="311" y="829" on="1"/>
        <pt x="301" y="799" on="0"/>
        <pt x="257" y="759" on="0"/>
        <pt x="229" y="759" on="1"/>
        <pt x="212" y="759" on="0"/>
        <pt x="170" y="775" on="1"/>
        <pt x="166" y="776" on="0"/>
        <pt x="134" y="788" on="0"/>
        <pt x="124" y="788" on="1"/>
        <pt x="112" y="788" on="0"/>
        <pt x="102" y="772" on="1"/>
        <pt x="90" y="755" on="0"/>
        <pt x="77" y="755" on="1"/>
        <pt x="73" y="755" on="0"/>
        <pt x="65" y="757" on="1"/>
      </contour>
      <contour>
        <pt x="25" y="-3" on="0"/>
        <pt x="28" y="30" on="1"/>
        <pt x="96" y="670" on="1"/>
        <pt x="99" y="703" on="0"/>
        <pt x="157" y="703" on="1"/>
        <pt x="199" y="703" on="1"/>
        <pt x="256" y="703" on="0"/>
        <pt x="253" y="670" on="1"/>
        <pt x="185" y="30" on="1"/>
        <pt x="182" y="-3" on="0"/>
        <pt x="125" y="-3" on="1"/>
        <pt x="83" y="-3" on="1"/>
      </contour>
    </TTGlyph>
    <TTGlyph name="J" xMin="-26" yMin="-8" xMax="340" yMax="703">
      <contour>
        <pt x="41" y="-8" on="0"/>
        <pt x="-26" y="18" on="0"/>
        <pt x="-25" y="38" on="1"/>
        <pt x="-22" y="67" on="0"/>
        <pt x="11" y="130" on="0"/>
        <pt x="27" y="131" on="1"/>
        <pt x="31" y="131" on="0"/>
        <pt x="58" y="125" on="0"/>
        <pt x="74" y="125" on="1"/>
        <pt x="101" y="125" on="0"/>
        <pt x="128" y="173" on="0"/>
        <pt x="133" y="227" on="1"/>
        <pt x="180" y="670" on="1"/>
        <pt x="183" y="703" on="0"/>
        <pt x="240" y="703" on="1"/>
        <pt x="282" y="703" on="1"/>
        <pt x="340" y="703" on="0"/>
        <pt x="337" y="670" on="1"/>
        <pt x="288" y="202" on="1"/>
        <pt x="266" y="-8" on="0"/>
        <pt x="85" y="-8" on="1"/>
      </contour>
    </TTGlyph>
    <TTGlyph name="Jcircumflex" xMin="-25" yMin="-8" xMax="390" yMax="895">
      <component glyphName="J" x="0" y="0" flags="0x0"/>
      <component glyphName="circumflex" x="106" y="177" flags="0x4"/>
    </TTGlyph>
    <TTGlyph name="K" xMin="30" yMin="-2" xMax="554" yMax="702">
      <contour>
        <pt x="30" y="-2" on="0"/>
        <pt x="33" y="30" on="1"/>
        <pt x="101" y="670" on="1"/>
        <pt x="104" y="702" on="0"/>
        <pt x="162" y="702" on="1"/>
        <pt x="202" y="702" on="1"/>
        <pt x="263" y="702" on="0"/>
        <pt x="258" y="670" on="1"/>
        <pt x="223" y="380" on="1"/>
        <pt x="230" y="380" on="1"/>
        <pt x="391" y="683" on="1"/>
        <pt x="397" y="694" on="0"/>
        <pt x="422" y="702" on="0"/>
        <pt x="444" y="702" on="1"/>
        <pt x="499" y="702" on="1"/>
        <pt x="554" y="702" on="0"/>
        <pt x="552" y="687" on="1"/>
        <pt x="552" y="680" on="0"/>
        <pt x="544" y="666" on="1"/>
        <pt x="358" y="353" on="1"/>
        <pt x="481" y="34" on="1"/>
        <pt x="485" y="25" on="0"/>
        <pt x="485" y="13" on="1"/>
        <pt x="483" y="-2" on="0"/>
        <pt x="431" y="-2" on="1"/>
        <pt x="373" y="-2" on="1"/>
        <pt x="350" y="-2" on="0"/>
        <pt x="325" y="6" on="0"/>
        <pt x="321" y="17" on="1"/>
        <pt x="224" y="333" on="1"/>
        <pt x="218" y="333" on="1"/>
        <pt x="190" y="30" on="1"/>
        <pt x="187" y="-2" on="0"/>
        <pt x="128" y="-2" on="1"/>
        <pt x="88" y="-2" on="1"/>
      </contour>
    </TTGlyph>
    <TTGlyph name="Kcommaaccent" xMin="33" yMin="-240" xMax="552" yMax="702">
      <component glyphName="K" x="0" y="0" flags="0x0"/>
      <component glyphName="uni0326" x="370" y="0" flags="0x0"/>
    </TTGlyph>
    <TTGlyph name="L" xMin="32" yMin="0" xMax="375" yMax="702">
      <contour>
        <pt x="47" y="0" on="0"/>
        <pt x="32" y="19" on="0"/>
        <pt x="34" y="40" on="1"/>
        <pt x="101" y="670" on="1"/>
        <pt x="104" y="702" on="0"/>
        <pt x="162" y="702" on="1"/>
        <pt x="202" y="702" on="1"/>
        <pt x="260" y="702" on="0"/>
        <pt x="257" y="670" on="1"/>
        <pt x="200" y="131" on="1"/>
        <pt x="349" y="131" on="1"/>
        <pt x="363" y="131" on="0"/>
        <pt x="375" y="114" on="0"/>
        <pt x="375" y="95" on="1"/>
        <pt x="374" y="81" on="1"/>
        <pt x="370" y="50" on="1"/>
        <pt x="368" y="24" on="0"/>
        <pt x="351" y="0" on="0"/>
        <pt x="335" y="0" on="1"/>
        <pt x="67" y="0" on="1"/>
      </contour>
    </TTGlyph>
    <TTGlyph name="Lacute" xMin="33" yMin="0" xMax="375" yMax="911">
      <component glyphName="L" x="0" y="0" flags="0x0"/>
      <component glyphName="acute" x="93" y="177" flags="0x4"/>
    </TTGlyph>
    <TTGlyph name="Lcaron" xMin="33" yMin="0" xMax="426" yMax="702">
      <component glyphName="L" x="0" y="0" flags="0x0"/>
      <component glyphName="caron.alt" x="239" y="0" flags="0x0"/>
    </TTGlyph>
    <TTGlyph name="Lcommaaccent" xMin="33" yMin="-240" xMax="375" yMax="702">
      <component glyphName="L" x="0" y="0" flags="0x0"/>
      <component glyphName="uni0326" x="320" y="0" flags="0x0"/>
    </TTGlyph>
    <TTGlyph name="Ldot" xMin="33" yMin="0" xMax="395" yMax="702">
      <component glyphName="L" x="0" y="0" flags="0x0"/>
      <component glyphName="periodcentered" x="206" y="0" flags="0x0"/>
    </TTGlyph>
    <TTGlyph name="Lslash" xMin="13" yMin="0" xMax="374" yMax="702">
      <contour>
        <pt x="362" y="131" on="0"/>
        <pt x="374" y="114" on="0"/>
        <pt x="374" y="95" on="1"/>
        <pt x="373" y="81" on="1"/>
        <pt x="369" y="50" on="1"/>
        <pt x="367" y="24" on="0"/>
        <pt x="350" y="0" on="0"/>
        <pt x="334" y="0" on="1"/>
        <pt x="66" y="0" on="1"/>
        <pt x="46" y="0" on="0"/>
        <pt x="31" y="19" on="0"/>
        <pt x="33" y="40" on="1"/>
        <pt x="61" y="302" on="1"/>
        <pt x="39" y="289" on="1"/>
        <pt x="32" y="284" on="0"/>
        <pt x="24" y="284" on="1"/>
        <pt x="13" y="284" on="0"/>
        <pt x="13" y="304" on="1"/>
        <pt x="13" y="324" on="1"/>
        <pt x="13" y="340" on="0"/>
        <pt x="25" y="361" on="0"/>
        <pt x="39" y="369" on="1"/>
        <pt x="70" y="388" on="1"/>
        <pt x="100" y="670" on="1"/>
        <pt x="103" y="702" on="0"/>
        <pt x="161" y="702" on="1"/>
        <pt x="201" y="702" on="1"/>
        <pt x="259" y="702" on="0"/>
        <pt x="256" y="670" on="1"/>
        <pt x="237" y="490" on="1"/>
        <pt x="278" y="515" on="1"/>
        <pt x="287" y="521" on="0"/>
        <pt x="293" y="521" on="1"/>
        <pt x="304" y="521" on="0"/>
        <pt x="304" y="501" on="1"/>
        <pt x="304" y="481" on="1"/>
        <pt x="304" y="451" on="0"/>
        <pt x="278" y="435" on="1"/>
        <pt x="228" y="404" on="1"/>
        <pt x="199" y="131" on="1"/>
        <pt x="348" y="131" on="1"/>
      </contour>
    </TTGlyph>
    <TTGlyph name="M" xMin="26" yMin="-2" xMax="680" yMax="702">
      <contour>
        <pt x="316" y="223" on="0"/>
        <pt x="299" y="234" on="0"/>
        <pt x="293" y="247" on="1"/>
        <pt x="234" y="385" on="1"/>
        <pt x="228" y="400" on="0"/>
        <pt x="218" y="432" on="1"/>
        <pt x="214" y="431" on="1"/>
        <pt x="215" y="421" on="0"/>
        <pt x="215" y="399" on="1"/>
        <pt x="215" y="384" on="0"/>
        <pt x="214" y="376" on="1"/>
        <pt x="178" y="30" on="1"/>
        <pt x="176" y="13" on="0"/>
        <pt x="146" y="-2" on="0"/>
        <pt x="116" y="-2" on="1"/>
        <pt x="82" y="-2" on="1"/>
        <pt x="51" y="-2" on="0"/>
        <pt x="26" y="13" on="0"/>
        <pt x="28" y="30" on="1"/>
        <pt x="95" y="670" on="1"/>
        <pt x="97" y="687" on="0"/>
        <pt x="125" y="702" on="0"/>
        <pt x="156" y="702" on="1"/>
        <pt x="187" y="702" on="1"/>
        <pt x="211" y="702" on="0"/>
        <pt x="237" y="689" on="0"/>
        <pt x="244" y="674" on="1"/>
        <pt x="344" y="439" on="1"/>
        <pt x="349" y="426" on="0"/>
        <pt x="358" y="391" on="1"/>
        <pt x="366" y="416" on="0"/>
        <pt x="381" y="439" on="1"/>
        <pt x="529" y="674" on="1"/>
        <pt x="539" y="689" on="0"/>
        <pt x="568" y="702" on="0"/>
        <pt x="592" y="702" on="1"/>
        <pt x="623" y="702" on="1"/>
        <pt x="654" y="702" on="0"/>
        <pt x="680" y="687" on="0"/>
        <pt x="678" y="670" on="1"/>
        <pt x="611" y="30" on="1"/>
        <pt x="609" y="13" on="0"/>
        <pt x="579" y="-2" on="0"/>
        <pt x="549" y="-2" on="1"/>
        <pt x="515" y="-2" on="1"/>
        <pt x="484" y="-2" on="0"/>
        <pt x="459" y="13" on="0"/>
        <pt x="461" y="30" on="1"/>
        <pt x="497" y="376" on="1"/>
        <pt x="500" y="400" on="0"/>
        <pt x="510" y="431" on="1"/>
        <pt x="506" y="432" on="1"/>
        <pt x="493" y="406" on="0"/>
        <pt x="479" y="385" on="1"/>
        <pt x="390" y="247" on="1"/>
        <pt x="382" y="234" on="0"/>
        <pt x="364" y="223" on="0"/>
        <pt x="348" y="223" on="1"/>
        <pt x="331" y="223" on="1"/>
      </contour>
    </TTGlyph>
    <TTGlyph name="N" xMin="23" yMin="-2" xMax="584" yMax="702">
      <contour>
        <pt x="23" y="-2" on="0"/>
        <pt x="28" y="30" on="1"/>
        <pt x="95" y="670" on="1"/>
        <pt x="98" y="702" on="0"/>
        <pt x="156" y="702" on="1"/>
        <pt x="182" y="702" on="1"/>
        <pt x="201" y="702" on="0"/>
        <pt x="224" y="691" on="0"/>
        <pt x="231" y="674" on="1"/>
        <pt x="374" y="338" on="1"/>
        <pt x="388" y="305" on="0"/>
        <pt x="400" y="260" on="1"/>
        <pt x="404" y="262" on="1"/>
        <pt x="402" y="294" on="0"/>
        <pt x="402" y="310" on="1"/>
        <pt x="402" y="321" on="0"/>
        <pt x="404" y="341" on="1"/>
        <pt x="441" y="670" on="1"/>
        <pt x="444" y="702" on="0"/>
        <pt x="502" y="702" on="1"/>
        <pt x="526" y="702" on="1"/>
        <pt x="584" y="702" on="0"/>
        <pt x="581" y="670" on="1"/>
        <pt x="514" y="30" on="1"/>
        <pt x="509" y="-2" on="0"/>
        <pt x="452" y="-2" on="1"/>
        <pt x="433" y="-2" on="1"/>
        <pt x="413" y="-2" on="0"/>
        <pt x="389" y="10" on="0"/>
        <pt x="382" y="26" on="1"/>
        <pt x="230" y="376" on="1"/>
        <pt x="223" y="391" on="0"/>
        <pt x="212" y="432" on="0"/>
        <pt x="210" y="440" on="1"/>
        <pt x="204" y="437" on="1"/>
        <pt x="205" y="429" on="0"/>
        <pt x="207" y="408" on="0"/>
        <pt x="207" y="394" on="1"/>
        <pt x="207" y="385" on="0"/>
        <pt x="205" y="369" on="1"/>
        <pt x="168" y="30" on="1"/>
        <pt x="165" y="-2" on="0"/>
        <pt x="106" y="-2" on="1"/>
        <pt x="82" y="-2" on="1"/>
      </contour>
    </TTGlyph>
    <TTGlyph name="Nacute" xMin="28" yMin="-2" xMax="581" yMax="911">
      <component glyphName="N" x="0" y="0" flags="0x0"/>
      <component glyphName="acute" x="252" y="177" flags="0x4"/>
    </TTGlyph>
    <TTGlyph name="Nacute.loclPLK" xMin="28" yMin="-2" xMax="581" yMax="911">
      <component glyphName="N" x="0" y="0" flags="0x0"/>
      <component glyphName="acute.loclPLK" x="257" y="177" flags="0x4"/>
    </TTGlyph>
    <TTGlyph name="Ncaron" xMin="28" yMin="-2" xMax="581" yMax="895">
      <component glyphName="N" x="0" y="0" flags="0x0"/>
      <component glyphName="caron" x="190" y="177" flags="0x4"/>
    </TTGlyph>
    <TTGlyph name="Ncommaaccent" xMin="28" yMin="-240" xMax="581" yMax="702">
      <component glyphName="N" x="0" y="0" flags="0x0"/>
      <component glyphName="uni0326" x="409" y="0" flags="0x0"/>
    </TTGlyph>
    <TTGlyph name="Ntilde" xMin="28" yMin="-2" xMax="581" yMax="875">
      <component glyphName="N" x="0" y="0" flags="0x0"/>
      <component glyphName="tilde" x="197" y="177" flags="0x4"/>
    </TTGlyph>
    <TTGlyph name="O" xMin="43" yMin="-8" xMax="574" yMax="708">
      <contour>
        <pt x="165" y="-8" on="0"/>
        <pt x="43" y="131" on="0"/>
        <pt x="43" y="273" on="1"/>
        <pt x="43" y="314" on="0"/>
        <pt x="47" y="350" on="1"/>
        <pt x="66" y="536" on="0"/>
        <pt x="213" y="708" on="0"/>
        <pt x="347" y="708" on="1"/>
        <pt x="454" y="708" on="0"/>
        <pt x="574" y="570" on="0"/>
        <pt x="574" y="429" on="1"/>
        <pt x="574" y="387" on="0"/>
        <pt x="570" y="350" on="1"/>
        <pt x="551" y="164" on="0"/>
        <pt x="405" y="-8" on="0"/>
        <pt x="271" y="-8" on="1"/>
      </contour>
      <contour>
        <pt x="322" y="123" on="0"/>
        <pt x="370" y="163" on="0"/>
        <pt x="403" y="262" on="0"/>
        <pt x="412" y="350" on="1"/>
        <pt x="418" y="404" on="0"/>
        <pt x="418" y="443" on="1"/>
        <pt x="418" y="516" on="0"/>
        <pt x="377" y="576" on="0"/>
        <pt x="334" y="576" on="1"/>
        <pt x="298" y="576" on="0"/>
        <pt x="249" y="536" on="0"/>
        <pt x="215" y="437" on="0"/>
        <pt x="206" y="350" on="1"/>
        <pt x="200" y="298" on="0"/>
        <pt x="200" y="259" on="1"/>
        <pt x="200" y="184" on="0"/>
        <pt x="243" y="123" on="0"/>
        <pt x="286" y="123" on="1"/>
      </contour>
    </TTGlyph>
    <TTGlyph name="OE" xMin="42" yMin="-8" xMax="824" yMax="708">
      <contour>
        <pt x="824" y="700" on="0"/>
        <pt x="824" y="664" on="1"/>
        <pt x="823" y="650" on="1"/>
        <pt x="820" y="619" on="1"/>
        <pt x="816" y="569" on="0"/>
        <pt x="785" y="569" on="1"/>
        <pt x="593" y="569" on="1"/>
        <pt x="578" y="424" on="1"/>
        <pt x="750" y="424" on="1"/>
        <pt x="775" y="424" on="0"/>
        <pt x="775" y="388" on="1"/>
        <pt x="774" y="374" on="1"/>
        <pt x="771" y="343" on="1"/>
        <pt x="767" y="293" on="0"/>
        <pt x="736" y="293" on="1"/>
        <pt x="564" y="293" on="1"/>
        <pt x="547" y="131" on="1"/>
        <pt x="740" y="131" on="1"/>
        <pt x="753" y="131" on="0"/>
        <pt x="764" y="114" on="0"/>
        <pt x="764" y="96" on="1"/>
        <pt x="763" y="81" on="1"/>
        <pt x="760" y="50" on="1"/>
        <pt x="756" y="0" on="0"/>
        <pt x="726" y="0" on="1"/>
        <pt x="414" y="0" on="1"/>
        <pt x="382" y="0" on="0"/>
        <pt x="381" y="26" on="1"/>
        <pt x="325" y="-8" on="0"/>
        <pt x="247" y="-8" on="1"/>
        <pt x="154" y="-8" on="0"/>
        <pt x="42" y="130" on="0"/>
        <pt x="42" y="268" on="1"/>
        <pt x="42" y="302" on="0"/>
        <pt x="47" y="350" on="1"/>
        <pt x="67" y="532" on="0"/>
        <pt x="201" y="708" on="0"/>
        <pt x="318" y="708" on="1"/>
        <pt x="362" y="708" on="0"/>
        <pt x="425" y="687" on="0"/>
        <pt x="447" y="663" on="1"/>
        <pt x="450" y="683" on="0"/>
        <pt x="469" y="700" on="0"/>
        <pt x="488" y="700" on="1"/>
        <pt x="799" y="700" on="1"/>
      </contour>
      <contour>
        <pt x="322" y="123" on="0"/>
        <pt x="370" y="163" on="0"/>
        <pt x="403" y="262" on="0"/>
        <pt x="412" y="350" on="1"/>
        <pt x="418" y="404" on="0"/>
        <pt x="418" y="443" on="1"/>
        <pt x="418" y="516" on="0"/>
        <pt x="377" y="576" on="0"/>
        <pt x="334" y="576" on="1"/>
        <pt x="298" y="576" on="0"/>
        <pt x="249" y="536" on="0"/>
        <pt x="215" y="437" on="0"/>
        <pt x="206" y="350" on="1"/>
        <pt x="200" y="298" on="0"/>
        <pt x="200" y="259" on="1"/>
        <pt x="200" y="184" on="0"/>
        <pt x="243" y="123" on="0"/>
        <pt x="286" y="123" on="1"/>
      </contour>
    </TTGlyph>
    <TTGlyph name="Oacute" xMin="43" yMin="-8" xMax="574" yMax="911">
      <component glyphName="O" x="0" y="0" flags="0x0"/>
      <component glyphName="acute" x="255" y="177" flags="0x4"/>
    </TTGlyph>
    <TTGlyph name="Oacute.loclPLK" xMin="43" yMin="-8" xMax="574" yMax="911">
      <component glyphName="O" x="0" y="0" flags="0x0"/>
      <component glyphName="acute.loclPLK" x="260" y="177" flags="0x4"/>
    </TTGlyph>
    <TTGlyph name="Obreve" xMin="43" yMin="-8" xMax="574" yMax="892">
      <component glyphName="O" x="0" y="0" flags="0x0"/>
      <component glyphName="breve" x="192" y="177" flags="0x4"/>
    </TTGlyph>
    <TTGlyph name="Ocircumflex" xMin="43" yMin="-8" xMax="574" yMax="895">
      <component glyphName="O" x="0" y="0" flags="0x0"/>
      <component glyphName="circumflex" x="192" y="177" flags="0x4"/>
    </TTGlyph>
    <TTGlyph name="Odieresis" xMin="43" yMin="-8" xMax="574" yMax="879">
      <component glyphName="O" x="0" y="0" flags="0x0"/>
      <component glyphName="dieresis" x="190" y="177" flags="0x4"/>
    </TTGlyph>
    <TTGlyph name="Ograve" xMin="43" yMin="-8" xMax="574" yMax="911">
      <component glyphName="O" x="0" y="0" flags="0x0"/>
      <component glyphName="grave" x="184" y="177" flags="0x4"/>
    </TTGlyph>
    <TTGlyph name="Ohorn" xMin="43" yMin="-8" xMax="644" yMax="785">
      <contour>
        <pt x="644" y="660" on="0"/>
        <pt x="591" y="611" on="0"/>
        <pt x="536" y="608" on="1"/>
        <pt x="574" y="541" on="0"/>
        <pt x="574" y="429" on="1"/>
        <pt x="574" y="387" on="0"/>
        <pt x="570" y="350" on="1"/>
        <pt x="551" y="164" on="0"/>
        <pt x="405" y="-8" on="0"/>
        <pt x="271" y="-8" on="1"/>
        <pt x="165" y="-8" on="0"/>
        <pt x="43" y="131" on="0"/>
        <pt x="43" y="273" on="1"/>
        <pt x="43" y="314" on="0"/>
        <pt x="47" y="350" on="1"/>
        <pt x="66" y="532" on="0"/>
        <pt x="211" y="708" on="0"/>
        <pt x="345" y="708" on="1"/>
        <pt x="387" y="708" on="0"/>
        <pt x="447" y="689" on="0"/>
        <pt x="480" y="670" on="1"/>
        <pt x="512" y="651" on="0"/>
        <pt x="532" y="651" on="1"/>
        <pt x="548" y="651" on="0"/>
        <pt x="566" y="668" on="0"/>
        <pt x="566" y="684" on="1"/>
        <pt x="566" y="694" on="0"/>
        <pt x="557" y="710" on="0"/>
        <pt x="549" y="720" on="1"/>
        <pt x="538" y="733" on="0"/>
        <pt x="538" y="739" on="1"/>
        <pt x="538" y="751" on="0"/>
        <pt x="549" y="758" on="1"/>
        <pt x="581" y="780" on="1"/>
        <pt x="587" y="785" on="0"/>
        <pt x="597" y="785" on="1"/>
        <pt x="615" y="785" on="0"/>
        <pt x="644" y="727" on="0"/>
        <pt x="644" y="702" on="1"/>
      </contour>
      <contour>
        <pt x="418" y="404" on="0"/>
        <pt x="418" y="443" on="1"/>
        <pt x="418" y="516" on="0"/>
        <pt x="377" y="576" on="0"/>
        <pt x="334" y="576" on="1"/>
        <pt x="298" y="576" on="0"/>
        <pt x="249" y="536" on="0"/>
        <pt x="215" y="437" on="0"/>
        <pt x="206" y="350" on="1"/>
        <pt x="200" y="298" on="0"/>
        <pt x="200" y="259" on="1"/>
        <pt x="200" y="184" on="0"/>
        <pt x="243" y="123" on="0"/>
        <pt x="286" y="123" on="1"/>
        <pt x="322" y="123" on="0"/>
        <pt x="370" y="163" on="0"/>
        <pt x="403" y="262" on="0"/>
        <pt x="412" y="350" on="1"/>
      </contour>
    </TTGlyph>
    <TTGlyph name="Ohungarumlaut" xMin="43" yMin="-8" xMax="575" yMax="911">
      <component glyphName="O" x="0" y="0" flags="0x0"/>
      <component glyphName="hungarumlaut" x="261" y="177" flags="0x4"/>
    </TTGlyph>
    <TTGlyph name="Omacron" xMin="43" yMin="-8" xMax="574" yMax="869">
      <component glyphName="O" x="0" y="0" flags="0x0"/>
      <component glyphName="macron" x="192" y="177" flags="0x4"/>
    </TTGlyph>
    <TTGlyph name="Oslash" xMin="39" yMin="-23" xMax="574" yMax="730">
      <contour>
        <pt x="574" y="551" on="0"/>
        <pt x="574" y="428" on="1"/>
        <pt x="574" y="387" on="0"/>
        <pt x="570" y="350" on="1"/>
        <pt x="551" y="164" on="0"/>
        <pt x="405" y="-8" on="0"/>
        <pt x="271" y="-8" on="1"/>
        <pt x="191" y="-8" on="0"/>
        <pt x="138" y="30" on="1"/>
        <pt x="114" y="-7" on="1"/>
        <pt x="104" y="-23" on="0"/>
        <pt x="90" y="-23" on="1"/>
        <pt x="76" y="-23" on="0"/>
        <pt x="39" y="5" on="0"/>
        <pt x="39" y="18" on="1"/>
        <pt x="39" y="26" on="0"/>
        <pt x="46" y="36" on="1"/>
        <pt x="83" y="92" on="1"/>
        <pt x="43" y="160" on="0"/>
        <pt x="43" y="273" on="1"/>
        <pt x="43" y="314" on="0"/>
        <pt x="47" y="350" on="1"/>
        <pt x="66" y="536" on="0"/>
        <pt x="213" y="708" on="0"/>
        <pt x="347" y="708" on="1"/>
        <pt x="416" y="708" on="0"/>
        <pt x="468" y="679" on="1"/>
        <pt x="491" y="714" on="1"/>
        <pt x="497" y="722" on="0"/>
        <pt x="507" y="730" on="0"/>
        <pt x="514" y="730" on="1"/>
        <pt x="528" y="730" on="0"/>
        <pt x="565" y="702" on="0"/>
        <pt x="565" y="689" on="1"/>
        <pt x="565" y="679" on="0"/>
        <pt x="558" y="670" on="1"/>
        <pt x="527" y="623" on="1"/>
      </contour>
      <contour>
        <pt x="201" y="300" on="0"/>
        <pt x="201" y="271" on="1"/>
        <pt x="388" y="557" on="1"/>
        <pt x="370" y="576" on="0"/>
        <pt x="334" y="576" on="1"/>
        <pt x="298" y="576" on="0"/>
        <pt x="249" y="536" on="0"/>
        <pt x="215" y="437" on="0"/>
        <pt x="206" y="350" on="1"/>
      </contour>
      <contour>
        <pt x="418" y="400" on="0"/>
        <pt x="418" y="456" on="1"/>
        <pt x="220" y="155" on="1"/>
        <pt x="241" y="123" on="0"/>
        <pt x="286" y="123" on="1"/>
        <pt x="322" y="123" on="0"/>
        <pt x="370" y="163" on="0"/>
        <pt x="403" y="262" on="0"/>
        <pt x="412" y="350" on="1"/>
      </contour>
    </TTGlyph>
    <TTGlyph name="Oslashacute" xMin="39" yMin="-23" xMax="574" yMax="911">
      <component glyphName="Oslash" x="0" y="0" flags="0x0"/>
      <component glyphName="acute" x="252" y="177" flags="0x4"/>
    </TTGlyph>
    <TTGlyph name="Otilde" xMin="43" yMin="-8" xMax="574" yMax="875">
      <component glyphName="O" x="0" y="0" flags="0x0"/>
      <component glyphName="tilde" x="200" y="177" flags="0x4"/>
    </TTGlyph>
    <TTGlyph name="P" xMin="30" yMin="-2" xMax="496" yMax="700">
      <contour>
        <pt x="30" y="-2" on="0"/>
        <pt x="33" y="30" on="1"/>
        <pt x="100" y="660" on="1"/>
        <pt x="102" y="681" on="0"/>
        <pt x="123" y="700" on="0"/>
        <pt x="144" y="700" on="1"/>
        <pt x="317" y="700" on="1"/>
        <pt x="388" y="700" on="0"/>
        <pt x="496" y="625" on="0"/>
        <pt x="496" y="521" on="1"/>
        <pt x="496" y="509" on="0"/>
        <pt x="494" y="481" on="1"/>
        <pt x="485" y="393" on="0"/>
        <pt x="405" y="296" on="0"/>
        <pt x="315" y="262" on="0"/>
        <pt x="281" y="262" on="1"/>
        <pt x="212" y="262" on="1"/>
        <pt x="187" y="30" on="1"/>
        <pt x="184" y="-2" on="0"/>
        <pt x="124" y="-2" on="1"/>
        <pt x="90" y="-2" on="1"/>
      </contour>
      <contour>
        <pt x="277" y="391" on="1"/>
        <pt x="300" y="391" on="0"/>
        <pt x="339" y="431" on="0"/>
        <pt x="344" y="481" on="1"/>
        <pt x="345" y="488" on="0"/>
        <pt x="345" y="501" on="1"/>
        <pt x="345" y="538" on="0"/>
        <pt x="316" y="569" on="0"/>
        <pt x="296" y="569" on="1"/>
        <pt x="243" y="569" on="1"/>
        <pt x="224" y="391" on="1"/>
      </contour>
    </TTGlyph>
    <TTGlyph name="Q" xMin="42" yMin="-159" xMax="574" yMax="708">
      <contour>
        <pt x="460" y="-159" on="0"/>
        <pt x="221" y="-27" on="0"/>
        <pt x="155" y="15" on="1"/>
        <pt x="100" y="50" on="0"/>
        <pt x="42" y="175" on="0"/>
        <pt x="42" y="272" on="1"/>
        <pt x="42" y="313" on="0"/>
        <pt x="46" y="350" on="1"/>
        <pt x="65" y="536" on="0"/>
        <pt x="212" y="708" on="0"/>
        <pt x="346" y="708" on="1"/>
        <pt x="456" y="708" on="0"/>
        <pt x="574" y="572" on="0"/>
        <pt x="574" y="432" on="1"/>
        <pt x="574" y="398" on="0"/>
        <pt x="569" y="350" on="1"/>
        <pt x="540" y="100" on="0"/>
        <pt x="387" y="26" on="1"/>
        <pt x="386" y="22" on="1"/>
        <pt x="538" y="-47" on="1"/>
        <pt x="550" y="-52" on="0"/>
        <pt x="548" y="-65" on="1"/>
        <pt x="546" y="-74" on="0"/>
        <pt x="520" y="-121" on="0"/>
        <pt x="486" y="-159" on="0"/>
        <pt x="471" y="-159" on="1"/>
      </contour>
      <contour>
        <pt x="321" y="121" on="0"/>
        <pt x="369" y="162" on="0"/>
        <pt x="402" y="261" on="0"/>
        <pt x="411" y="350" on="1"/>
        <pt x="417" y="404" on="0"/>
        <pt x="417" y="443" on="1"/>
        <pt x="417" y="516" on="0"/>
        <pt x="376" y="576" on="0"/>
        <pt x="333" y="576" on="1"/>
        <pt x="297" y="576" on="0"/>
        <pt x="248" y="536" on="0"/>
        <pt x="214" y="437" on="0"/>
        <pt x="205" y="350" on="1"/>
        <pt x="199" y="296" on="0"/>
        <pt x="199" y="258" on="1"/>
        <pt x="199" y="182" on="0"/>
        <pt x="242" y="121" on="0"/>
        <pt x="285" y="121" on="1"/>
      </contour>
    </TTGlyph>
    <TTGlyph name="R" xMin="27" yMin="-2" xMax="493" yMax="700">
      <contour>
        <pt x="27" y="-2" on="0"/>
        <pt x="30" y="30" on="1"/>
        <pt x="97" y="660" on="1"/>
        <pt x="99" y="681" on="0"/>
        <pt x="120" y="700" on="0"/>
        <pt x="141" y="700" on="1"/>
        <pt x="308" y="700" on="1"/>
        <pt x="392" y="700" on="0"/>
        <pt x="493" y="624" on="0"/>
        <pt x="493" y="537" on="1"/>
        <pt x="493" y="527" on="0"/>
        <pt x="491" y="503" on="1"/>
        <pt x="479" y="385" on="0"/>
        <pt x="378" y="334" on="1"/>
        <pt x="378" y="330" on="1"/>
        <pt x="398" y="318" on="0"/>
        <pt x="429" y="262" on="0"/>
        <pt x="434" y="230" on="1"/>
        <pt x="473" y="38" on="1"/>
        <pt x="475" y="26" on="1"/>
        <pt x="472" y="-1" on="0"/>
        <pt x="410" y="-1" on="1"/>
        <pt x="375" y="-1" on="1"/>
        <pt x="322" y="-1" on="0"/>
        <pt x="318" y="26" on="1"/>
        <pt x="285" y="216" on="1"/>
        <pt x="279" y="238" on="0"/>
        <pt x="257" y="256" on="0"/>
        <pt x="232" y="256" on="1"/>
        <pt x="208" y="256" on="1"/>
        <pt x="184" y="30" on="1"/>
        <pt x="181" y="-2" on="0"/>
        <pt x="121" y="-2" on="1"/>
        <pt x="87" y="-2" on="1"/>
      </contour>
      <contour>
        <pt x="280" y="402" on="1"/>
        <pt x="301" y="402" on="0"/>
        <pt x="337" y="446" on="0"/>
        <pt x="342" y="488" on="1"/>
        <pt x="343" y="494" on="0"/>
        <pt x="343" y="506" on="1"/>
        <pt x="343" y="539" on="0"/>
        <pt x="317" y="569" on="0"/>
        <pt x="294" y="569" on="1"/>
        <pt x="241" y="569" on="1"/>
        <pt x="224" y="402" on="1"/>
      </contour>
    </TTGlyph>
    <TTGlyph name="Racute" xMin="30" yMin="-2" xMax="493" yMax="911">
      <component glyphName="R" x="0" y="0" flags="0x0"/>
      <component glyphName="acute" x="207" y="177" flags="0x4"/>
    </TTGlyph>
    <TTGlyph name="Rcaron" xMin="30" yMin="-2" xMax="493" yMax="895">
      <component glyphName="R" x="0" y="0" flags="0x0"/>
      <component glyphName="caron" x="145" y="177" flags="0x4"/>
    </TTGlyph>
    <TTGlyph name="Rcommaaccent" xMin="30" yMin="-240" xMax="493" yMax="700">
      <component glyphName="R" x="0" y="0" flags="0x0"/>
      <component glyphName="uni0326" x="367" y="0" flags="0x0"/>
    </TTGlyph>
    <TTGlyph name="S" xMin="3" yMin="-8" xMax="423" yMax="708">
      <contour>
        <pt x="116" y="-8" on="0"/>
        <pt x="70" y="8" on="1"/>
        <pt x="43" y="18" on="0"/>
        <pt x="4" y="48" on="0"/>
        <pt x="4" y="66" on="1"/>
        <pt x="3" y="95" on="0"/>
        <pt x="35" y="163" on="0"/>
        <pt x="55" y="163" on="1"/>
        <pt x="62" y="163" on="0"/>
        <pt x="74" y="156" on="1"/>
        <pt x="107" y="138" on="0"/>
        <pt x="148" y="123" on="0"/>
        <pt x="175" y="123" on="1"/>
        <pt x="208" y="123" on="0"/>
        <pt x="256" y="162" on="0"/>
        <pt x="256" y="205" on="1"/>
        <pt x="256" y="235" on="0"/>
        <pt x="218" y="272" on="0"/>
        <pt x="177" y="298" on="1"/>
        <pt x="172" y="302" on="0"/>
        <pt x="163" y="307" on="0"/>
        <pt x="160" y="309" on="1"/>
        <pt x="103" y="345" on="0"/>
        <pt x="52" y="419" on="0"/>
        <pt x="52" y="482" on="1"/>
        <pt x="52" y="551" on="0"/>
        <pt x="111" y="654" on="0"/>
        <pt x="213" y="708" on="0"/>
        <pt x="276" y="708" on="1"/>
        <pt x="308" y="708" on="0"/>
        <pt x="377" y="693" on="0"/>
        <pt x="399" y="680" on="1"/>
        <pt x="423" y="666" on="0"/>
        <pt x="423" y="645" on="1"/>
        <pt x="423" y="618" on="0"/>
        <pt x="397" y="555" on="0"/>
        <pt x="378" y="555" on="1"/>
        <pt x="369" y="555" on="0"/>
        <pt x="348" y="562" on="1"/>
        <pt x="310" y="576" on="0"/>
        <pt x="285" y="576" on="1"/>
        <pt x="238" y="576" on="0"/>
        <pt x="208" y="532" on="0"/>
        <pt x="208" y="508" on="1"/>
        <pt x="208" y="476" on="0"/>
        <pt x="244" y="437" on="0"/>
        <pt x="290" y="408" on="0"/>
        <pt x="297" y="403" on="1"/>
        <pt x="358" y="364" on="0"/>
        <pt x="412" y="291" on="0"/>
        <pt x="412" y="230" on="1"/>
        <pt x="412" y="117" on="0"/>
        <pt x="283" y="-8" on="0"/>
        <pt x="170" y="-8" on="1"/>
      </contour>
    </TTGlyph>
    <TTGlyph name="Sacute" xMin="4" yMin="-8" xMax="423" yMax="911">
      <component glyphName="S" x="0" y="0" flags="0x0"/>
      <component glyphName="acute" x="173" y="177" flags="0x4"/>
    </TTGlyph>
    <TTGlyph name="Sacute.loclPLK" xMin="4" yMin="-8" xMax="423" yMax="911">
      <component glyphName="S" x="0" y="0" flags="0x0"/>
      <component glyphName="acute.loclPLK" x="178" y="177" flags="0x4"/>
    </TTGlyph>
    <TTGlyph name="Scaron" xMin="4" yMin="-8" xMax="423" yMax="895">
      <component glyphName="S" x="0" y="0" flags="0x0"/>
      <component glyphName="caron" x="111" y="177" flags="0x4"/>
    </TTGlyph>
    <TTGlyph name="Scedilla" xMin="3" yMin="-212" xMax="423" yMax="708">
      <contour>
        <pt x="358" y="364" on="0"/>
        <pt x="412" y="291" on="0"/>
        <pt x="412" y="230" on="1"/>
        <pt x="412" y="121" on="0"/>
        <pt x="291" y="-3" on="0"/>
        <pt x="185" y="-8" on="1"/>
        <pt x="173" y="-48" on="1"/>
        <pt x="202" y="-53" on="0"/>
        <pt x="237" y="-90" on="0"/>
        <pt x="237" y="-122" on="1"/>
        <pt x="237" y="-166" on="0"/>
        <pt x="181" y="-212" on="0"/>
        <pt x="133" y="-212" on="1"/>
        <pt x="90" y="-212" on="0"/>
        <pt x="27" y="-181" on="0"/>
        <pt x="27" y="-160" on="1"/>
        <pt x="27" y="-142" on="0"/>
        <pt x="50" y="-118" on="0"/>
        <pt x="59" y="-118" on="1"/>
        <pt x="68" y="-118" on="0"/>
        <pt x="84" y="-127" on="1"/>
        <pt x="86" y="-128" on="0"/>
        <pt x="110" y="-139" on="0"/>
        <pt x="124" y="-139" on="1"/>
        <pt x="144" y="-139" on="0"/>
        <pt x="144" y="-123" on="1"/>
        <pt x="144" y="-115" on="0"/>
        <pt x="133" y="-106" on="0"/>
        <pt x="121" y="-101" on="1"/>
        <pt x="109" y="-96" on="0"/>
        <pt x="97" y="-87" on="0"/>
        <pt x="97" y="-79" on="1"/>
        <pt x="97" y="-74" on="0"/>
        <pt x="109" y="-40" on="0"/>
        <pt x="112" y="-30" on="1"/>
        <pt x="121" y="-4" on="1"/>
        <pt x="101" y="-2" on="0"/>
        <pt x="70" y="8" on="1"/>
        <pt x="43" y="18" on="0"/>
        <pt x="4" y="48" on="0"/>
        <pt x="4" y="66" on="1"/>
        <pt x="3" y="95" on="0"/>
        <pt x="35" y="163" on="0"/>
        <pt x="55" y="163" on="1"/>
        <pt x="62" y="163" on="0"/>
        <pt x="74" y="156" on="1"/>
        <pt x="107" y="138" on="0"/>
        <pt x="148" y="123" on="0"/>
        <pt x="175" y="123" on="1"/>
        <pt x="208" y="123" on="0"/>
        <pt x="256" y="162" on="0"/>
        <pt x="256" y="205" on="1"/>
        <pt x="256" y="235" on="0"/>
        <pt x="218" y="272" on="0"/>
        <pt x="177" y="298" on="1"/>
        <pt x="172" y="302" on="0"/>
        <pt x="163" y="307" on="0"/>
        <pt x="160" y="309" on="1"/>
        <pt x="103" y="345" on="0"/>
        <pt x="52" y="419" on="0"/>
        <pt x="52" y="482" on="1"/>
        <pt x="52" y="551" on="0"/>
        <pt x="111" y="654" on="0"/>
        <pt x="213" y="708" on="0"/>
        <pt x="276" y="708" on="1"/>
        <pt x="308" y="708" on="0"/>
        <pt x="377" y="693" on="0"/>
        <pt x="399" y="680" on="1"/>
        <pt x="423" y="666" on="0"/>
        <pt x="423" y="645" on="1"/>
        <pt x="423" y="618" on="0"/>
        <pt x="397" y="555" on="0"/>
        <pt x="378" y="555" on="1"/>
        <pt x="369" y="555" on="0"/>
        <pt x="348" y="562" on="1"/>
        <pt x="310" y="576" on="0"/>
        <pt x="285" y="576" on="1"/>
        <pt x="238" y="576" on="0"/>
        <pt x="208" y="532" on="0"/>
        <pt x="208" y="508" on="1"/>
        <pt x="208" y="476" on="0"/>
        <pt x="244" y="437" on="0"/>
        <pt x="290" y="408" on="0"/>
        <pt x="297" y="403" on="1"/>
      </contour>
    </TTGlyph>
    <TTGlyph name="Scircumflex" xMin="4" yMin="-8" xMax="423" yMax="895">
      <component glyphName="S" x="0" y="0" flags="0x0"/>
      <component glyphName="circumflex" x="110" y="177" flags="0x4"/>
    </TTGlyph>
    <TTGlyph name="Scommaaccent" xMin="4" yMin="-240" xMax="423" yMax="708">
      <component glyphName="S" x="0" y="0" flags="0x0"/>
      <component glyphName="uni0326" x="289" y="0" flags="0x0"/>
    </TTGlyph>
    <TTGlyph name="T" xMin="45" yMin="-2" xMax="490" yMax="700">
      <contour>
        <pt x="121" y="-2" on="0"/>
        <pt x="124" y="30" on="1"/>
        <pt x="181" y="569" on="1"/>
        <pt x="70" y="569" on="1"/>
        <pt x="45" y="569" on="0"/>
        <pt x="45" y="605" on="1"/>
        <pt x="46" y="619" on="1"/>
        <pt x="50" y="650" on="1"/>
        <pt x="54" y="700" on="0"/>
        <pt x="84" y="700" on="1"/>
        <pt x="464" y="700" on="1"/>
        <pt x="478" y="700" on="0"/>
        <pt x="490" y="683" on="0"/>
        <pt x="490" y="664" on="1"/>
        <pt x="489" y="650" on="1"/>
        <pt x="485" y="619" on="1"/>
        <pt x="483" y="593" on="0"/>
        <pt x="466" y="569" on="0"/>
        <pt x="450" y="569" on="1"/>
        <pt x="338" y="569" on="1"/>
        <pt x="281" y="30" on="1"/>
        <pt x="278" y="-2" on="0"/>
        <pt x="220" y="-2" on="1"/>
        <pt x="179" y="-2" on="1"/>
      </contour>
    </TTGlyph>
    <TTGlyph name="Tbar" xMin="27" yMin="-2" xMax="490" yMax="700">
      <contour>
        <pt x="478" y="700" on="0"/>
        <pt x="490" y="683" on="0"/>
        <pt x="490" y="664" on="1"/>
        <pt x="489" y="650" on="1"/>
        <pt x="485" y="619" on="1"/>
        <pt x="483" y="593" on="0"/>
        <pt x="466" y="569" on="0"/>
        <pt x="450" y="569" on="1"/>
        <pt x="338" y="569" on="1"/>
        <pt x="320" y="398" on="1"/>
        <pt x="420" y="398" on="1"/>
        <pt x="446" y="398" on="0"/>
        <pt x="446" y="368" on="1"/>
        <pt x="446" y="344" on="0"/>
        <pt x="431" y="303" on="0"/>
        <pt x="409" y="303" on="1"/>
        <pt x="310" y="303" on="1"/>
        <pt x="281" y="30" on="1"/>
        <pt x="278" y="-2" on="0"/>
        <pt x="220" y="-2" on="1"/>
        <pt x="179" y="-2" on="1"/>
        <pt x="121" y="-2" on="0"/>
        <pt x="124" y="30" on="1"/>
        <pt x="153" y="303" on="1"/>
        <pt x="53" y="303" on="1"/>
        <pt x="39" y="303" on="0"/>
        <pt x="27" y="317" on="0"/>
        <pt x="27" y="333" on="1"/>
        <pt x="27" y="398" on="0"/>
        <pt x="64" y="398" on="1"/>
        <pt x="163" y="398" on="1"/>
        <pt x="181" y="569" on="1"/>
        <pt x="70" y="569" on="1"/>
        <pt x="45" y="569" on="0"/>
        <pt x="45" y="605" on="1"/>
        <pt x="46" y="619" on="1"/>
        <pt x="50" y="650" on="1"/>
        <pt x="54" y="700" on="0"/>
        <pt x="84" y="700" on="1"/>
        <pt x="464" y="700" on="1"/>
      </contour>
    </TTGlyph>
    <TTGlyph name="Tcaron" xMin="45" yMin="-2" xMax="490" yMax="895">
      <component glyphName="T" x="0" y="0" flags="0x0"/>
      <component glyphName="caron" x="121" y="177" flags="0x4"/>
    </TTGlyph>
    <TTGlyph name="Thorn" xMin="26" yMin="-2" xMax="482" yMax="702">
      <contour>
        <pt x="26" y="-2" on="0"/>
        <pt x="31" y="30" on="1"/>
        <pt x="98" y="670" on="1"/>
        <pt x="101" y="702" on="0"/>
        <pt x="159" y="702" on="1"/>
        <pt x="199" y="702" on="1"/>
        <pt x="257" y="702" on="0"/>
        <pt x="254" y="670" on="1"/>
        <pt x="246" y="591" on="1"/>
        <pt x="303" y="591" on="1"/>
        <pt x="374" y="591" on="0"/>
        <pt x="482" y="516" on="0"/>
        <pt x="482" y="412" on="1"/>
        <pt x="482" y="400" on="0"/>
        <pt x="480" y="372" on="1"/>
        <pt x="470" y="284" on="0"/>
        <pt x="391" y="187" on="0"/>
        <pt x="301" y="153" on="0"/>
        <pt x="267" y="153" on="1"/>
        <pt x="200" y="153" on="1"/>
        <pt x="187" y="30" on="1"/>
        <pt x="182" y="-2" on="0"/>
        <pt x="125" y="-2" on="1"/>
        <pt x="85" y="-2" on="1"/>
      </contour>
      <contour>
        <pt x="263" y="282" on="1"/>
        <pt x="287" y="282" on="0"/>
        <pt x="325" y="322" on="0"/>
        <pt x="330" y="372" on="1"/>
        <pt x="331" y="379" on="0"/>
        <pt x="331" y="393" on="1"/>
        <pt x="331" y="430" on="0"/>
        <pt x="303" y="460" on="0"/>
        <pt x="282" y="460" on="1"/>
        <pt x="232" y="460" on="1"/>
        <pt x="213" y="282" on="1"/>
      </contour>
    </TTGlyph>
    <TTGlyph name="U" xMin="43" yMin="-8" xMax="578" yMax="702">
      <contour>
        <pt x="159" y="-8" on="0"/>
        <pt x="43" y="88" on="0"/>
        <pt x="43" y="176" on="1"/>
        <pt x="43" y="185" on="0"/>
        <pt x="45" y="205" on="1"/>
        <pt x="94" y="670" on="1"/>
        <pt x="97" y="702" on="0"/>
        <pt x="155" y="702" on="1"/>
        <pt x="195" y="702" on="1"/>
        <pt x="253" y="702" on="0"/>
        <pt x="250" y="670" on="1"/>
        <pt x="202" y="215" on="1"/>
        <pt x="198" y="174" on="0"/>
        <pt x="238" y="123" on="0"/>
        <pt x="277" y="123" on="1"/>
        <pt x="316" y="123" on="0"/>
        <pt x="368" y="175" on="0"/>
        <pt x="372" y="215" on="1"/>
        <pt x="420" y="670" on="1"/>
        <pt x="423" y="702" on="0"/>
        <pt x="481" y="702" on="1"/>
        <pt x="520" y="702" on="1"/>
        <pt x="578" y="702" on="0"/>
        <pt x="575" y="670" on="1"/>
        <pt x="526" y="205" on="1"/>
        <pt x="516" y="104" on="0"/>
        <pt x="377" y="-8" on="0"/>
        <pt x="264" y="-8" on="1"/>
      </contour>
    </TTGlyph>
    <TTGlyph name="Uacute" xMin="43" yMin="-8" xMax="575" yMax="911">
      <component glyphName="U" x="0" y="0" flags="0x0"/>
      <component glyphName="acute" x="247" y="177" flags="0x4"/>
    </TTGlyph>
    <TTGlyph name="Ubreve" xMin="43" yMin="-8" xMax="575" yMax="892">
      <component glyphName="U" x="0" y="0" flags="0x0"/>
      <component glyphName="breve" x="184" y="177" flags="0x4"/>
    </TTGlyph>
    <TTGlyph name="Ucircumflex" xMin="43" yMin="-8" xMax="575" yMax="895">
      <component glyphName="U" x="0" y="0" flags="0x0"/>
      <component glyphName="circumflex" x="184" y="177" flags="0x4"/>
    </TTGlyph>
    <TTGlyph name="Udieresis" xMin="43" yMin="-8" xMax="575" yMax="879">
      <component glyphName="U" x="0" y="0" flags="0x0"/>
      <component glyphName="dieresis" x="182" y="177" flags="0x4"/>
    </TTGlyph>
    <TTGlyph name="Ugrave" xMin="43" yMin="-8" xMax="575" yMax="911">
      <component glyphName="U" x="0" y="0" flags="0x0"/>
      <component glyphName="grave" x="176" y="177" flags="0x4"/>
    </TTGlyph>
    <TTGlyph name="Uhorn" xMin="43" yMin="-8" xMax="653" yMax="836">
      <contour>
        <pt x="653" y="677" on="0"/>
        <pt x="574" y="663" on="1"/>
        <pt x="526" y="205" on="1"/>
        <pt x="516" y="104" on="0"/>
        <pt x="377" y="-8" on="0"/>
        <pt x="264" y="-8" on="1"/>
        <pt x="159" y="-8" on="0"/>
        <pt x="43" y="88" on="0"/>
        <pt x="43" y="176" on="1"/>
        <pt x="43" y="185" on="0"/>
        <pt x="45" y="205" on="1"/>
        <pt x="94" y="670" on="1"/>
        <pt x="97" y="702" on="0"/>
        <pt x="155" y="702" on="1"/>
        <pt x="195" y="702" on="1"/>
        <pt x="253" y="702" on="0"/>
        <pt x="250" y="670" on="1"/>
        <pt x="202" y="215" on="1"/>
        <pt x="198" y="174" on="0"/>
        <pt x="238" y="123" on="0"/>
        <pt x="277" y="123" on="1"/>
        <pt x="316" y="123" on="0"/>
        <pt x="368" y="175" on="0"/>
        <pt x="372" y="215" on="1"/>
        <pt x="420" y="670" on="1"/>
        <pt x="423" y="702" on="0"/>
        <pt x="481" y="702" on="1"/>
        <pt x="532" y="702" on="1"/>
        <pt x="552" y="702" on="0"/>
        <pt x="575" y="720" on="0"/>
        <pt x="575" y="735" on="1"/>
        <pt x="575" y="745" on="0"/>
        <pt x="566" y="761" on="0"/>
        <pt x="558" y="771" on="1"/>
        <pt x="547" y="784" on="0"/>
        <pt x="547" y="790" on="1"/>
        <pt x="547" y="802" on="0"/>
        <pt x="558" y="809" on="1"/>
        <pt x="590" y="831" on="1"/>
        <pt x="596" y="836" on="0"/>
        <pt x="606" y="836" on="1"/>
        <pt x="624" y="836" on="0"/>
        <pt x="653" y="778" on="0"/>
        <pt x="653" y="753" on="1"/>
      </contour>
    </TTGlyph>
    <TTGlyph name="Uhungarumlaut" xMin="43" yMin="-8" xMax="575" yMax="911">
      <component glyphName="U" x="0" y="0" flags="0x0"/>
      <component glyphName="hungarumlaut" x="253" y="177" flags="0x4"/>
    </TTGlyph>
    <TTGlyph name="Umacron" xMin="43" yMin="-8" xMax="575" yMax="869">
      <component glyphName="U" x="0" y="0" flags="0x0"/>
      <component glyphName="macron" x="184" y="177" flags="0x4"/>
    </TTGlyph>
    <TTGlyph name="Uogonek" xMin="43" yMin="-160" xMax="578" yMax="702">
      <contour>
        <pt x="578" y="702" on="0"/>
        <pt x="575" y="670" on="1"/>
        <pt x="526" y="205" on="1"/>
        <pt x="519" y="143" on="0"/>
        <pt x="461" y="52" on="0"/>
        <pt x="412" y="25" on="1"/>
        <pt x="396" y="-11" on="0"/>
        <pt x="396" y="-47" on="1"/>
        <pt x="396" y="-91" on="0"/>
        <pt x="445" y="-91" on="1"/>
        <pt x="453" y="-91" on="0"/>
        <pt x="465" y="-87" on="0"/>
        <pt x="469" y="-87" on="1"/>
        <pt x="485" y="-87" on="0"/>
        <pt x="499" y="-100" on="0"/>
        <pt x="499" y="-117" on="1"/>
        <pt x="499" y="-138" on="0"/>
        <pt x="482" y="-148" on="1"/>
        <pt x="457" y="-160" on="0"/>
        <pt x="426" y="-160" on="1"/>
        <pt x="369" y="-160" on="0"/>
        <pt x="329" y="-100" on="0"/>
        <pt x="329" y="-66" on="1"/>
        <pt x="329" y="-35" on="0"/>
        <pt x="341" y="0" on="1"/>
        <pt x="304" y="-8" on="0"/>
        <pt x="264" y="-8" on="1"/>
        <pt x="159" y="-8" on="0"/>
        <pt x="43" y="88" on="0"/>
        <pt x="43" y="176" on="1"/>
        <pt x="43" y="185" on="0"/>
        <pt x="45" y="205" on="1"/>
        <pt x="94" y="670" on="1"/>
        <pt x="97" y="702" on="0"/>
        <pt x="155" y="702" on="1"/>
        <pt x="195" y="702" on="1"/>
        <pt x="253" y="702" on="0"/>
        <pt x="250" y="670" on="1"/>
        <pt x="202" y="215" on="1"/>
        <pt x="198" y="174" on="0"/>
        <pt x="238" y="123" on="0"/>
        <pt x="277" y="123" on="1"/>
        <pt x="316" y="123" on="0"/>
        <pt x="368" y="175" on="0"/>
        <pt x="372" y="215" on="1"/>
        <pt x="420" y="670" on="1"/>
        <pt x="423" y="702" on="0"/>
        <pt x="481" y="702" on="1"/>
        <pt x="520" y="702" on="1"/>
      </contour>
    </TTGlyph>
    <TTGlyph name="Uring" xMin="43" yMin="-8" xMax="575" yMax="926">
      <component glyphName="U" x="0" y="0" flags="0x0"/>
      <component glyphName="ring" x="182" y="177" flags="0x4"/>
    </TTGlyph>
    <TTGlyph name="Utilde" xMin="43" yMin="-8" xMax="575" yMax="875">
      <component glyphName="U" x="0" y="0" flags="0x0"/>
      <component glyphName="tilde" x="192" y="177" flags="0x4"/>
    </TTGlyph>
    <TTGlyph name="V" xMin="48" yMin="-2" xMax="548" yMax="702">
      <contour>
        <pt x="144" y="-2" on="0"/>
        <pt x="141" y="19" on="1"/>
        <pt x="51" y="662" on="1"/>
        <pt x="51" y="665" on="0"/>
        <pt x="48" y="676" on="0"/>
        <pt x="49" y="680" on="1"/>
        <pt x="51" y="702" on="0"/>
        <pt x="109" y="702" on="1"/>
        <pt x="147" y="702" on="1"/>
        <pt x="196" y="702" on="0"/>
        <pt x="199" y="673" on="1"/>
        <pt x="238" y="221" on="1"/>
        <pt x="239" y="152" on="1"/>
        <pt x="243" y="152" on="1"/>
        <pt x="260" y="221" on="1"/>
        <pt x="396" y="673" on="1"/>
        <pt x="405" y="702" on="0"/>
        <pt x="454" y="702" on="1"/>
        <pt x="491" y="702" on="1"/>
        <pt x="548" y="702" on="0"/>
        <pt x="546" y="680" on="1"/>
        <pt x="541" y="662" on="1"/>
        <pt x="318" y="19" on="1"/>
        <pt x="311" y="-2" on="0"/>
        <pt x="263" y="-2" on="1"/>
        <pt x="192" y="-2" on="1"/>
      </contour>
    </TTGlyph>
    <TTGlyph name="W" xMin="48" yMin="-2" xMax="793" yMax="702">
      <contour>
        <pt x="119" y="-2" on="0"/>
        <pt x="117" y="19" on="1"/>
        <pt x="48" y="661" on="1"/>
        <pt x="48" y="664" on="1"/>
        <pt x="48" y="670" on="0"/>
        <pt x="50" y="676" on="1"/>
        <pt x="52" y="702" on="0"/>
        <pt x="111" y="702" on="1"/>
        <pt x="140" y="702" on="1"/>
        <pt x="200" y="702" on="0"/>
        <pt x="201" y="671" on="1"/>
        <pt x="209" y="302" on="1"/>
        <pt x="210" y="275" on="0"/>
        <pt x="210" y="215" on="1"/>
        <pt x="211" y="194" on="0"/>
        <pt x="211" y="152" on="1"/>
        <pt x="230" y="224" on="1"/>
        <pt x="234" y="240" on="0"/>
        <pt x="247" y="287" on="0"/>
        <pt x="250" y="302" on="1"/>
        <pt x="346" y="681" on="1"/>
        <pt x="349" y="693" on="0"/>
        <pt x="375" y="702" on="0"/>
        <pt x="400" y="702" on="1"/>
        <pt x="440" y="702" on="1"/>
        <pt x="465" y="702" on="0"/>
        <pt x="489" y="693" on="0"/>
        <pt x="490" y="681" on="1"/>
        <pt x="515" y="302" on="1"/>
        <pt x="517" y="269" on="0"/>
        <pt x="519" y="199" on="1"/>
        <pt x="521" y="149" on="1"/>
        <pt x="534" y="198" on="0"/>
        <pt x="545" y="250" on="1"/>
        <pt x="557" y="302" on="1"/>
        <pt x="644" y="671" on="1"/>
        <pt x="651" y="702" on="0"/>
        <pt x="711" y="702" on="1"/>
        <pt x="734" y="702" on="1"/>
        <pt x="793" y="702" on="0"/>
        <pt x="791" y="676" on="1"/>
        <pt x="791" y="674" on="0"/>
        <pt x="790" y="665" on="0"/>
        <pt x="788" y="661" on="1"/>
        <pt x="593" y="19" on="1"/>
        <pt x="587" y="-2" on="0"/>
        <pt x="538" y="-2" on="1"/>
        <pt x="482" y="-2" on="1"/>
        <pt x="462" y="-2" on="0"/>
        <pt x="436" y="9" on="0"/>
        <pt x="435" y="19" on="1"/>
        <pt x="399" y="372" on="1"/>
        <pt x="399" y="479" on="1"/>
        <pt x="376" y="372" on="1"/>
        <pt x="275" y="19" on="1"/>
        <pt x="271" y="9" on="0"/>
        <pt x="242" y="-2" on="0"/>
        <pt x="222" y="-2" on="1"/>
        <pt x="166" y="-2" on="1"/>
      </contour>
    </TTGlyph>
    <TTGlyph name="Wacute" xMin="48" yMin="-2" xMax="791" yMax="911">
      <component glyphName="W" x="0" y="0" flags="0x0"/>
      <component glyphName="acute" x="327" y="177" flags="0x4"/>
    </TTGlyph>
    <TTGlyph name="Wcircumflex" xMin="48" yMin="-2" xMax="791" yMax="895">
      <component glyphName="W" x="0" y="0" flags="0x0"/>
      <component glyphName="circumflex" x="264" y="177" flags="0x4"/>
    </TTGlyph>
    <TTGlyph name="Wdieresis" xMin="48" yMin="-2" xMax="791" yMax="879">
      <component glyphName="W" x="0" y="0" flags="0x0"/>
      <component glyphName="dieresis" x="262" y="177" flags="0x4"/>
    </TTGlyph>
    <TTGlyph name="Wgrave" xMin="48" yMin="-2" xMax="791" yMax="911">
      <component glyphName="W" x="0" y="0" flags="0x0"/>
      <component glyphName="grave" x="256" y="177" flags="0x4"/>
    </TTGlyph>
    <TTGlyph name="X" xMin="-20" yMin="-2" xMax="541" yMax="702">
      <contour>
        <pt x="-20" y="-2" on="0"/>
        <pt x="-18" y="17" on="1"/>
        <pt x="-17" y="22" on="0"/>
        <pt x="-7" y="42" on="1"/>
        <pt x="172" y="365" on="1"/>
        <pt x="77" y="658" on="1"/>
        <pt x="70" y="676" on="0"/>
        <pt x="70" y="683" on="1"/>
        <pt x="71" y="692" on="0"/>
        <pt x="103" y="702" on="0"/>
        <pt x="132" y="702" on="1"/>
        <pt x="179" y="702" on="1"/>
        <pt x="202" y="702" on="0"/>
        <pt x="229" y="694" on="0"/>
        <pt x="231" y="683" on="1"/>
        <pt x="276" y="447" on="1"/>
        <pt x="377" y="682" on="1"/>
        <pt x="383" y="694" on="0"/>
        <pt x="410" y="702" on="0"/>
        <pt x="435" y="702" on="1"/>
        <pt x="482" y="702" on="1"/>
        <pt x="511" y="702" on="0"/>
        <pt x="541" y="692" on="0"/>
        <pt x="539" y="683" on="1"/>
        <pt x="539" y="676" on="0"/>
        <pt x="529" y="658" on="1"/>
        <pt x="362" y="363" on="1"/>
        <pt x="465" y="42" on="1"/>
        <pt x="466" y="38" on="0"/>
        <pt x="471" y="22" on="0"/>
        <pt x="470" y="17" on="1"/>
        <pt x="468" y="-2" on="0"/>
        <pt x="409" y="-2" on="1"/>
        <pt x="366" y="-2" on="1"/>
        <pt x="318" y="-2" on="0"/>
        <pt x="313" y="17" on="1"/>
        <pt x="258" y="272" on="1"/>
        <pt x="141" y="18" on="1"/>
        <pt x="135" y="4" on="0"/>
        <pt x="111" y="-2" on="0"/>
        <pt x="84" y="-2" on="1"/>
        <pt x="39" y="-2" on="1"/>
      </contour>
    </TTGlyph>
    <TTGlyph name="Y" xMin="44" yMin="-2" xMax="528" yMax="702">
      <contour>
        <pt x="136" y="-2" on="0"/>
        <pt x="139" y="30" on="1"/>
        <pt x="168" y="302" on="1"/>
        <pt x="51" y="657" on="1"/>
        <pt x="44" y="675" on="0"/>
        <pt x="45" y="682" on="1"/>
        <pt x="46" y="691" on="0"/>
        <pt x="78" y="702" on="0"/>
        <pt x="107" y="702" on="1"/>
        <pt x="158" y="702" on="1"/>
        <pt x="208" y="702" on="0"/>
        <pt x="211" y="683" on="1"/>
        <pt x="255" y="402" on="1"/>
        <pt x="366" y="683" on="1"/>
        <pt x="370" y="694" on="0"/>
        <pt x="399" y="702" on="0"/>
        <pt x="423" y="702" on="1"/>
        <pt x="465" y="702" on="1"/>
        <pt x="528" y="702" on="0"/>
        <pt x="526" y="682" on="1"/>
        <pt x="525" y="677" on="0"/>
        <pt x="516" y="657" on="1"/>
        <pt x="325" y="299" on="1"/>
        <pt x="296" y="30" on="1"/>
        <pt x="294" y="14" on="0"/>
        <pt x="264" y="-2" on="0"/>
        <pt x="234" y="-2" on="1"/>
        <pt x="195" y="-2" on="1"/>
      </contour>
    </TTGlyph>
    <TTGlyph name="Y.loclGUA" xMin="29" yMin="-9" xMax="500" yMax="701">
      <contour>
        <pt x="500" y="701" on="0"/>
        <pt x="497" y="669" on="1"/>
        <pt x="455" y="273" on="1"/>
        <pt x="440" y="129" on="0"/>
        <pt x="325" y="-9" on="0"/>
        <pt x="215" y="-9" on="1"/>
        <pt x="140" y="-9" on="0"/>
        <pt x="31" y="31" on="0"/>
        <pt x="29" y="62" on="1"/>
        <pt x="29" y="88" on="0"/>
        <pt x="31" y="110" on="1"/>
        <pt x="33" y="129" on="0"/>
        <pt x="46" y="148" on="0"/>
        <pt x="54" y="148" on="1"/>
        <pt x="57" y="148" on="0"/>
        <pt x="101" y="125" on="0"/>
        <pt x="155" y="108" on="0"/>
        <pt x="189" y="108" on="1"/>
        <pt x="290" y="108" on="0"/>
        <pt x="302" y="219" on="1"/>
        <pt x="307" y="266" on="1"/>
        <pt x="284" y="239" on="0"/>
        <pt x="221" y="208" on="0"/>
        <pt x="182" y="208" on="1"/>
        <pt x="116" y="208" on="0"/>
        <pt x="53" y="269" on="0"/>
        <pt x="53" y="332" on="1"/>
        <pt x="53" y="342" on="0"/>
        <pt x="55" y="364" on="1"/>
        <pt x="87" y="669" on="1"/>
        <pt x="90" y="701" on="0"/>
        <pt x="150" y="701" on="1"/>
        <pt x="178" y="701" on="1"/>
        <pt x="238" y="701" on="0"/>
        <pt x="235" y="669" on="1"/>
        <pt x="205" y="386" on="1"/>
        <pt x="199" y="330" on="0"/>
        <pt x="253" y="330" on="1"/>
        <pt x="276" y="330" on="0"/>
        <pt x="307" y="362" on="0"/>
        <pt x="319" y="388" on="1"/>
        <pt x="349" y="669" on="1"/>
        <pt x="352" y="701" on="0"/>
        <pt x="412" y="701" on="1"/>
        <pt x="440" y="701" on="1"/>
      </contour>
    </TTGlyph>
    <TTGlyph name="Yacute" xMin="45" yMin="-2" xMax="526" yMax="911">
      <component glyphName="Y" x="0" y="0" flags="0x0"/>
      <component glyphName="acute" x="197" y="177" flags="0x4"/>
    </TTGlyph>
    <TTGlyph name="Yacute.loclGUA" xMin="29" yMin="-9" xMax="497" yMax="911">
      <component glyphName="Y.loclGUA" x="0" y="0" flags="0x0"/>
      <component glyphName="acute" x="204" y="177" flags="0x4"/>
    </TTGlyph>
    <TTGlyph name="Ycircumflex" xMin="45" yMin="-2" xMax="526" yMax="895">
      <component glyphName="Y" x="0" y="0" flags="0x0"/>
      <component glyphName="circumflex" x="134" y="177" flags="0x4"/>
    </TTGlyph>
    <TTGlyph name="Ycircumflex.loclGUA" xMin="29" yMin="-9" xMax="497" yMax="895">
      <component glyphName="Y.loclGUA" x="0" y="0" flags="0x0"/>
      <component glyphName="circumflex" x="141" y="177" flags="0x4"/>
    </TTGlyph>
    <TTGlyph name="Ydieresis" xMin="45" yMin="-2" xMax="526" yMax="879">
      <component glyphName="Y" x="0" y="0" flags="0x0"/>
      <component glyphName="dieresis" x="132" y="177" flags="0x4"/>
    </TTGlyph>
    <TTGlyph name="Ydieresis.loclGUA" xMin="29" yMin="-9" xMax="497" yMax="879">
      <component glyphName="Y.loclGUA" x="0" y="0" flags="0x0"/>
      <component glyphName="dieresis" x="139" y="177" flags="0x4"/>
    </TTGlyph>
    <TTGlyph name="Ygrave" xMin="45" yMin="-2" xMax="526" yMax="911">
      <component glyphName="Y" x="0" y="0" flags="0x0"/>
      <component glyphName="grave" x="126" y="177" flags="0x4"/>
    </TTGlyph>
    <TTGlyph name="Ygrave.loclGUA" xMin="29" yMin="-9" xMax="497" yMax="911">
      <component glyphName="Y.loclGUA" x="0" y="0" flags="0x0"/>
      <component glyphName="grave" x="133" y="177" flags="0x4"/>
    </TTGlyph>
    <TTGlyph name="Z" xMin="3" yMin="0" xMax="515" yMax="700">
      <contour>
        <pt x="22" y="0" on="0"/>
        <pt x="3" y="66" on="0"/>
        <pt x="6" y="89" on="1"/>
        <pt x="6" y="97" on="0"/>
        <pt x="8" y="99" on="1"/>
        <pt x="311" y="569" on="1"/>
        <pt x="106" y="569" on="1"/>
        <pt x="93" y="569" on="0"/>
        <pt x="82" y="586" on="0"/>
        <pt x="82" y="604" on="1"/>
        <pt x="83" y="619" on="1"/>
        <pt x="87" y="650" on="1"/>
        <pt x="89" y="676" on="0"/>
        <pt x="105" y="700" on="0"/>
        <pt x="120" y="700" on="1"/>
        <pt x="485" y="700" on="1"/>
        <pt x="497" y="700" on="0"/>
        <pt x="515" y="630" on="0"/>
        <pt x="512" y="608" on="1"/>
        <pt x="512" y="606" on="0"/>
        <pt x="513" y="602" on="0"/>
        <pt x="512" y="600" on="1"/>
        <pt x="210" y="131" on="1"/>
        <pt x="435" y="131" on="1"/>
        <pt x="460" y="131" on="0"/>
        <pt x="460" y="95" on="1"/>
        <pt x="459" y="81" on="1"/>
        <pt x="455" y="50" on="1"/>
        <pt x="451" y="0" on="0"/>
        <pt x="421" y="0" on="1"/>
        <pt x="35" y="0" on="1"/>
      </contour>
    </TTGlyph>
    <TTGlyph name="Zacute" xMin="6" yMin="0" xMax="512" yMax="911">
      <component glyphName="Z" x="0" y="0" flags="0x0"/>
      <component glyphName="acute" x="212" y="177" flags="0x4"/>
    </TTGlyph>
    <TTGlyph name="Zacute.loclPLK" xMin="6" yMin="0" xMax="512" yMax="911">
      <component glyphName="Z" x="0" y="0" flags="0x0"/>
      <component glyphName="acute.loclPLK" x="217" y="177" flags="0x4"/>
    </TTGlyph>
    <TTGlyph name="Zcaron" xMin="6" yMin="0" xMax="512" yMax="895">
      <component glyphName="Z" x="0" y="0" flags="0x0"/>
      <component glyphName="caron" x="150" y="177" flags="0x4"/>
    </TTGlyph>
    <TTGlyph name="Zdotaccent" xMin="6" yMin="0" xMax="512" yMax="879">
      <component glyphName="Z" x="0" y="0" flags="0x0"/>
      <component glyphName="dotaccent" x="146" y="177" flags="0x4"/>
    </TTGlyph>
    <TTGlyph name="a" xMin="28" yMin="-9" xMax="455" yMax="531">
      <contour>
        <pt x="88" y="-9" on="0"/>
        <pt x="28" y="109" on="0"/>
        <pt x="28" y="201" on="1"/>
        <pt x="28" y="224" on="0"/>
        <pt x="32" y="270" on="1"/>
        <pt x="46" y="397" on="0"/>
        <pt x="145" y="531" on="0"/>
        <pt x="216" y="531" on="1"/>
        <pt x="252" y="531" on="0"/>
        <pt x="296" y="502" on="0"/>
        <pt x="316" y="479" on="1"/>
        <pt x="322" y="499" on="0"/>
        <pt x="333" y="516" on="0"/>
        <pt x="357" y="525" on="0"/>
        <pt x="381" y="525" on="1"/>
        <pt x="393" y="525" on="1"/>
        <pt x="452" y="525" on="0"/>
        <pt x="452" y="500" on="1"/>
        <pt x="451" y="486" on="0"/>
        <pt x="447" y="447" on="0"/>
        <pt x="445" y="429" on="1"/>
        <pt x="441" y="399" on="0"/>
        <pt x="440" y="386" on="1"/>
        <pt x="425" y="245" on="1"/>
        <pt x="414" y="133" on="1"/>
        <pt x="414" y="111" on="0"/>
        <pt x="427" y="111" on="1"/>
        <pt x="431" y="111" on="0"/>
        <pt x="437" y="113" on="0"/>
        <pt x="441" y="113" on="1"/>
        <pt x="448" y="113" on="0"/>
        <pt x="455" y="95" on="0"/>
        <pt x="455" y="84" on="1"/>
        <pt x="455" y="44" on="0"/>
        <pt x="404" y="-8" on="0"/>
        <pt x="357" y="-8" on="1"/>
        <pt x="283" y="-8" on="0"/>
        <pt x="270" y="68" on="1"/>
        <pt x="230" y="-9" on="0"/>
        <pt x="155" y="-9" on="1"/>
      </contour>
      <contour>
        <pt x="235" y="112" on="0"/>
        <pt x="262" y="142" on="0"/>
        <pt x="269" y="166" on="1"/>
        <pt x="285" y="325" on="1"/>
        <pt x="292" y="376" on="0"/>
        <pt x="296" y="394" on="1"/>
        <pt x="278" y="414" on="0"/>
        <pt x="255" y="414" on="1"/>
        <pt x="225" y="414" on="0"/>
        <pt x="189" y="347" on="0"/>
        <pt x="180" y="267" on="1"/>
        <pt x="176" y="221" on="0"/>
        <pt x="176" y="203" on="1"/>
        <pt x="176" y="112" on="0"/>
        <pt x="217" y="112" on="1"/>
      </contour>
    </TTGlyph>
    <TTGlyph name="aacute" xMin="28" yMin="-9" xMax="455" yMax="734">
      <component glyphName="a" x="0" y="0" flags="0x0"/>
      <component glyphName="acute" x="175" y="0" flags="0x0"/>
    </TTGlyph>
    <TTGlyph name="abreve" xMin="28" yMin="-9" xMax="455" yMax="715">
      <component glyphName="a" x="0" y="0" flags="0x0"/>
      <component glyphName="breve" x="112" y="0" flags="0x0"/>
    </TTGlyph>
    <TTGlyph name="acircumflex" xMin="28" yMin="-9" xMax="455" yMax="718">
      <component glyphName="a" x="0" y="0" flags="0x0"/>
      <component glyphName="circumflex" x="112" y="0" flags="0x0"/>
    </TTGlyph>
    <TTGlyph name="acute" xMin="33" yMin="575" xMax="222" yMax="734">
      <contour>
        <pt x="45" y="575" on="0"/>
        <pt x="33" y="582" on="0"/>
        <pt x="33" y="590" on="1"/>
        <pt x="33" y="596" on="0"/>
        <pt x="46" y="624" on="0"/>
        <pt x="58" y="646" on="1"/>
        <pt x="89" y="707" on="1"/>
        <pt x="103" y="734" on="0"/>
        <pt x="168" y="734" on="1"/>
        <pt x="196" y="734" on="0"/>
        <pt x="222" y="728" on="0"/>
        <pt x="222" y="720" on="1"/>
        <pt x="222" y="714" on="0"/>
        <pt x="208" y="694" on="0"/>
        <pt x="190" y="672" on="1"/>
        <pt x="181" y="660" on="0"/>
        <pt x="154" y="626" on="0"/>
        <pt x="134" y="600" on="1"/>
        <pt x="125" y="588" on="0"/>
        <pt x="95" y="575" on="0"/>
        <pt x="62" y="575" on="1"/>
      </contour>
    </TTGlyph>
    <TTGlyph name="acute.loclPLK" xMin="38" yMin="575" xMax="203" yMax="734">
      <contour>
        <pt x="50" y="575" on="0"/>
        <pt x="38" y="582" on="0"/>
        <pt x="38" y="590" on="1"/>
        <pt x="38" y="603" on="0"/>
        <pt x="70" y="707" on="1"/>
        <pt x="77" y="734" on="0"/>
        <pt x="149" y="734" on="1"/>
        <pt x="177" y="734" on="0"/>
        <pt x="203" y="728" on="0"/>
        <pt x="203" y="720" on="1"/>
        <pt x="203" y="714" on="0"/>
        <pt x="186" y="682" on="0"/>
        <pt x="171" y="656" on="1"/>
        <pt x="139" y="600" on="1"/>
        <pt x="132" y="588" on="0"/>
        <pt x="101" y="575" on="0"/>
        <pt x="67" y="575" on="1"/>
      </contour>
    </TTGlyph>
    <TTGlyph name="acutecomb" xMin="-20" yMin="575" xMax="169" yMax="734">
      <contour>
        <pt x="-8" y="575" on="0"/>
        <pt x="-20" y="582" on="0"/>
        <pt x="-20" y="590" on="1"/>
        <pt x="-20" y="596" on="0"/>
        <pt x="-7" y="624" on="0"/>
        <pt x="5" y="646" on="1"/>
        <pt x="36" y="707" on="1"/>
        <pt x="50" y="734" on="0"/>
        <pt x="115" y="734" on="1"/>
        <pt x="143" y="734" on="0"/>
        <pt x="169" y="728" on="0"/>
        <pt x="169" y="720" on="1"/>
        <pt x="169" y="714" on="0"/>
        <pt x="155" y="694" on="0"/>
        <pt x="137" y="672" on="1"/>
        <pt x="128" y="660" on="0"/>
        <pt x="101" y="626" on="0"/>
        <pt x="81" y="600" on="1"/>
        <pt x="72" y="588" on="0"/>
        <pt x="42" y="575" on="0"/>
        <pt x="9" y="575" on="1"/>
      </contour>
    </TTGlyph>
    <TTGlyph name="adieresis" xMin="28" yMin="-9" xMax="455" yMax="702">
      <component glyphName="a" x="0" y="0" flags="0x0"/>
      <component glyphName="dieresis" x="110" y="0" flags="0x0"/>
    </TTGlyph>
    <TTGlyph name="ae" xMin="18" yMin="-8" xMax="656" yMax="531">
      <contour>
        <pt x="92" y="-8" on="0"/>
        <pt x="18" y="66" on="0"/>
        <pt x="18" y="128" on="1"/>
        <pt x="18" y="142" on="0"/>
        <pt x="19" y="149" on="1"/>
        <pt x="24" y="199" on="0"/>
        <pt x="63" y="279" on="0"/>
        <pt x="173" y="335" on="0"/>
        <pt x="273" y="335" on="1"/>
        <pt x="276" y="353" on="0"/>
        <pt x="286" y="378" on="1"/>
        <pt x="276" y="414" on="0"/>
        <pt x="221" y="414" on="1"/>
        <pt x="200" y="414" on="0"/>
        <pt x="165" y="403" on="0"/>
        <pt x="143" y="394" on="1"/>
        <pt x="123" y="385" on="0"/>
        <pt x="118" y="385" on="1"/>
        <pt x="103" y="385" on="0"/>
        <pt x="74" y="442" on="0"/>
        <pt x="74" y="462" on="1"/>
        <pt x="74" y="480" on="0"/>
        <pt x="123" y="512" on="0"/>
        <pt x="203" y="531" on="0"/>
        <pt x="246" y="531" on="1"/>
        <pt x="287" y="531" on="0"/>
        <pt x="354" y="514" on="0"/>
        <pt x="375" y="500" on="1"/>
        <pt x="423" y="531" on="0"/>
        <pt x="495" y="531" on="1"/>
        <pt x="579" y="531" on="0"/>
        <pt x="656" y="420" on="0"/>
        <pt x="656" y="311" on="1"/>
        <pt x="656" y="282" on="0"/>
        <pt x="655" y="266" on="1"/>
        <pt x="654" y="254" on="0"/>
        <pt x="608" y="207" on="0"/>
        <pt x="598" y="207" on="1"/>
        <pt x="409" y="207" on="1"/>
        <pt x="408" y="200" on="0"/>
        <pt x="408" y="187" on="1"/>
        <pt x="408" y="146" on="0"/>
        <pt x="446" y="109" on="0"/>
        <pt x="478" y="109" on="1"/>
        <pt x="499" y="109" on="0"/>
        <pt x="533" y="120" on="0"/>
        <pt x="557" y="130" on="1"/>
        <pt x="571" y="138" on="0"/>
        <pt x="578" y="138" on="1"/>
        <pt x="591" y="138" on="0"/>
        <pt x="621" y="85" on="0"/>
        <pt x="621" y="65" on="1"/>
        <pt x="621" y="43" on="0"/>
        <pt x="567" y="10" on="0"/>
        <pt x="488" y="-8" on="0"/>
        <pt x="454" y="-8" on="1"/>
        <pt x="353" y="-8" on="0"/>
        <pt x="300" y="51" on="1"/>
        <pt x="280" y="26" on="0"/>
        <pt x="199" y="-8" on="0"/>
        <pt x="153" y="-8" on="1"/>
      </contour>
      <contour>
        <pt x="518" y="306" on="1"/>
        <pt x="521" y="332" on="0"/>
        <pt x="521" y="350" on="1"/>
        <pt x="521" y="384" on="0"/>
        <pt x="503" y="414" on="0"/>
        <pt x="484" y="414" on="1"/>
        <pt x="460" y="414" on="0"/>
        <pt x="427" y="368" on="0"/>
        <pt x="417" y="306" on="1"/>
      </contour>
      <contour>
        <pt x="215" y="109" on="0"/>
        <pt x="249" y="126" on="0"/>
        <pt x="261" y="142" on="1"/>
        <pt x="257" y="163" on="0"/>
        <pt x="257" y="193" on="1"/>
        <pt x="257" y="206" on="0"/>
        <pt x="259" y="238" on="1"/>
        <pt x="169" y="238" on="0"/>
        <pt x="161" y="160" on="1"/>
        <pt x="159" y="137" on="0"/>
        <pt x="177" y="109" on="0"/>
        <pt x="197" y="109" on="1"/>
      </contour>
    </TTGlyph>
    <TTGlyph name="aeacute" xMin="18" yMin="-8" xMax="656" yMax="734">
      <component glyphName="ae" x="0" y="0" flags="0x0"/>
      <component glyphName="acute" x="281" y="0" flags="0x0"/>
    </TTGlyph>
    <TTGlyph name="agrave" xMin="28" yMin="-9" xMax="455" yMax="734">
      <component glyphName="a" x="0" y="0" flags="0x0"/>
      <component glyphName="grave" x="104" y="0" flags="0x0"/>
    </TTGlyph>
    <TTGlyph name="amacron" xMin="28" yMin="-9" xMax="455" yMax="692">
      <component glyphName="a" x="0" y="0" flags="0x0"/>
      <component glyphName="macron" x="112" y="0" flags="0x0"/>
    </TTGlyph>
    <TTGlyph name="ampersand" xMin="-3" yMin="-8" xMax="521" yMax="708">
      <contour>
        <pt x="509" y="426" on="0"/>
        <pt x="521" y="410" on="0"/>
        <pt x="521" y="392" on="1"/>
        <pt x="521" y="382" on="0"/>
        <pt x="520" y="376" on="1"/>
        <pt x="518" y="359" on="1"/>
        <pt x="514" y="309" on="0"/>
        <pt x="484" y="309" on="1"/>
        <pt x="462" y="309" on="1"/>
        <pt x="445" y="152" on="1"/>
        <pt x="443" y="134" on="0"/>
        <pt x="443" y="129" on="1"/>
        <pt x="443" y="109" on="0"/>
        <pt x="457" y="109" on="1"/>
        <pt x="462" y="109" on="0"/>
        <pt x="472" y="113" on="0"/>
        <pt x="475" y="113" on="1"/>
        <pt x="483" y="113" on="0"/>
        <pt x="493" y="83" on="0"/>
        <pt x="498" y="47" on="0"/>
        <pt x="497" y="41" on="1"/>
        <pt x="492" y="-8" on="0"/>
        <pt x="404" y="-8" on="1"/>
        <pt x="370" y="-8" on="0"/>
        <pt x="329" y="11" on="0"/>
        <pt x="317" y="32" on="1"/>
        <pt x="273" y="11" on="0"/>
        <pt x="198" y="-8" on="0"/>
        <pt x="160" y="-8" on="1"/>
        <pt x="78" y="-8" on="0"/>
        <pt x="-3" y="80" on="0"/>
        <pt x="-3" y="163" on="1"/>
        <pt x="-3" y="176" on="0"/>
        <pt x="-1" y="204" on="1"/>
        <pt x="7" y="273" on="0"/>
        <pt x="53" y="362" on="0"/>
        <pt x="106" y="383" on="1"/>
        <pt x="106" y="387" on="1"/>
        <pt x="79" y="402" on="0"/>
        <pt x="50" y="462" on="0"/>
        <pt x="50" y="503" on="1"/>
        <pt x="50" y="596" on="0"/>
        <pt x="151" y="708" on="0"/>
        <pt x="236" y="708" on="1"/>
        <pt x="272" y="708" on="0"/>
        <pt x="333" y="685" on="0"/>
        <pt x="332" y="666" on="1"/>
        <pt x="328" y="632" on="0"/>
        <pt x="300" y="584" on="0"/>
        <pt x="289" y="584" on="1"/>
        <pt x="286" y="584" on="0"/>
        <pt x="264" y="591" on="0"/>
        <pt x="254" y="591" on="1"/>
        <pt x="233" y="591" on="0"/>
        <pt x="206" y="547" on="0"/>
        <pt x="202" y="509" on="1"/>
        <pt x="198" y="472" on="0"/>
        <pt x="232" y="426" on="0"/>
        <pt x="260" y="426" on="1"/>
        <pt x="323" y="426" on="1"/>
        <pt x="345" y="521" on="1"/>
        <pt x="348" y="537" on="0"/>
        <pt x="378" y="553" on="0"/>
        <pt x="403" y="553" on="1"/>
        <pt x="438" y="553" on="1"/>
        <pt x="464" y="553" on="0"/>
        <pt x="486" y="537" on="0"/>
        <pt x="484" y="521" on="1"/>
        <pt x="474" y="426" on="1"/>
        <pt x="496" y="426" on="1"/>
      </contour>
      <contour>
        <pt x="148" y="182" on="0"/>
        <pt x="148" y="172" on="1"/>
        <pt x="148" y="140" on="0"/>
        <pt x="170" y="109" on="0"/>
        <pt x="197" y="109" on="1"/>
        <pt x="219" y="109" on="0"/>
        <pt x="261" y="119" on="0"/>
        <pt x="292" y="133" on="1"/>
        <pt x="311" y="309" on="1"/>
        <pt x="238" y="309" on="1"/>
        <pt x="193" y="309" on="0"/>
        <pt x="156" y="260" on="0"/>
        <pt x="150" y="206" on="1"/>
      </contour>
    </TTGlyph>
    <TTGlyph name="aogonek" xMin="28" yMin="-187" xMax="485" yMax="531">
      <contour>
        <pt x="471" y="-114" on="0"/>
        <pt x="485" y="-127" on="0"/>
        <pt x="485" y="-144" on="1"/>
        <pt x="485" y="-165" on="0"/>
        <pt x="468" y="-175" on="1"/>
        <pt x="443" y="-187" on="0"/>
        <pt x="412" y="-187" on="1"/>
        <pt x="355" y="-187" on="0"/>
        <pt x="315" y="-127" on="0"/>
        <pt x="315" y="-93" on="1"/>
        <pt x="315" y="-51" on="0"/>
        <pt x="336" y="-6" on="1"/>
        <pt x="281" y="3" on="0"/>
        <pt x="270" y="68" on="1"/>
        <pt x="230" y="-9" on="0"/>
        <pt x="155" y="-9" on="1"/>
        <pt x="88" y="-9" on="0"/>
        <pt x="28" y="109" on="0"/>
        <pt x="28" y="201" on="1"/>
        <pt x="28" y="224" on="0"/>
        <pt x="32" y="270" on="1"/>
        <pt x="46" y="397" on="0"/>
        <pt x="145" y="531" on="0"/>
        <pt x="216" y="531" on="1"/>
        <pt x="252" y="531" on="0"/>
        <pt x="296" y="502" on="0"/>
        <pt x="316" y="479" on="1"/>
        <pt x="322" y="499" on="0"/>
        <pt x="333" y="516" on="0"/>
        <pt x="357" y="525" on="0"/>
        <pt x="381" y="525" on="1"/>
        <pt x="393" y="525" on="1"/>
        <pt x="452" y="525" on="0"/>
        <pt x="452" y="500" on="1"/>
        <pt x="451" y="486" on="0"/>
        <pt x="447" y="447" on="0"/>
        <pt x="445" y="429" on="1"/>
        <pt x="441" y="399" on="0"/>
        <pt x="440" y="386" on="1"/>
        <pt x="425" y="245" on="1"/>
        <pt x="414" y="133" on="1"/>
        <pt x="414" y="111" on="0"/>
        <pt x="427" y="111" on="1"/>
        <pt x="431" y="111" on="0"/>
        <pt x="437" y="113" on="0"/>
        <pt x="441" y="113" on="1"/>
        <pt x="448" y="113" on="0"/>
        <pt x="455" y="95" on="0"/>
        <pt x="455" y="84" on="1"/>
        <pt x="455" y="54" on="0"/>
        <pt x="426" y="9" on="0"/>
        <pt x="398" y="-1" on="1"/>
        <pt x="382" y="-39" on="0"/>
        <pt x="382" y="-74" on="1"/>
        <pt x="382" y="-118" on="0"/>
        <pt x="431" y="-118" on="1"/>
        <pt x="439" y="-118" on="0"/>
        <pt x="451" y="-114" on="0"/>
        <pt x="455" y="-114" on="1"/>
      </contour>
      <contour>
        <pt x="292" y="376" on="0"/>
        <pt x="296" y="394" on="1"/>
        <pt x="278" y="414" on="0"/>
        <pt x="255" y="414" on="1"/>
        <pt x="225" y="414" on="0"/>
        <pt x="189" y="347" on="0"/>
        <pt x="180" y="267" on="1"/>
        <pt x="176" y="221" on="0"/>
        <pt x="176" y="203" on="1"/>
        <pt x="176" y="112" on="0"/>
        <pt x="217" y="112" on="1"/>
        <pt x="235" y="112" on="0"/>
        <pt x="262" y="142" on="0"/>
        <pt x="269" y="166" on="1"/>
        <pt x="285" y="325" on="1"/>
      </contour>
    </TTGlyph>
    <TTGlyph name="approxequal" xMin="33" yMin="84" xMax="409" yMax="396">
      <contour>
        <pt x="205" y="301" on="0"/>
        <pt x="172" y="310" on="0"/>
        <pt x="159" y="310" on="1"/>
        <pt x="135" y="310" on="0"/>
        <pt x="117" y="295" on="1"/>
        <pt x="114" y="292" on="0"/>
        <pt x="101" y="281" on="0"/>
        <pt x="91" y="276" on="0"/>
        <pt x="86" y="276" on="1"/>
        <pt x="77" y="276" on="0"/>
        <pt x="68" y="281" on="1"/>
        <pt x="58" y="286" on="1"/>
        <pt x="45" y="293" on="0"/>
        <pt x="45" y="307" on="1"/>
        <pt x="45" y="314" on="0"/>
        <pt x="49" y="323" on="1"/>
        <pt x="63" y="354" on="0"/>
        <pt x="117" y="392" on="0"/>
        <pt x="155" y="392" on="1"/>
        <pt x="179" y="392" on="0"/>
        <pt x="233" y="376" on="1"/>
        <pt x="249" y="371" on="0"/>
        <pt x="282" y="362" on="0"/>
        <pt x="295" y="362" on="1"/>
        <pt x="319" y="362" on="0"/>
        <pt x="337" y="377" on="1"/>
        <pt x="340" y="380" on="0"/>
        <pt x="353" y="391" on="0"/>
        <pt x="363" y="396" on="0"/>
        <pt x="368" y="396" on="1"/>
        <pt x="377" y="396" on="0"/>
        <pt x="386" y="391" on="1"/>
        <pt x="396" y="386" on="1"/>
        <pt x="409" y="380" on="0"/>
        <pt x="409" y="365" on="1"/>
        <pt x="409" y="358" on="0"/>
        <pt x="405" y="349" on="1"/>
        <pt x="391" y="318" on="0"/>
        <pt x="337" y="280" on="0"/>
        <pt x="299" y="280" on="1"/>
        <pt x="275" y="280" on="0"/>
        <pt x="221" y="296" on="1"/>
      </contour>
      <contour>
        <pt x="193" y="109" on="0"/>
        <pt x="160" y="118" on="0"/>
        <pt x="147" y="118" on="1"/>
        <pt x="123" y="118" on="0"/>
        <pt x="105" y="103" on="1"/>
        <pt x="102" y="100" on="0"/>
        <pt x="89" y="89" on="0"/>
        <pt x="79" y="84" on="0"/>
        <pt x="74" y="84" on="1"/>
        <pt x="65" y="84" on="0"/>
        <pt x="56" y="89" on="1"/>
        <pt x="46" y="94" on="1"/>
        <pt x="33" y="101" on="0"/>
        <pt x="33" y="115" on="1"/>
        <pt x="33" y="122" on="0"/>
        <pt x="37" y="131" on="1"/>
        <pt x="51" y="162" on="0"/>
        <pt x="105" y="200" on="0"/>
        <pt x="143" y="200" on="1"/>
        <pt x="167" y="200" on="0"/>
        <pt x="221" y="184" on="1"/>
        <pt x="237" y="179" on="0"/>
        <pt x="270" y="170" on="0"/>
        <pt x="283" y="170" on="1"/>
        <pt x="307" y="170" on="0"/>
        <pt x="325" y="185" on="1"/>
        <pt x="328" y="188" on="0"/>
        <pt x="341" y="199" on="0"/>
        <pt x="351" y="204" on="0"/>
        <pt x="356" y="204" on="1"/>
        <pt x="365" y="204" on="0"/>
        <pt x="374" y="199" on="1"/>
        <pt x="384" y="194" on="1"/>
        <pt x="397" y="188" on="0"/>
        <pt x="397" y="173" on="1"/>
        <pt x="397" y="166" on="0"/>
        <pt x="393" y="157" on="1"/>
        <pt x="379" y="126" on="0"/>
        <pt x="325" y="88" on="0"/>
        <pt x="287" y="88" on="1"/>
        <pt x="263" y="88" on="0"/>
        <pt x="209" y="104" on="1"/>
      </contour>
    </TTGlyph>
    <TTGlyph name="aring" xMin="28" yMin="-9" xMax="455" yMax="749">
      <component glyphName="a" x="0" y="0" flags="0x0"/>
      <component glyphName="ring" x="110" y="0" flags="0x0"/>
    </TTGlyph>
    <TTGlyph name="aringacute" xMin="28" yMin="-9" xMax="455" yMax="924">
      <component glyphName="a" x="0" y="0" flags="0x0"/>
      <component glyphName="ring" x="117" y="0" flags="0x0"/>
      <component glyphName="acute" x="228" y="190" flags="0x4"/>
    </TTGlyph>
    <TTGlyph name="arrowdown" xMin="15" yMin="-2" xMax="520" yMax="709">
      <contour>
        <pt x="503" y="359" on="0"/>
        <pt x="509" y="359" on="1"/>
        <pt x="514" y="359" on="0"/>
        <pt x="520" y="352" on="0"/>
        <pt x="519" y="346" on="1"/>
        <pt x="510" y="266" on="1"/>
        <pt x="508" y="248" on="0"/>
        <pt x="497" y="228" on="0"/>
        <pt x="484" y="215" on="1"/>
        <pt x="254" y="5" on="1"/>
        <pt x="246" y="-2" on="0"/>
        <pt x="235" y="-2" on="1"/>
        <pt x="224" y="-2" on="0"/>
        <pt x="218" y="5" on="1"/>
        <pt x="32" y="214" on="1"/>
        <pt x="22" y="225" on="0"/>
        <pt x="15" y="239" on="0"/>
        <pt x="15" y="249" on="1"/>
        <pt x="15" y="259" on="0"/>
        <pt x="16" y="265" on="1"/>
        <pt x="25" y="344" on="1"/>
        <pt x="26" y="351" on="0"/>
        <pt x="32" y="360" on="0"/>
        <pt x="36" y="360" on="1"/>
        <pt x="41" y="360" on="0"/>
        <pt x="47" y="353" on="1"/>
        <pt x="196" y="183" on="1"/>
        <pt x="247" y="677" on="1"/>
        <pt x="252" y="709" on="0"/>
        <pt x="295" y="709" on="1"/>
        <pt x="314" y="709" on="1"/>
        <pt x="359" y="709" on="0"/>
        <pt x="354" y="677" on="1"/>
        <pt x="302" y="177" on="1"/>
        <pt x="499" y="355" on="1"/>
      </contour>
    </TTGlyph>
    <TTGlyph name="arrowleft" xMin="4" yMin="-1" xMax="594" yMax="527">
      <contour>
        <pt x="594" y="311" on="0"/>
        <pt x="590" y="267" on="1"/>
        <pt x="588" y="248" on="1"/>
        <pt x="584" y="204" on="0"/>
        <pt x="551" y="204" on="1"/>
        <pt x="172" y="204" on="1"/>
        <pt x="297" y="37" on="1"/>
        <pt x="307" y="23" on="0"/>
        <pt x="307" y="14" on="1"/>
        <pt x="307" y="-1" on="0"/>
        <pt x="279" y="-1" on="1"/>
        <pt x="222" y="-1" on="1"/>
        <pt x="204" y="-1" on="0"/>
        <pt x="182" y="9" on="0"/>
        <pt x="173" y="21" on="1"/>
        <pt x="9" y="244" on="1"/>
        <pt x="4" y="250" on="0"/>
        <pt x="4" y="257" on="1"/>
        <pt x="4" y="272" on="0"/>
        <pt x="13" y="280" on="1"/>
        <pt x="224" y="505" on="1"/>
        <pt x="236" y="517" on="0"/>
        <pt x="260" y="527" on="0"/>
        <pt x="278" y="527" on="1"/>
        <pt x="343" y="527" on="1"/>
        <pt x="370" y="527" on="0"/>
        <pt x="370" y="515" on="1"/>
        <pt x="370" y="505" on="0"/>
        <pt x="355" y="490" on="1"/>
        <pt x="189" y="311" on="1"/>
        <pt x="562" y="311" on="1"/>
      </contour>
    </TTGlyph>
    <TTGlyph name="arrowright" xMin="0" yMin="-1" xMax="590" yMax="527">
      <contour>
        <pt x="590" y="276" on="0"/>
        <pt x="590" y="269" on="1"/>
        <pt x="590" y="254" on="0"/>
        <pt x="581" y="246" on="1"/>
        <pt x="370" y="21" on="1"/>
        <pt x="358" y="9" on="0"/>
        <pt x="334" y="-1" on="0"/>
        <pt x="316" y="-1" on="1"/>
        <pt x="252" y="-1" on="1"/>
        <pt x="225" y="-1" on="0"/>
        <pt x="225" y="11" on="1"/>
        <pt x="225" y="21" on="0"/>
        <pt x="240" y="36" on="1"/>
        <pt x="406" y="215" on="1"/>
        <pt x="32" y="215" on="1"/>
        <pt x="0" y="215" on="0"/>
        <pt x="4" y="259" on="1"/>
        <pt x="6" y="278" on="1"/>
        <pt x="10" y="322" on="0"/>
        <pt x="43" y="322" on="1"/>
        <pt x="422" y="322" on="1"/>
        <pt x="297" y="489" on="1"/>
        <pt x="287" y="503" on="0"/>
        <pt x="287" y="512" on="1"/>
        <pt x="287" y="527" on="0"/>
        <pt x="315" y="527" on="1"/>
        <pt x="372" y="527" on="1"/>
        <pt x="390" y="527" on="0"/>
        <pt x="412" y="517" on="0"/>
        <pt x="421" y="505" on="1"/>
        <pt x="585" y="282" on="1"/>
      </contour>
    </TTGlyph>
    <TTGlyph name="arrowup" xMin="14" yMin="-2" xMax="519" yMax="709">
      <contour>
        <pt x="512" y="482" on="0"/>
        <pt x="519" y="468" on="0"/>
        <pt x="519" y="458" on="1"/>
        <pt x="519" y="448" on="0"/>
        <pt x="518" y="442" on="1"/>
        <pt x="509" y="363" on="1"/>
        <pt x="508" y="356" on="0"/>
        <pt x="502" y="347" on="0"/>
        <pt x="498" y="347" on="1"/>
        <pt x="493" y="347" on="0"/>
        <pt x="487" y="354" on="1"/>
        <pt x="338" y="524" on="1"/>
        <pt x="287" y="30" on="1"/>
        <pt x="282" y="-2" on="0"/>
        <pt x="239" y="-2" on="1"/>
        <pt x="220" y="-2" on="1"/>
        <pt x="175" y="-2" on="0"/>
        <pt x="180" y="30" on="1"/>
        <pt x="232" y="530" on="1"/>
        <pt x="35" y="352" on="1"/>
        <pt x="31" y="348" on="0"/>
        <pt x="25" y="348" on="1"/>
        <pt x="20" y="348" on="0"/>
        <pt x="14" y="355" on="0"/>
        <pt x="15" y="361" on="1"/>
        <pt x="24" y="441" on="1"/>
        <pt x="26" y="459" on="0"/>
        <pt x="37" y="479" on="0"/>
        <pt x="50" y="492" on="1"/>
        <pt x="280" y="702" on="1"/>
        <pt x="288" y="709" on="0"/>
        <pt x="299" y="709" on="1"/>
        <pt x="310" y="709" on="0"/>
        <pt x="316" y="702" on="1"/>
        <pt x="502" y="493" on="1"/>
      </contour>
    </TTGlyph>
    <TTGlyph name="asciicircum" xMin="25" yMin="318" xMax="350" yMax="686">
      <contour>
        <pt x="350" y="336" on="0"/>
        <pt x="350" y="333" on="1"/>
        <pt x="348" y="318" on="0"/>
        <pt x="320" y="318" on="1"/>
        <pt x="295" y="318" on="1"/>
        <pt x="253" y="318" on="0"/>
        <pt x="249" y="348" on="1"/>
        <pt x="214" y="561" on="1"/>
        <pt x="129" y="348" on="1"/>
        <pt x="118" y="318" on="0"/>
        <pt x="79" y="318" on="1"/>
        <pt x="53" y="318" on="1"/>
        <pt x="25" y="318" on="0"/>
        <pt x="27" y="333" on="1"/>
        <pt x="27" y="340" on="0"/>
        <pt x="31" y="348" on="1"/>
        <pt x="169" y="656" on="1"/>
        <pt x="183" y="686" on="0"/>
        <pt x="210" y="686" on="1"/>
        <pt x="241" y="686" on="1"/>
        <pt x="268" y="686" on="0"/>
        <pt x="274" y="656" on="1"/>
        <pt x="348" y="348" on="1"/>
      </contour>
    </TTGlyph>
    <TTGlyph name="asciitilde" xMin="37" yMin="214" xMax="401" yMax="334">
      <contour>
        <pt x="267" y="218" on="0"/>
        <pt x="213" y="234" on="1"/>
        <pt x="197" y="239" on="0"/>
        <pt x="164" y="248" on="0"/>
        <pt x="151" y="248" on="1"/>
        <pt x="127" y="248" on="0"/>
        <pt x="109" y="233" on="1"/>
        <pt x="106" y="230" on="0"/>
        <pt x="93" y="219" on="0"/>
        <pt x="83" y="214" on="0"/>
        <pt x="78" y="214" on="1"/>
        <pt x="69" y="214" on="0"/>
        <pt x="60" y="219" on="1"/>
        <pt x="50" y="224" on="1"/>
        <pt x="37" y="231" on="0"/>
        <pt x="37" y="245" on="1"/>
        <pt x="37" y="252" on="0"/>
        <pt x="41" y="261" on="1"/>
        <pt x="55" y="292" on="0"/>
        <pt x="109" y="330" on="0"/>
        <pt x="147" y="330" on="1"/>
        <pt x="171" y="330" on="0"/>
        <pt x="225" y="314" on="1"/>
        <pt x="241" y="309" on="0"/>
        <pt x="274" y="300" on="0"/>
        <pt x="287" y="300" on="1"/>
        <pt x="311" y="300" on="0"/>
        <pt x="329" y="315" on="1"/>
        <pt x="332" y="318" on="0"/>
        <pt x="345" y="329" on="0"/>
        <pt x="355" y="334" on="0"/>
        <pt x="360" y="334" on="1"/>
        <pt x="369" y="334" on="0"/>
        <pt x="378" y="329" on="1"/>
        <pt x="388" y="324" on="1"/>
        <pt x="401" y="318" on="0"/>
        <pt x="401" y="303" on="1"/>
        <pt x="401" y="296" on="0"/>
        <pt x="397" y="287" on="1"/>
        <pt x="383" y="256" on="0"/>
        <pt x="329" y="218" on="0"/>
        <pt x="291" y="218" on="1"/>
      </contour>
    </TTGlyph>
    <TTGlyph name="asterisk" xMin="49" yMin="412" xMax="312" yMax="708">
      <contour>
        <pt x="84" y="412" on="0"/>
        <pt x="63" y="429" on="0"/>
        <pt x="64" y="438" on="1"/>
        <pt x="64" y="440" on="1"/>
        <pt x="64" y="448" on="0"/>
        <pt x="75" y="462" on="1"/>
        <pt x="130" y="540" on="1"/>
        <pt x="70" y="564" on="1"/>
        <pt x="59" y="569" on="0"/>
        <pt x="49" y="579" on="0"/>
        <pt x="50" y="587" on="1"/>
        <pt x="52" y="601" on="0"/>
        <pt x="68" y="624" on="0"/>
        <pt x="82" y="624" on="1"/>
        <pt x="91" y="624" on="0"/>
        <pt x="98" y="621" on="1"/>
        <pt x="153" y="600" on="1"/>
        <pt x="161" y="678" on="1"/>
        <pt x="162" y="694" on="0"/>
        <pt x="178" y="708" on="0"/>
        <pt x="194" y="708" on="1"/>
        <pt x="210" y="708" on="0"/>
        <pt x="223" y="694" on="0"/>
        <pt x="221" y="678" on="1"/>
        <pt x="213" y="600" on="1"/>
        <pt x="271" y="621" on="1"/>
        <pt x="279" y="624" on="0"/>
        <pt x="287" y="624" on="1"/>
        <pt x="298" y="624" on="0"/>
        <pt x="312" y="605" on="0"/>
        <pt x="312" y="592" on="1"/>
        <pt x="312" y="582" on="0"/>
        <pt x="301" y="570" on="0"/>
        <pt x="288" y="564" on="1"/>
        <pt x="221" y="540" on="1"/>
        <pt x="261" y="462" on="1"/>
        <pt x="268" y="450" on="0"/>
        <pt x="268" y="438" on="1"/>
        <pt x="266" y="429" on="0"/>
        <pt x="241" y="412" on="0"/>
        <pt x="231" y="412" on="1"/>
        <pt x="217" y="414" on="0"/>
        <pt x="210" y="429" on="1"/>
        <pt x="172" y="501" on="1"/>
        <pt x="120" y="429" on="1"/>
        <pt x="109" y="414" on="0"/>
        <pt x="95" y="412" on="1"/>
      </contour>
    </TTGlyph>
    <TTGlyph name="at" xMin="55" yMin="-123" xMax="727" yMax="708">
      <contour>
        <pt x="526" y="708" on="0"/>
        <pt x="656" y="627" on="0"/>
        <pt x="727" y="480" on="0"/>
        <pt x="727" y="383" on="1"/>
        <pt x="727" y="294" on="0"/>
        <pt x="671" y="145" on="0"/>
        <pt x="573" y="58" on="0"/>
        <pt x="513" y="58" on="1"/>
        <pt x="476" y="58" on="0"/>
        <pt x="425" y="91" on="0"/>
        <pt x="415" y="118" on="1"/>
        <pt x="401" y="91" on="0"/>
        <pt x="351" y="58" on="0"/>
        <pt x="320" y="58" on="1"/>
        <pt x="269" y="58" on="0"/>
        <pt x="209" y="152" on="0"/>
        <pt x="209" y="239" on="1"/>
        <pt x="209" y="318" on="0"/>
        <pt x="249" y="441" on="0"/>
        <pt x="319" y="508" on="0"/>
        <pt x="365" y="508" on="1"/>
        <pt x="391" y="508" on="0"/>
        <pt x="434" y="483" on="0"/>
        <pt x="449" y="466" on="1"/>
        <pt x="455" y="488" on="0"/>
        <pt x="474" y="503" on="0"/>
        <pt x="499" y="503" on="1"/>
        <pt x="511" y="503" on="1"/>
        <pt x="558" y="503" on="0"/>
        <pt x="558" y="479" on="1"/>
        <pt x="549" y="382" on="1"/>
        <pt x="546" y="346" on="0"/>
        <pt x="532" y="186" on="0"/>
        <pt x="532" y="174" on="1"/>
        <pt x="532" y="159" on="0"/>
        <pt x="546" y="141" on="0"/>
        <pt x="560" y="141" on="1"/>
        <pt x="587" y="141" on="0"/>
        <pt x="634" y="207" on="0"/>
        <pt x="663" y="318" on="0"/>
        <pt x="663" y="380" on="1"/>
        <pt x="663" y="463" on="0"/>
        <pt x="607" y="587" on="0"/>
        <pt x="506" y="654" on="0"/>
        <pt x="439" y="654" on="1"/>
        <pt x="351" y="654" on="0"/>
        <pt x="204" y="544" on="0"/>
        <pt x="119" y="353" on="0"/>
        <pt x="119" y="237" on="1"/>
        <pt x="119" y="147" on="0"/>
        <pt x="172" y="8" on="0"/>
        <pt x="270" y="-69" on="0"/>
        <pt x="334" y="-69" on="1"/>
        <pt x="365" y="-69" on="0"/>
        <pt x="407" y="-58" on="0"/>
        <pt x="431" y="-48" on="1"/>
        <pt x="447" y="-40" on="0"/>
        <pt x="455" y="-40" on="1"/>
        <pt x="469" y="-40" on="0"/>
        <pt x="469" y="-73" on="1"/>
        <pt x="469" y="-99" on="0"/>
        <pt x="374" y="-123" on="0"/>
        <pt x="328" y="-123" on="1"/>
        <pt x="248" y="-123" on="0"/>
        <pt x="124" y="-31" on="0"/>
        <pt x="55" y="133" on="0"/>
        <pt x="55" y="239" on="1"/>
        <pt x="55" y="369" on="0"/>
        <pt x="157" y="584" on="0"/>
        <pt x="334" y="708" on="0"/>
        <pt x="441" y="708" on="1"/>
      </contour>
      <contour>
        <pt x="416" y="314" on="0"/>
        <pt x="429" y="392" on="1"/>
        <pt x="413" y="410" on="0"/>
        <pt x="395" y="410" on="1"/>
        <pt x="366" y="410" on="0"/>
        <pt x="334" y="326" on="0"/>
        <pt x="334" y="247" on="1"/>
        <pt x="334" y="197" on="0"/>
        <pt x="351" y="159" on="0"/>
        <pt x="370" y="159" on="1"/>
        <pt x="390" y="159" on="0"/>
        <pt x="411" y="190" on="1"/>
      </contour>
    </TTGlyph>
    <TTGlyph name="atilde" xMin="28" yMin="-9" xMax="455" yMax="698">
      <component glyphName="a" x="0" y="0" flags="0x0"/>
      <component glyphName="tilde" x="120" y="0" flags="0x0"/>
    </TTGlyph>
    <TTGlyph name="b" xMin="20" yMin="-8" xMax="448" yMax="754">
      <contour>
        <pt x="230" y="-8" on="0"/>
        <pt x="174" y="31" on="0"/>
        <pt x="161" y="62" on="1"/>
        <pt x="149" y="24" on="1"/>
        <pt x="143" y="9" on="0"/>
        <pt x="117" y="-2" on="0"/>
        <pt x="92" y="-2" on="1"/>
        <pt x="80" y="-2" on="1"/>
        <pt x="20" y="-2" on="0"/>
        <pt x="23" y="30" on="1"/>
        <pt x="96" y="722" on="1"/>
        <pt x="99" y="754" on="0"/>
        <pt x="159" y="754" on="1"/>
        <pt x="187" y="754" on="1"/>
        <pt x="247" y="754" on="0"/>
        <pt x="244" y="722" on="1"/>
        <pt x="220" y="501" on="1"/>
        <pt x="258" y="531" on="0"/>
        <pt x="307" y="531" on="1"/>
        <pt x="375" y="531" on="0"/>
        <pt x="448" y="427" on="0"/>
        <pt x="448" y="328" on="1"/>
        <pt x="448" y="292" on="0"/>
        <pt x="444" y="260" on="1"/>
        <pt x="431" y="133" on="0"/>
        <pt x="333" y="-8" on="0"/>
        <pt x="264" y="-8" on="1"/>
      </contour>
      <contour>
        <pt x="255" y="113" on="0"/>
        <pt x="286" y="180" on="0"/>
        <pt x="294" y="261" on="1"/>
        <pt x="298" y="298" on="0"/>
        <pt x="298" y="331" on="1"/>
        <pt x="298" y="376" on="0"/>
        <pt x="276" y="414" on="0"/>
        <pt x="253" y="414" on="1"/>
        <pt x="231" y="414" on="0"/>
        <pt x="210" y="399" on="1"/>
        <pt x="183" y="147" on="1"/>
        <pt x="201" y="113" on="0"/>
        <pt x="228" y="113" on="1"/>
      </contour>
    </TTGlyph>
    <TTGlyph name="backslash" xMin="52" yMin="-22" xMax="267" yMax="702">
      <contour>
        <pt x="148" y="-22" on="0"/>
        <pt x="144" y="9" on="1"/>
        <pt x="54" y="652" on="1"/>
        <pt x="53" y="662" on="0"/>
        <pt x="52" y="677" on="0"/>
        <pt x="53" y="679" on="1"/>
        <pt x="56" y="702" on="0"/>
        <pt x="93" y="702" on="1"/>
        <pt x="129" y="702" on="1"/>
        <pt x="169" y="702" on="0"/>
        <pt x="173" y="671" on="1"/>
        <pt x="265" y="35" on="1"/>
        <pt x="266" y="16" on="0"/>
        <pt x="267" y="3" on="0"/>
        <pt x="267" y="1" on="1"/>
        <pt x="265" y="-10" on="0"/>
        <pt x="245" y="-22" on="0"/>
        <pt x="227" y="-22" on="1"/>
        <pt x="188" y="-22" on="1"/>
      </contour>
    </TTGlyph>
    <TTGlyph name="bar" xMin="1" yMin="-138" xMax="209" yMax="768">
      <contour>
        <pt x="186" y="768" on="0"/>
        <pt x="209" y="754" on="0"/>
        <pt x="207" y="738" on="1"/>
        <pt x="118" y="-108" on="1"/>
        <pt x="117" y="-124" on="0"/>
        <pt x="91" y="-138" on="0"/>
        <pt x="65" y="-138" on="1"/>
        <pt x="50" y="-138" on="1"/>
        <pt x="24" y="-138" on="0"/>
        <pt x="1" y="-124" on="0"/>
        <pt x="3" y="-108" on="1"/>
        <pt x="92" y="738" on="1"/>
        <pt x="93" y="754" on="0"/>
        <pt x="119" y="768" on="0"/>
        <pt x="145" y="768" on="1"/>
        <pt x="160" y="768" on="1"/>
      </contour>
    </TTGlyph>
    <TTGlyph name="baraccent" xMin="39" yMin="270" xMax="293" yMax="365">
      <contour>
        <pt x="51" y="270" on="0"/>
        <pt x="39" y="289" on="0"/>
        <pt x="41" y="310" on="1"/>
        <pt x="43" y="325" on="1"/>
        <pt x="45" y="346" on="0"/>
        <pt x="61" y="365" on="0"/>
        <pt x="76" y="365" on="1"/>
        <pt x="267" y="365" on="1"/>
        <pt x="293" y="365" on="0"/>
        <pt x="293" y="336" on="1"/>
        <pt x="292" y="325" on="1"/>
        <pt x="290" y="310" on="1"/>
        <pt x="289" y="289" on="0"/>
        <pt x="273" y="270" on="0"/>
        <pt x="257" y="270" on="1"/>
        <pt x="66" y="270" on="1"/>
      </contour>
    </TTGlyph>
    <TTGlyph name="baraccentlong" xMin="-82" yMin="270" xMax="597" yMax="365">
      <contour>
        <pt x="597" y="365" on="0"/>
        <pt x="597" y="335" on="1"/>
        <pt x="597" y="311" on="0"/>
        <pt x="582" y="270" on="0"/>
        <pt x="560" y="270" on="1"/>
        <pt x="-56" y="270" on="1"/>
        <pt x="-70" y="270" on="0"/>
        <pt x="-82" y="284" on="0"/>
        <pt x="-82" y="300" on="1"/>
        <pt x="-82" y="365" on="0"/>
        <pt x="-45" y="365" on="1"/>
        <pt x="571" y="365" on="1"/>
      </contour>
    </TTGlyph>
    <TTGlyph name="baraccentmedium" xMin="-2" yMin="270" xMax="417" yMax="365">
      <contour>
        <pt x="417" y="365" on="0"/>
        <pt x="417" y="335" on="1"/>
        <pt x="417" y="311" on="0"/>
        <pt x="402" y="270" on="0"/>
        <pt x="380" y="270" on="1"/>
        <pt x="24" y="270" on="1"/>
        <pt x="10" y="270" on="0"/>
        <pt x="-2" y="284" on="0"/>
        <pt x="-2" y="300" on="1"/>
        <pt x="-2" y="365" on="0"/>
        <pt x="35" y="365" on="1"/>
        <pt x="391" y="365" on="1"/>
      </contour>
    </TTGlyph>
    <TTGlyph name="braceleft" xMin="11" yMin="-138" xMax="292" yMax="768">
      <contour>
        <pt x="90" y="-138" on="0"/>
        <pt x="42" y="-83" on="0"/>
        <pt x="42" y="-39" on="1"/>
        <pt x="42" y="-28" on="0"/>
        <pt x="43" y="-22" on="1"/>
        <pt x="63" y="163" on="1"/>
        <pt x="65" y="185" on="0"/>
        <pt x="65" y="193" on="1"/>
        <pt x="65" y="244" on="0"/>
        <pt x="37" y="259" on="1"/>
        <pt x="23" y="268" on="0"/>
        <pt x="11" y="290" on="0"/>
        <pt x="13" y="309" on="1"/>
        <pt x="14" y="321" on="1"/>
        <pt x="16" y="340" on="0"/>
        <pt x="33" y="362" on="0"/>
        <pt x="49" y="371" on="1"/>
        <pt x="69" y="381" on="0"/>
        <pt x="90" y="426" on="0"/>
        <pt x="95" y="467" on="1"/>
        <pt x="114" y="652" on="1"/>
        <pt x="119" y="703" on="0"/>
        <pt x="181" y="768" on="0"/>
        <pt x="225" y="768" on="1"/>
        <pt x="264" y="768" on="1"/>
        <pt x="280" y="768" on="0"/>
        <pt x="292" y="749" on="0"/>
        <pt x="290" y="728" on="1"/>
        <pt x="289" y="714" on="1"/>
        <pt x="285" y="675" on="0"/>
        <pt x="258" y="674" on="1"/>
        <pt x="260" y="674" on="1"/>
        <pt x="244" y="674" on="0"/>
        <pt x="229" y="657" on="0"/>
        <pt x="228" y="638" on="1"/>
        <pt x="208" y="451" on="1"/>
        <pt x="203" y="401" on="0"/>
        <pt x="166" y="331" on="0"/>
        <pt x="137" y="315" on="1"/>
        <pt x="181" y="288" on="0"/>
        <pt x="181" y="209" on="1"/>
        <pt x="181" y="201" on="0"/>
        <pt x="179" y="179" on="1"/>
        <pt x="160" y="-8" on="1"/>
        <pt x="159" y="-19" on="1"/>
        <pt x="159" y="-44" on="0"/>
        <pt x="180" y="-44" on="1"/>
        <pt x="181" y="-44" on="1"/>
        <pt x="206" y="-46" on="0"/>
        <pt x="206" y="-74" on="1"/>
        <pt x="205" y="-84" on="1"/>
        <pt x="203" y="-98" on="1"/>
        <pt x="201" y="-119" on="0"/>
        <pt x="185" y="-138" on="0"/>
        <pt x="169" y="-138" on="1"/>
        <pt x="130" y="-138" on="1"/>
      </contour>
    </TTGlyph>
    <TTGlyph name="braceright" xMin="-32" yMin="-138" xMax="249" yMax="768">
      <contour>
        <pt x="-20" y="-138" on="0"/>
        <pt x="-32" y="-119" on="0"/>
        <pt x="-30" y="-98" on="1"/>
        <pt x="-28" y="-84" on="1"/>
        <pt x="-26" y="-64" on="0"/>
        <pt x="-10" y="-45" on="0"/>
        <pt x="4" y="-44" on="1"/>
        <pt x="5" y="-44" on="1"/>
        <pt x="17" y="-44" on="0"/>
        <pt x="31" y="-26" on="0"/>
        <pt x="33" y="-8" on="1"/>
        <pt x="52" y="179" on="1"/>
        <pt x="57" y="229" on="0"/>
        <pt x="94" y="299" on="0"/>
        <pt x="124" y="315" on="1"/>
        <pt x="102" y="329" on="0"/>
        <pt x="79" y="383" on="0"/>
        <pt x="79" y="421" on="1"/>
        <pt x="79" y="429" on="0"/>
        <pt x="81" y="451" on="1"/>
        <pt x="101" y="638" on="1"/>
        <pt x="103" y="658" on="0"/>
        <pt x="92" y="674" on="0"/>
        <pt x="76" y="674" on="1"/>
        <pt x="77" y="674" on="1"/>
        <pt x="55" y="675" on="0"/>
        <pt x="55" y="702" on="1"/>
        <pt x="56" y="714" on="1"/>
        <pt x="57" y="728" on="1"/>
        <pt x="59" y="749" on="0"/>
        <pt x="75" y="768" on="0"/>
        <pt x="91" y="768" on="1"/>
        <pt x="130" y="768" on="1"/>
        <pt x="170" y="768" on="0"/>
        <pt x="218" y="713" on="0"/>
        <pt x="218" y="669" on="1"/>
        <pt x="218" y="658" on="0"/>
        <pt x="217" y="652" on="1"/>
        <pt x="198" y="467" on="1"/>
        <pt x="196" y="441" on="0"/>
        <pt x="196" y="433" on="1"/>
        <pt x="196" y="408" on="0"/>
        <pt x="209" y="378" on="0"/>
        <pt x="224" y="371" on="1"/>
        <pt x="238" y="362" on="0"/>
        <pt x="249" y="340" on="0"/>
        <pt x="247" y="321" on="1"/>
        <pt x="246" y="309" on="1"/>
        <pt x="244" y="290" on="0"/>
        <pt x="228" y="268" on="0"/>
        <pt x="212" y="259" on="1"/>
        <pt x="191" y="249" on="0"/>
        <pt x="170" y="205" on="0"/>
        <pt x="166" y="163" on="1"/>
        <pt x="146" y="-22" on="1"/>
        <pt x="141" y="-73" on="0"/>
        <pt x="79" y="-138" on="0"/>
        <pt x="35" y="-138" on="1"/>
        <pt x="-4" y="-138" on="1"/>
      </contour>
    </TTGlyph>
    <TTGlyph name="bracketleft" xMin="-7" yMin="-138" xMax="255" yMax="768">
      <contour>
        <pt x="8" y="-138" on="0"/>
        <pt x="-7" y="-119" on="0"/>
        <pt x="-5" y="-98" on="1"/>
        <pt x="82" y="728" on="1"/>
        <pt x="84" y="749" on="0"/>
        <pt x="104" y="768" on="0"/>
        <pt x="123" y="768" on="1"/>
        <pt x="229" y="768" on="1"/>
        <pt x="255" y="768" on="0"/>
        <pt x="255" y="739" on="1"/>
        <pt x="254" y="728" on="1"/>
        <pt x="252" y="713" on="1"/>
        <pt x="251" y="692" on="0"/>
        <pt x="235" y="673" on="0"/>
        <pt x="219" y="673" on="1"/>
        <pt x="189" y="673" on="1"/>
        <pt x="114" y="-43" on="1"/>
        <pt x="144" y="-43" on="1"/>
        <pt x="170" y="-43" on="0"/>
        <pt x="170" y="-72" on="1"/>
        <pt x="169" y="-83" on="1"/>
        <pt x="167" y="-98" on="1"/>
        <pt x="165" y="-119" on="0"/>
        <pt x="150" y="-138" on="0"/>
        <pt x="134" y="-138" on="1"/>
        <pt x="28" y="-138" on="1"/>
      </contour>
    </TTGlyph>
    <TTGlyph name="bracketright" xMin="-6" yMin="-138" xMax="256" yMax="768">
      <contour>
        <pt x="-6" y="-138" on="0"/>
        <pt x="-6" y="-109" on="1"/>
        <pt x="-5" y="-98" on="1"/>
        <pt x="-3" y="-83" on="1"/>
        <pt x="-1" y="-62" on="0"/>
        <pt x="15" y="-43" on="0"/>
        <pt x="30" y="-43" on="1"/>
        <pt x="61" y="-43" on="1"/>
        <pt x="136" y="673" on="1"/>
        <pt x="105" y="673" on="1"/>
        <pt x="90" y="673" on="0"/>
        <pt x="78" y="692" on="0"/>
        <pt x="80" y="713" on="1"/>
        <pt x="82" y="728" on="1"/>
        <pt x="84" y="749" on="0"/>
        <pt x="100" y="768" on="0"/>
        <pt x="115" y="768" on="1"/>
        <pt x="221" y="768" on="1"/>
        <pt x="241" y="768" on="0"/>
        <pt x="256" y="749" on="0"/>
        <pt x="254" y="728" on="1"/>
        <pt x="167" y="-98" on="1"/>
        <pt x="165" y="-119" on="0"/>
        <pt x="145" y="-138" on="0"/>
        <pt x="126" y="-138" on="1"/>
        <pt x="20" y="-138" on="1"/>
      </contour>
    </TTGlyph>
    <TTGlyph name="breve" xMin="40" yMin="575" xMax="305" yMax="715">
      <contour>
        <pt x="100" y="575" on="0"/>
        <pt x="40" y="632" on="0"/>
        <pt x="40" y="671" on="1"/>
        <pt x="40" y="715" on="0"/>
        <pt x="84" y="715" on="1"/>
        <pt x="105" y="715" on="0"/>
        <pt x="112" y="697" on="1"/>
        <pt x="113" y="695" on="0"/>
        <pt x="121" y="677" on="0"/>
        <pt x="147" y="666" on="0"/>
        <pt x="170" y="666" on="1"/>
        <pt x="200" y="666" on="0"/>
        <pt x="225" y="682" on="0"/>
        <pt x="234" y="697" on="0"/>
        <pt x="235" y="699" on="1"/>
        <pt x="239" y="706" on="0"/>
        <pt x="255" y="715" on="0"/>
        <pt x="265" y="715" on="1"/>
        <pt x="305" y="715" on="0"/>
        <pt x="301" y="681" on="1"/>
        <pt x="297" y="640" on="0"/>
        <pt x="223" y="575" on="0"/>
        <pt x="159" y="575" on="1"/>
      </contour>
    </TTGlyph>
    <TTGlyph name="brokenbar" xMin="4" yMin="-140" xMax="208" yMax="770">
      <contour>
        <pt x="187" y="770" on="0"/>
        <pt x="208" y="754" on="0"/>
        <pt x="208" y="738" on="1"/>
        <pt x="208" y="732" on="0"/>
        <pt x="193" y="588" on="1"/>
        <pt x="174" y="412" on="1"/>
        <pt x="171" y="380" on="0"/>
        <pt x="120" y="380" on="1"/>
        <pt x="105" y="380" on="1"/>
        <pt x="58" y="380" on="0"/>
        <pt x="58" y="407" on="1"/>
        <pt x="58" y="417" on="0"/>
        <pt x="93" y="738" on="1"/>
        <pt x="96" y="770" on="0"/>
        <pt x="146" y="770" on="1"/>
        <pt x="161" y="770" on="1"/>
      </contour>
      <contour>
        <pt x="133" y="250" on="0"/>
        <pt x="153" y="235" on="0"/>
        <pt x="153" y="218" on="1"/>
        <pt x="151" y="198" on="0"/>
        <pt x="142" y="111" on="0"/>
        <pt x="137" y="62" on="1"/>
        <pt x="119" y="-108" on="1"/>
        <pt x="116" y="-140" on="0"/>
        <pt x="66" y="-140" on="1"/>
        <pt x="51" y="-140" on="1"/>
        <pt x="24" y="-140" on="0"/>
        <pt x="4" y="-125" on="0"/>
        <pt x="4" y="-108" on="1"/>
        <pt x="4" y="-94" on="0"/>
        <pt x="20" y="45" on="1"/>
        <pt x="38" y="218" on="1"/>
        <pt x="41" y="250" on="0"/>
        <pt x="92" y="250" on="1"/>
        <pt x="107" y="250" on="1"/>
      </contour>
    </TTGlyph>
    <TTGlyph name="bullet" xMin="34" yMin="194" xMax="278" yMax="459">
      <contour>
        <pt x="94" y="194" on="0"/>
        <pt x="34" y="250" on="0"/>
        <pt x="34" y="304" on="1"/>
        <pt x="34" y="379" on="0"/>
        <pt x="112" y="459" on="0"/>
        <pt x="170" y="459" on="1"/>
        <pt x="218" y="459" on="0"/>
        <pt x="278" y="401" on="0"/>
        <pt x="278" y="346" on="1"/>
        <pt x="278" y="333" on="0"/>
        <pt x="277" y="326" on="1"/>
        <pt x="270" y="262" on="0"/>
        <pt x="195" y="194" on="0"/>
        <pt x="142" y="194" on="1"/>
      </contour>
    </TTGlyph>
    <TTGlyph name="c" xMin="31" yMin="-8" xMax="416" yMax="531">
      <contour>
        <pt x="31" y="-8" on="0"/>
        <pt x="31" y="201" on="1"/>
        <pt x="31" y="229" on="0"/>
        <pt x="34" y="260" on="1"/>
        <pt x="62" y="531" on="0"/>
        <pt x="278" y="531" on="1"/>
        <pt x="332" y="531" on="0"/>
        <pt x="416" y="492" on="0"/>
        <pt x="416" y="465" on="1"/>
        <pt x="416" y="456" on="0"/>
        <pt x="398" y="417" on="0"/>
        <pt x="373" y="386" on="0"/>
        <pt x="363" y="386" on="1"/>
        <pt x="356" y="386" on="0"/>
        <pt x="345" y="394" on="1"/>
        <pt x="329" y="403" on="0"/>
        <pt x="301" y="414" on="0"/>
        <pt x="282" y="414" on="1"/>
        <pt x="241" y="414" on="0"/>
        <pt x="194" y="344" on="0"/>
        <pt x="185" y="262" on="1"/>
        <pt x="182" y="232" on="0"/>
        <pt x="182" y="209" on="1"/>
        <pt x="182" y="156" on="0"/>
        <pt x="214" y="109" on="0"/>
        <pt x="247" y="109" on="1"/>
        <pt x="265" y="109" on="0"/>
        <pt x="295" y="119" on="0"/>
        <pt x="316" y="128" on="0"/>
        <pt x="320" y="130" on="1"/>
        <pt x="336" y="137" on="0"/>
        <pt x="339" y="137" on="1"/>
        <pt x="354" y="137" on="0"/>
        <pt x="377" y="80" on="0"/>
        <pt x="375" y="61" on="1"/>
        <pt x="373" y="42" on="0"/>
        <pt x="320" y="10" on="0"/>
        <pt x="247" y="-8" on="0"/>
        <pt x="218" y="-8" on="1"/>
      </contour>
    </TTGlyph>
    <TTGlyph name="cacute" xMin="31" yMin="-8" xMax="416" yMax="734">
      <component glyphName="c" x="0" y="0" flags="0x0"/>
      <component glyphName="acute" x="164" y="0" flags="0x0"/>
    </TTGlyph>
    <TTGlyph name="cacute.loclPLK" xMin="31" yMin="-8" xMax="416" yMax="734">
      <component glyphName="c" x="0" y="0" flags="0x0"/>
      <component glyphName="acute.loclPLK" x="169" y="0" flags="0x0"/>
    </TTGlyph>
    <TTGlyph name="caron" xMin="48" yMin="572" xMax="298" yMax="718">
      <contour>
        <pt x="132" y="572" on="0"/>
        <pt x="108" y="579" on="0"/>
        <pt x="102" y="591" on="1"/>
        <pt x="53" y="691" on="1"/>
        <pt x="48" y="703" on="0"/>
        <pt x="48" y="708" on="1"/>
        <pt x="49" y="718" on="0"/>
        <pt x="70" y="718" on="1"/>
        <pt x="97" y="718" on="1"/>
        <pt x="116" y="718" on="0"/>
        <pt x="139" y="709" on="0"/>
        <pt x="145" y="699" on="1"/>
        <pt x="166" y="654" on="1"/>
        <pt x="197" y="700" on="1"/>
        <pt x="208" y="718" on="0"/>
        <pt x="250" y="718" on="1"/>
        <pt x="278" y="718" on="1"/>
        <pt x="298" y="718" on="0"/>
        <pt x="297" y="708" on="1"/>
        <pt x="297" y="704" on="0"/>
        <pt x="288" y="691" on="1"/>
        <pt x="218" y="591" on="1"/>
        <pt x="209" y="579" on="0"/>
        <pt x="183" y="572" on="0"/>
        <pt x="161" y="572" on="1"/>
        <pt x="155" y="572" on="1"/>
      </contour>
    </TTGlyph>
    <TTGlyph name="caron.alt" xMin="64" yMin="511" xMax="187" yMax="700">
      <contour>
        <pt x="93" y="511" on="0"/>
        <pt x="64" y="522" on="0"/>
        <pt x="64" y="533" on="1"/>
        <pt x="64" y="564" on="0"/>
        <pt x="66" y="606" on="1"/>
        <pt x="68" y="642" on="0"/>
        <pt x="68" y="656" on="1"/>
        <pt x="68" y="700" on="0"/>
        <pt x="128" y="700" on="1"/>
        <pt x="147" y="700" on="1"/>
        <pt x="167" y="700" on="0"/>
        <pt x="187" y="676" on="0"/>
        <pt x="187" y="656" on="1"/>
        <pt x="187" y="625" on="0"/>
        <pt x="160" y="558" on="0"/>
        <pt x="122" y="512" on="0"/>
        <pt x="109" y="511" on="1"/>
      </contour>
    </TTGlyph>
    <TTGlyph name="ccaron" xMin="31" yMin="-8" xMax="416" yMax="718">
      <component glyphName="c" x="0" y="0" flags="0x0"/>
      <component glyphName="caron" x="102" y="0" flags="0x0"/>
    </TTGlyph>
    <TTGlyph name="ccedilla" xMin="31" yMin="-212" xMax="416" yMax="531">
      <contour>
        <pt x="332" y="531" on="0"/>
        <pt x="416" y="492" on="0"/>
        <pt x="416" y="465" on="1"/>
        <pt x="416" y="456" on="0"/>
        <pt x="398" y="417" on="0"/>
        <pt x="373" y="386" on="0"/>
        <pt x="363" y="386" on="1"/>
        <pt x="356" y="386" on="0"/>
        <pt x="345" y="394" on="1"/>
        <pt x="329" y="403" on="0"/>
        <pt x="301" y="414" on="0"/>
        <pt x="282" y="414" on="1"/>
        <pt x="241" y="414" on="0"/>
        <pt x="194" y="344" on="0"/>
        <pt x="185" y="262" on="1"/>
        <pt x="182" y="232" on="0"/>
        <pt x="182" y="209" on="1"/>
        <pt x="182" y="156" on="0"/>
        <pt x="214" y="109" on="0"/>
        <pt x="247" y="109" on="1"/>
        <pt x="265" y="109" on="0"/>
        <pt x="295" y="119" on="0"/>
        <pt x="316" y="128" on="0"/>
        <pt x="320" y="130" on="1"/>
        <pt x="336" y="137" on="0"/>
        <pt x="339" y="137" on="1"/>
        <pt x="354" y="137" on="0"/>
        <pt x="377" y="80" on="0"/>
        <pt x="375" y="61" on="1"/>
        <pt x="373" y="37" on="0"/>
        <pt x="293" y="0" on="0"/>
        <pt x="246" y="-6" on="1"/>
        <pt x="234" y="-48" on="1"/>
        <pt x="263" y="-53" on="0"/>
        <pt x="298" y="-90" on="0"/>
        <pt x="298" y="-122" on="1"/>
        <pt x="298" y="-166" on="0"/>
        <pt x="242" y="-212" on="0"/>
        <pt x="194" y="-212" on="1"/>
        <pt x="151" y="-212" on="0"/>
        <pt x="88" y="-181" on="0"/>
        <pt x="88" y="-160" on="1"/>
        <pt x="88" y="-142" on="0"/>
        <pt x="111" y="-118" on="0"/>
        <pt x="120" y="-118" on="1"/>
        <pt x="129" y="-118" on="0"/>
        <pt x="145" y="-127" on="1"/>
        <pt x="147" y="-128" on="0"/>
        <pt x="171" y="-139" on="0"/>
        <pt x="185" y="-139" on="1"/>
        <pt x="205" y="-139" on="0"/>
        <pt x="205" y="-123" on="1"/>
        <pt x="205" y="-115" on="0"/>
        <pt x="194" y="-106" on="0"/>
        <pt x="182" y="-101" on="1"/>
        <pt x="170" y="-96" on="0"/>
        <pt x="158" y="-87" on="0"/>
        <pt x="158" y="-79" on="1"/>
        <pt x="158" y="-71" on="0"/>
        <pt x="172" y="-33" on="1"/>
        <pt x="175" y="-21" on="0"/>
        <pt x="181" y="-6" on="1"/>
        <pt x="31" y="14" on="0"/>
        <pt x="31" y="202" on="1"/>
        <pt x="31" y="229" on="0"/>
        <pt x="34" y="260" on="1"/>
        <pt x="62" y="531" on="0"/>
        <pt x="278" y="531" on="1"/>
      </contour>
    </TTGlyph>
    <TTGlyph name="ccircumflex" xMin="31" yMin="-8" xMax="416" yMax="718">
      <component glyphName="c" x="0" y="0" flags="0x0"/>
      <component glyphName="circumflex" x="101" y="0" flags="0x0"/>
    </TTGlyph>
    <TTGlyph name="cdotaccent" xMin="31" yMin="-8" xMax="416" yMax="702">
      <component glyphName="c" x="0" y="0" flags="0x0"/>
      <component glyphName="dotaccent" x="98" y="0" flags="0x0"/>
    </TTGlyph>
    <TTGlyph name="cedilla" xMin="15" yMin="-212" xMax="225" yMax="10">
      <contour>
        <pt x="190" y="-53" on="0"/>
        <pt x="225" y="-90" on="0"/>
        <pt x="225" y="-122" on="1"/>
        <pt x="225" y="-166" on="0"/>
        <pt x="169" y="-212" on="0"/>
        <pt x="121" y="-212" on="1"/>
        <pt x="78" y="-212" on="0"/>
        <pt x="15" y="-181" on="0"/>
        <pt x="15" y="-160" on="1"/>
        <pt x="15" y="-142" on="0"/>
        <pt x="38" y="-118" on="0"/>
        <pt x="47" y="-118" on="1"/>
        <pt x="56" y="-118" on="0"/>
        <pt x="72" y="-127" on="1"/>
        <pt x="74" y="-128" on="0"/>
        <pt x="98" y="-139" on="0"/>
        <pt x="112" y="-139" on="1"/>
        <pt x="132" y="-139" on="0"/>
        <pt x="132" y="-123" on="1"/>
        <pt x="132" y="-115" on="0"/>
        <pt x="121" y="-106" on="0"/>
        <pt x="109" y="-101" on="1"/>
        <pt x="97" y="-96" on="0"/>
        <pt x="85" y="-87" on="0"/>
        <pt x="85" y="-79" on="1"/>
        <pt x="85" y="-71" on="0"/>
        <pt x="106" y="-12" on="1"/>
        <pt x="114" y="10" on="1"/>
        <pt x="178" y="10" on="1"/>
        <pt x="161" y="-48" on="1"/>
      </contour>
    </TTGlyph>
    <TTGlyph name="cent" xMin="31" yMin="-75" xMax="416" yMax="591">
      <contour>
        <pt x="354" y="524" on="0"/>
        <pt x="416" y="488" on="0"/>
        <pt x="416" y="465" on="1"/>
        <pt x="416" y="455" on="0"/>
        <pt x="398" y="416" on="0"/>
        <pt x="373" y="386" on="0"/>
        <pt x="363" y="386" on="1"/>
        <pt x="356" y="386" on="0"/>
        <pt x="345" y="394" on="1"/>
        <pt x="317" y="410" on="0"/>
        <pt x="296" y="413" on="1"/>
        <pt x="264" y="110" on="1"/>
        <pt x="285" y="114" on="0"/>
        <pt x="318" y="129" on="0"/>
        <pt x="320" y="130" on="1"/>
        <pt x="336" y="137" on="0"/>
        <pt x="339" y="137" on="1"/>
        <pt x="354" y="137" on="0"/>
        <pt x="377" y="80" on="0"/>
        <pt x="375" y="61" on="1"/>
        <pt x="373" y="38" on="0"/>
        <pt x="298" y="2" on="0"/>
        <pt x="252" y="-5" on="1"/>
        <pt x="247" y="-55" on="1"/>
        <pt x="244" y="-75" on="0"/>
        <pt x="225" y="-75" on="1"/>
        <pt x="208" y="-75" on="1"/>
        <pt x="197" y="-75" on="0"/>
        <pt x="190" y="-66" on="0"/>
        <pt x="190" y="-55" on="1"/>
        <pt x="195" y="-7" on="1"/>
        <pt x="31" y="5" on="0"/>
        <pt x="31" y="201" on="1"/>
        <pt x="31" y="229" on="0"/>
        <pt x="34" y="260" on="1"/>
        <pt x="60" y="514" on="0"/>
        <pt x="252" y="530" on="1"/>
        <pt x="256" y="571" on="1"/>
        <pt x="258" y="582" on="0"/>
        <pt x="267" y="591" on="0"/>
        <pt x="278" y="591" on="1"/>
        <pt x="295" y="591" on="1"/>
        <pt x="305" y="591" on="0"/>
        <pt x="313" y="582" on="0"/>
        <pt x="313" y="571" on="1"/>
        <pt x="309" y="529" on="1"/>
      </contour>
      <contour>
        <pt x="182" y="232" on="0"/>
        <pt x="182" y="209" on="1"/>
        <pt x="182" y="142" on="0"/>
        <pt x="209" y="121" on="1"/>
        <pt x="238" y="401" on="1"/>
        <pt x="196" y="372" on="0"/>
        <pt x="185" y="262" on="1"/>
      </contour>
    </TTGlyph>
    <TTGlyph name="circumflex" xMin="34" yMin="572" xMax="284" yMax="718">
      <contour>
        <pt x="34" y="572" on="0"/>
        <pt x="35" y="582" on="1"/>
        <pt x="35" y="585" on="0"/>
        <pt x="43" y="599" on="1"/>
        <pt x="113" y="699" on="1"/>
        <pt x="122" y="711" on="0"/>
        <pt x="149" y="718" on="0"/>
        <pt x="172" y="718" on="1"/>
        <pt x="174" y="718" on="1"/>
        <pt x="197" y="718" on="0"/>
        <pt x="223" y="711" on="0"/>
        <pt x="229" y="699" on="1"/>
        <pt x="278" y="599" on="1"/>
        <pt x="284" y="589" on="0"/>
        <pt x="284" y="582" on="1"/>
        <pt x="283" y="572" on="0"/>
        <pt x="263" y="572" on="1"/>
        <pt x="235" y="572" on="1"/>
        <pt x="193" y="572" on="0"/>
        <pt x="186" y="590" on="1"/>
        <pt x="164" y="636" on="1"/>
        <pt x="134" y="591" on="1"/>
        <pt x="126" y="581" on="0"/>
        <pt x="101" y="572" on="0"/>
        <pt x="82" y="572" on="1"/>
        <pt x="55" y="572" on="1"/>
      </contour>
    </TTGlyph>
    <TTGlyph name="colon" xMin="-10" yMin="-2" xMax="197" yMax="525">
      <contour>
        <pt x="29" y="369" on="0"/>
        <pt x="34" y="401" on="1"/>
        <pt x="43" y="493" on="1"/>
        <pt x="45" y="509" on="0"/>
        <pt x="75" y="525" on="0"/>
        <pt x="105" y="525" on="1"/>
        <pt x="138" y="525" on="1"/>
        <pt x="197" y="525" on="0"/>
        <pt x="192" y="493" on="1"/>
        <pt x="183" y="401" on="1"/>
        <pt x="181" y="385" on="0"/>
        <pt x="151" y="369" on="0"/>
        <pt x="121" y="369" on="1"/>
        <pt x="88" y="369" on="1"/>
      </contour>
      <contour>
        <pt x="-10" y="-2" on="0"/>
        <pt x="-5" y="30" on="1"/>
        <pt x="4" y="122" on="1"/>
        <pt x="6" y="138" on="0"/>
        <pt x="36" y="154" on="0"/>
        <pt x="66" y="154" on="1"/>
        <pt x="99" y="154" on="1"/>
        <pt x="158" y="154" on="0"/>
        <pt x="153" y="122" on="1"/>
        <pt x="144" y="30" on="1"/>
        <pt x="142" y="14" on="0"/>
        <pt x="112" y="-2" on="0"/>
        <pt x="82" y="-2" on="1"/>
        <pt x="49" y="-2" on="1"/>
      </contour>
    </TTGlyph>
    <TTGlyph name="comma" xMin="-50" yMin="-125" xMax="146" yMax="154">
      <contour>
        <pt x="-23" y="-125" on="0"/>
        <pt x="-50" y="-115" on="0"/>
        <pt x="-50" y="-105" on="1"/>
        <pt x="-50" y="-99" on="0"/>
        <pt x="-43" y="-78" on="0"/>
        <pt x="-41" y="-70" on="1"/>
        <pt x="-38" y="-61" on="0"/>
        <pt x="-15" y="-8" on="0"/>
        <pt x="3" y="66" on="0"/>
        <pt x="8" y="110" on="1"/>
        <pt x="13" y="154" on="0"/>
        <pt x="71" y="154" on="1"/>
        <pt x="91" y="154" on="1"/>
        <pt x="121" y="154" on="0"/>
        <pt x="146" y="130" on="0"/>
        <pt x="144" y="110" on="1"/>
        <pt x="138" y="57" on="0"/>
        <pt x="81" y="-52" on="0"/>
        <pt x="12" y="-125" on="0"/>
        <pt x="-9" y="-125" on="1"/>
      </contour>
    </TTGlyph>
    <TTGlyph name="commaaccentinvert" xMin="97" yMin="575" xMax="230" yMax="764">
      <contour>
        <pt x="202" y="764" on="0"/>
        <pt x="230" y="753" on="0"/>
        <pt x="230" y="742" on="1"/>
        <pt x="230" y="739" on="0"/>
        <pt x="228" y="721" on="1"/>
        <pt x="220" y="670" on="0"/>
        <pt x="220" y="619" on="1"/>
        <pt x="220" y="575" on="0"/>
        <pt x="162" y="575" on="1"/>
        <pt x="142" y="575" on="1"/>
        <pt x="97" y="575" on="0"/>
        <pt x="97" y="619" on="1"/>
        <pt x="97" y="651" on="0"/>
        <pt x="128" y="718" on="0"/>
        <pt x="171" y="764" on="0"/>
        <pt x="186" y="764" on="1"/>
      </contour>
    </TTGlyph>
    <TTGlyph name="copyright" xMin="20" yMin="-8" xMax="591" yMax="708">
      <contour>
        <pt x="225" y="-8" on="0"/>
        <pt x="96" y="73" on="0"/>
        <pt x="20" y="235" on="0"/>
        <pt x="20" y="350" on="1"/>
        <pt x="20" y="465" on="0"/>
        <pt x="96" y="627" on="0"/>
        <pt x="225" y="708" on="0"/>
        <pt x="306" y="708" on="1"/>
        <pt x="387" y="708" on="0"/>
        <pt x="516" y="627" on="0"/>
        <pt x="591" y="465" on="0"/>
        <pt x="591" y="350" on="1"/>
        <pt x="591" y="235" on="0"/>
        <pt x="516" y="73" on="0"/>
        <pt x="387" y="-8" on="0"/>
        <pt x="306" y="-8" on="1"/>
      </contour>
      <contour>
        <pt x="368" y="56" on="0"/>
        <pt x="467" y="120" on="0"/>
        <pt x="525" y="253" on="0"/>
        <pt x="525" y="350" on="1"/>
        <pt x="525" y="447" on="0"/>
        <pt x="467" y="580" on="0"/>
        <pt x="368" y="644" on="0"/>
        <pt x="306" y="644" on="1"/>
        <pt x="244" y="644" on="0"/>
        <pt x="144" y="580" on="0"/>
        <pt x="86" y="447" on="0"/>
        <pt x="86" y="350" on="1"/>
        <pt x="86" y="253" on="0"/>
        <pt x="144" y="120" on="0"/>
        <pt x="244" y="56" on="0"/>
        <pt x="306" y="56" on="1"/>
      </contour>
      <contour>
        <pt x="241" y="152" on="0"/>
        <pt x="171" y="250" on="0"/>
        <pt x="171" y="353" on="1"/>
        <pt x="171" y="552" on="0"/>
        <pt x="316" y="552" on="1"/>
        <pt x="347" y="552" on="0"/>
        <pt x="411" y="529" on="0"/>
        <pt x="411" y="513" on="1"/>
        <pt x="411" y="500" on="0"/>
        <pt x="385" y="460" on="0"/>
        <pt x="375" y="460" on="1"/>
        <pt x="373" y="460" on="0"/>
        <pt x="344" y="478" on="0"/>
        <pt x="314" y="478" on="1"/>
        <pt x="258" y="478" on="0"/>
        <pt x="258" y="353" on="1"/>
        <pt x="258" y="225" on="0"/>
        <pt x="314" y="225" on="1"/>
        <pt x="342" y="225" on="0"/>
        <pt x="379" y="248" on="0"/>
        <pt x="381" y="248" on="1"/>
        <pt x="394" y="248" on="0"/>
        <pt x="414" y="209" on="0"/>
        <pt x="414" y="199" on="1"/>
        <pt x="414" y="184" on="0"/>
        <pt x="377" y="162" on="0"/>
        <pt x="329" y="152" on="0"/>
        <pt x="314" y="152" on="1"/>
      </contour>
    </TTGlyph>
    <TTGlyph name="currency" xMin="19" yMin="72" xMax="448" yMax="514">
      <contour>
        <pt x="67" y="72" on="0"/>
        <pt x="55" y="84" on="1"/>
        <pt x="28" y="114" on="1"/>
        <pt x="19" y="124" on="0"/>
        <pt x="19" y="136" on="1"/>
        <pt x="19" y="151" on="0"/>
        <pt x="34" y="164" on="1"/>
        <pt x="64" y="191" on="1"/>
        <pt x="52" y="226" on="0"/>
        <pt x="52" y="265" on="1"/>
        <pt x="52" y="334" on="0"/>
        <pt x="87" y="390" on="1"/>
        <pt x="58" y="422" on="1"/>
        <pt x="48" y="433" on="0"/>
        <pt x="48" y="447" on="1"/>
        <pt x="49" y="460" on="0"/>
        <pt x="63" y="472" on="1"/>
        <pt x="96" y="502" on="1"/>
        <pt x="109" y="514" on="0"/>
        <pt x="123" y="514" on="1"/>
        <pt x="136" y="514" on="0"/>
        <pt x="146" y="502" on="1"/>
        <pt x="170" y="476" on="1"/>
        <pt x="210" y="500" on="0"/>
        <pt x="252" y="500" on="1"/>
        <pt x="296" y="500" on="0"/>
        <pt x="332" y="475" on="1"/>
        <pt x="361" y="502" on="1"/>
        <pt x="375" y="514" on="0"/>
        <pt x="388" y="514" on="1"/>
        <pt x="401" y="514" on="0"/>
        <pt x="411" y="502" on="1"/>
        <pt x="438" y="472" on="1"/>
        <pt x="448" y="460" on="0"/>
        <pt x="447" y="447" on="1"/>
        <pt x="447" y="434" on="0"/>
        <pt x="433" y="422" on="1"/>
        <pt x="395" y="388" on="1"/>
        <pt x="408" y="351" on="0"/>
        <pt x="408" y="313" on="1"/>
        <pt x="408" y="253" on="0"/>
        <pt x="377" y="194" on="1"/>
        <pt x="403" y="164" on="1"/>
        <pt x="412" y="154" on="0"/>
        <pt x="412" y="142" on="1"/>
        <pt x="412" y="128" on="0"/>
        <pt x="397" y="114" on="1"/>
        <pt x="364" y="84" on="1"/>
        <pt x="352" y="72" on="0"/>
        <pt x="338" y="72" on="1"/>
        <pt x="326" y="72" on="0"/>
        <pt x="314" y="84" on="1"/>
        <pt x="297" y="105" on="1"/>
        <pt x="255" y="78" on="0"/>
        <pt x="208" y="78" on="1"/>
        <pt x="164" y="78" on="0"/>
        <pt x="126" y="103" on="1"/>
        <pt x="105" y="84" on="1"/>
        <pt x="93" y="72" on="0"/>
        <pt x="79" y="72" on="1"/>
      </contour>
      <contour>
        <pt x="247" y="192" on="0"/>
        <pt x="287" y="242" on="0"/>
        <pt x="292" y="289" on="1"/>
        <pt x="293" y="297" on="0"/>
        <pt x="293" y="311" on="1"/>
        <pt x="293" y="347" on="0"/>
        <pt x="264" y="386" on="0"/>
        <pt x="240" y="386" on="1"/>
        <pt x="212" y="386" on="0"/>
        <pt x="172" y="336" on="0"/>
        <pt x="167" y="289" on="1"/>
        <pt x="166" y="282" on="0"/>
        <pt x="166" y="268" on="1"/>
        <pt x="166" y="231" on="0"/>
        <pt x="196" y="192" on="0"/>
        <pt x="220" y="192" on="1"/>
      </contour>
    </TTGlyph>
    <TTGlyph name="d" xMin="29" yMin="-8" xMax="481" yMax="754">
      <contour>
        <pt x="97" y="-8" on="0"/>
        <pt x="29" y="99" on="0"/>
        <pt x="29" y="197" on="1"/>
        <pt x="29" y="232" on="0"/>
        <pt x="33" y="264" on="1"/>
        <pt x="46" y="392" on="0"/>
        <pt x="149" y="531" on="0"/>
        <pt x="228" y="531" on="1"/>
        <pt x="276" y="531" on="0"/>
        <pt x="307" y="502" on="1"/>
        <pt x="330" y="722" on="1"/>
        <pt x="333" y="754" on="0"/>
        <pt x="393" y="754" on="1"/>
        <pt x="421" y="754" on="1"/>
        <pt x="481" y="754" on="0"/>
        <pt x="478" y="722" on="1"/>
        <pt x="459" y="550" on="1"/>
        <pt x="416" y="148" on="0"/>
        <pt x="416" y="133" on="1"/>
        <pt x="416" y="111" on="0"/>
        <pt x="429" y="111" on="1"/>
        <pt x="433" y="111" on="0"/>
        <pt x="439" y="113" on="0"/>
        <pt x="443" y="113" on="1"/>
        <pt x="450" y="113" on="0"/>
        <pt x="457" y="95" on="0"/>
        <pt x="457" y="84" on="1"/>
        <pt x="457" y="44" on="0"/>
        <pt x="406" y="-8" on="0"/>
        <pt x="359" y="-8" on="1"/>
        <pt x="283" y="-8" on="0"/>
        <pt x="272" y="71" on="1"/>
        <pt x="255" y="36" on="0"/>
        <pt x="192" y="-8" on="0"/>
        <pt x="154" y="-8" on="1"/>
      </contour>
      <contour>
        <pt x="246" y="113" on="0"/>
        <pt x="270" y="153" on="1"/>
        <pt x="296" y="400" on="1"/>
        <pt x="278" y="414" on="0"/>
        <pt x="256" y="414" on="1"/>
        <pt x="226" y="414" on="0"/>
        <pt x="191" y="343" on="0"/>
        <pt x="182" y="261" on="1"/>
        <pt x="178" y="228" on="0"/>
        <pt x="178" y="195" on="1"/>
        <pt x="178" y="152" on="0"/>
        <pt x="197" y="113" on="0"/>
        <pt x="217" y="113" on="1"/>
      </contour>
    </TTGlyph>
    <TTGlyph name="dagger" xMin="55" yMin="-140" xMax="415" yMax="702">
      <contour>
        <pt x="138" y="-140" on="0"/>
        <pt x="119" y="-124" on="0"/>
        <pt x="121" y="-108" on="1"/>
        <pt x="176" y="410" on="1"/>
        <pt x="80" y="410" on="1"/>
        <pt x="67" y="410" on="0"/>
        <pt x="55" y="426" on="0"/>
        <pt x="55" y="444" on="1"/>
        <pt x="55" y="454" on="0"/>
        <pt x="56" y="460" on="1"/>
        <pt x="57" y="467" on="1"/>
        <pt x="61" y="517" on="0"/>
        <pt x="91" y="517" on="1"/>
        <pt x="187" y="517" on="1"/>
        <pt x="203" y="670" on="1"/>
        <pt x="206" y="702" on="0"/>
        <pt x="250" y="702" on="1"/>
        <pt x="269" y="702" on="1"/>
        <pt x="314" y="702" on="0"/>
        <pt x="311" y="670" on="1"/>
        <pt x="295" y="517" on="1"/>
        <pt x="390" y="517" on="1"/>
        <pt x="403" y="517" on="0"/>
        <pt x="415" y="500" on="0"/>
        <pt x="415" y="482" on="1"/>
        <pt x="414" y="467" on="1"/>
        <pt x="413" y="460" on="1"/>
        <pt x="410" y="433" on="0"/>
        <pt x="395" y="410" on="0"/>
        <pt x="379" y="410" on="1"/>
        <pt x="284" y="410" on="1"/>
        <pt x="229" y="-108" on="1"/>
        <pt x="226" y="-140" on="0"/>
        <pt x="180" y="-140" on="1"/>
        <pt x="161" y="-140" on="1"/>
      </contour>
    </TTGlyph>
    <TTGlyph name="daggerdbl" xMin="16" yMin="-140" xMax="415" yMax="702">
      <contour>
        <pt x="138" y="-140" on="0"/>
        <pt x="119" y="-124" on="0"/>
        <pt x="121" y="-108" on="1"/>
        <pt x="137" y="42" on="1"/>
        <pt x="41" y="42" on="1"/>
        <pt x="16" y="42" on="0"/>
        <pt x="16" y="78" on="1"/>
        <pt x="17" y="92" on="1"/>
        <pt x="18" y="99" on="1"/>
        <pt x="21" y="125" on="0"/>
        <pt x="37" y="149" on="0"/>
        <pt x="52" y="149" on="1"/>
        <pt x="148" y="149" on="1"/>
        <pt x="176" y="410" on="1"/>
        <pt x="80" y="410" on="1"/>
        <pt x="67" y="410" on="0"/>
        <pt x="55" y="426" on="0"/>
        <pt x="55" y="444" on="1"/>
        <pt x="55" y="454" on="0"/>
        <pt x="56" y="460" on="1"/>
        <pt x="57" y="467" on="1"/>
        <pt x="61" y="517" on="0"/>
        <pt x="91" y="517" on="1"/>
        <pt x="187" y="517" on="1"/>
        <pt x="203" y="670" on="1"/>
        <pt x="206" y="702" on="0"/>
        <pt x="250" y="702" on="1"/>
        <pt x="269" y="702" on="1"/>
        <pt x="314" y="702" on="0"/>
        <pt x="311" y="670" on="1"/>
        <pt x="295" y="517" on="1"/>
        <pt x="390" y="517" on="1"/>
        <pt x="403" y="517" on="0"/>
        <pt x="415" y="500" on="0"/>
        <pt x="415" y="482" on="1"/>
        <pt x="414" y="467" on="1"/>
        <pt x="413" y="460" on="1"/>
        <pt x="410" y="433" on="0"/>
        <pt x="395" y="410" on="0"/>
        <pt x="379" y="410" on="1"/>
        <pt x="284" y="410" on="1"/>
        <pt x="256" y="149" on="1"/>
        <pt x="351" y="149" on="1"/>
        <pt x="376" y="149" on="0"/>
        <pt x="376" y="116" on="1"/>
        <pt x="376" y="105" on="0"/>
        <pt x="375" y="99" on="1"/>
        <pt x="374" y="92" on="1"/>
        <pt x="372" y="66" on="0"/>
        <pt x="356" y="42" on="0"/>
        <pt x="340" y="42" on="1"/>
        <pt x="245" y="42" on="1"/>
        <pt x="229" y="-108" on="1"/>
        <pt x="226" y="-140" on="0"/>
        <pt x="180" y="-140" on="1"/>
        <pt x="161" y="-140" on="1"/>
      </contour>
    </TTGlyph>
    <TTGlyph name="dcaron" xMin="29" yMin="-8" xMax="606" yMax="754">
      <component glyphName="d" x="0" y="0" flags="0x0"/>
      <component glyphName="caron.alt" x="419" y="0" flags="0x0"/>
    </TTGlyph>
    <TTGlyph name="dcroat" xMin="29" yMin="-8" xMax="512" yMax="754">
      <contour>
        <pt x="512" y="678" on="0"/>
        <pt x="512" y="649" on="1"/>
        <pt x="511" y="638" on="1"/>
        <pt x="509" y="623" on="1"/>
        <pt x="508" y="602" on="0"/>
        <pt x="492" y="583" on="0"/>
        <pt x="476" y="583" on="1"/>
        <pt x="463" y="583" on="1"/>
        <pt x="460" y="547" on="0"/>
        <pt x="452" y="484" on="1"/>
        <pt x="416" y="148" on="0"/>
        <pt x="416" y="133" on="1"/>
        <pt x="416" y="111" on="0"/>
        <pt x="429" y="111" on="1"/>
        <pt x="433" y="111" on="0"/>
        <pt x="439" y="113" on="0"/>
        <pt x="443" y="113" on="1"/>
        <pt x="450" y="113" on="0"/>
        <pt x="457" y="95" on="0"/>
        <pt x="457" y="84" on="1"/>
        <pt x="457" y="44" on="0"/>
        <pt x="406" y="-8" on="0"/>
        <pt x="359" y="-8" on="1"/>
        <pt x="283" y="-8" on="0"/>
        <pt x="272" y="71" on="1"/>
        <pt x="255" y="36" on="0"/>
        <pt x="192" y="-8" on="0"/>
        <pt x="154" y="-8" on="1"/>
        <pt x="97" y="-8" on="0"/>
        <pt x="29" y="99" on="0"/>
        <pt x="29" y="197" on="1"/>
        <pt x="29" y="232" on="0"/>
        <pt x="33" y="264" on="1"/>
        <pt x="46" y="392" on="0"/>
        <pt x="149" y="531" on="0"/>
        <pt x="228" y="531" on="1"/>
        <pt x="276" y="531" on="0"/>
        <pt x="307" y="502" on="1"/>
        <pt x="315" y="583" on="1"/>
        <pt x="285" y="583" on="1"/>
        <pt x="270" y="583" on="0"/>
        <pt x="258" y="602" on="0"/>
        <pt x="260" y="623" on="1"/>
        <pt x="262" y="638" on="1"/>
        <pt x="264" y="659" on="0"/>
        <pt x="280" y="678" on="0"/>
        <pt x="295" y="678" on="1"/>
        <pt x="325" y="678" on="1"/>
        <pt x="330" y="722" on="1"/>
        <pt x="333" y="754" on="0"/>
        <pt x="393" y="754" on="1"/>
        <pt x="421" y="754" on="1"/>
        <pt x="478" y="754" on="0"/>
        <pt x="478" y="725" on="1"/>
        <pt x="478" y="714" on="0"/>
        <pt x="474" y="684" on="0"/>
        <pt x="473" y="678" on="1"/>
        <pt x="486" y="678" on="1"/>
      </contour>
      <contour>
        <pt x="296" y="400" on="1"/>
        <pt x="278" y="414" on="0"/>
        <pt x="256" y="414" on="1"/>
        <pt x="226" y="414" on="0"/>
        <pt x="191" y="343" on="0"/>
        <pt x="182" y="261" on="1"/>
        <pt x="178" y="228" on="0"/>
        <pt x="178" y="195" on="1"/>
        <pt x="178" y="152" on="0"/>
        <pt x="197" y="113" on="0"/>
        <pt x="217" y="113" on="1"/>
        <pt x="246" y="113" on="0"/>
        <pt x="270" y="153" on="1"/>
      </contour>
    </TTGlyph>
    <TTGlyph name="degree" xMin="64" yMin="443" xMax="278" yMax="708">
      <contour>
        <pt x="115" y="443" on="0"/>
        <pt x="64" y="496" on="0"/>
        <pt x="64" y="550" on="1"/>
        <pt x="64" y="566" on="0"/>
        <pt x="65" y="575" on="1"/>
        <pt x="72" y="641" on="0"/>
        <pt x="138" y="708" on="0"/>
        <pt x="185" y="708" on="1"/>
        <pt x="226" y="708" on="0"/>
        <pt x="278" y="654" on="0"/>
        <pt x="278" y="600" on="1"/>
        <pt x="278" y="584" on="0"/>
        <pt x="277" y="575" on="1"/>
        <pt x="270" y="509" on="0"/>
        <pt x="204" y="443" on="0"/>
        <pt x="157" y="443" on="1"/>
      </contour>
      <contour>
        <pt x="183" y="505" on="0"/>
        <pt x="212" y="549" on="0"/>
        <pt x="212" y="591" on="1"/>
        <pt x="212" y="618" on="0"/>
        <pt x="192" y="646" on="0"/>
        <pt x="177" y="646" on="1"/>
        <pt x="157" y="646" on="0"/>
        <pt x="128" y="601" on="0"/>
        <pt x="128" y="559" on="1"/>
        <pt x="128" y="532" on="0"/>
        <pt x="148" y="505" on="0"/>
        <pt x="163" y="505" on="1"/>
      </contour>
    </TTGlyph>
    <TTGlyph name="dieresis" xMin="23" yMin="578" xMax="313" yMax="702">
      <contour>
        <pt x="23" y="578" on="0"/>
        <pt x="28" y="610" on="1"/>
        <pt x="34" y="670" on="1"/>
        <pt x="37" y="702" on="0"/>
        <pt x="93" y="702" on="1"/>
        <pt x="151" y="702" on="0"/>
        <pt x="148" y="670" on="1"/>
        <pt x="142" y="610" on="1"/>
        <pt x="137" y="578" on="0"/>
        <pt x="82" y="578" on="1"/>
      </contour>
      <contour>
        <pt x="185" y="578" on="0"/>
        <pt x="190" y="610" on="1"/>
        <pt x="196" y="670" on="1"/>
        <pt x="199" y="702" on="0"/>
        <pt x="255" y="702" on="1"/>
        <pt x="313" y="702" on="0"/>
        <pt x="310" y="670" on="1"/>
        <pt x="304" y="610" on="1"/>
        <pt x="299" y="578" on="0"/>
        <pt x="244" y="578" on="1"/>
      </contour>
    </TTGlyph>
    <TTGlyph name="divide" xMin="8" yMin="-2" xMax="434" yMax="453">
      <contour>
        <pt x="165" y="318" on="0"/>
        <pt x="168" y="350" on="1"/>
        <pt x="176" y="421" on="1"/>
        <pt x="179" y="453" on="0"/>
        <pt x="237" y="453" on="1"/>
        <pt x="249" y="453" on="1"/>
        <pt x="307" y="453" on="0"/>
        <pt x="304" y="421" on="1"/>
        <pt x="296" y="350" on="1"/>
        <pt x="293" y="318" on="0"/>
        <pt x="235" y="318" on="1"/>
        <pt x="223" y="318" on="1"/>
      </contour>
      <contour>
        <pt x="18" y="172" on="0"/>
        <pt x="8" y="186" on="0"/>
        <pt x="8" y="202" on="1"/>
        <pt x="8" y="215" on="0"/>
        <pt x="9" y="222" on="1"/>
        <pt x="10" y="229" on="1"/>
        <pt x="12" y="256" on="0"/>
        <pt x="26" y="279" on="0"/>
        <pt x="39" y="279" on="1"/>
        <pt x="414" y="279" on="1"/>
        <pt x="434" y="279" on="0"/>
        <pt x="434" y="247" on="1"/>
        <pt x="434" y="236" on="0"/>
        <pt x="433" y="229" on="1"/>
        <pt x="432" y="222" on="1"/>
        <pt x="429" y="195" on="0"/>
        <pt x="416" y="172" on="0"/>
        <pt x="403" y="172" on="1"/>
        <pt x="28" y="172" on="1"/>
      </contour>
      <contour>
        <pt x="130" y="-2" on="0"/>
        <pt x="135" y="30" on="1"/>
        <pt x="142" y="101" on="1"/>
        <pt x="145" y="133" on="0"/>
        <pt x="203" y="133" on="1"/>
        <pt x="215" y="133" on="1"/>
        <pt x="273" y="133" on="0"/>
        <pt x="270" y="101" on="1"/>
        <pt x="263" y="30" on="1"/>
        <pt x="261" y="14" on="0"/>
        <pt x="231" y="-2" on="0"/>
        <pt x="201" y="-2" on="1"/>
        <pt x="189" y="-2" on="1"/>
      </contour>
    </TTGlyph>
    <TTGlyph name="dollar" xMin="6" yMin="-75" xMax="416" yMax="765">
      <contour>
        <pt x="165" y="-75" on="0"/>
        <pt x="158" y="-66" on="0"/>
        <pt x="158" y="-55" on="1"/>
        <pt x="158" y="-48" on="0"/>
        <pt x="163" y="-8" on="1"/>
        <pt x="115" y="-7" on="0"/>
        <pt x="73" y="8" on="1"/>
        <pt x="46" y="18" on="0"/>
        <pt x="7" y="48" on="0"/>
        <pt x="7" y="66" on="1"/>
        <pt x="6" y="95" on="0"/>
        <pt x="38" y="163" on="0"/>
        <pt x="58" y="163" on="1"/>
        <pt x="65" y="163" on="0"/>
        <pt x="77" y="156" on="1"/>
        <pt x="109" y="138" on="0"/>
        <pt x="150" y="124" on="0"/>
        <pt x="177" y="123" on="1"/>
        <pt x="196" y="301" on="1"/>
        <pt x="146" y="326" on="0"/>
        <pt x="89" y="365" on="0"/>
        <pt x="45" y="442" on="0"/>
        <pt x="45" y="504" on="1"/>
        <pt x="45" y="559" on="0"/>
        <pt x="96" y="647" on="0"/>
        <pt x="184" y="700" on="0"/>
        <pt x="238" y="706" on="1"/>
        <pt x="242" y="745" on="1"/>
        <pt x="243" y="765" on="0"/>
        <pt x="264" y="765" on="1"/>
        <pt x="281" y="765" on="1"/>
        <pt x="291" y="765" on="0"/>
        <pt x="299" y="756" on="0"/>
        <pt x="299" y="745" on="1"/>
        <pt x="295" y="707" on="1"/>
        <pt x="357" y="702" on="0"/>
        <pt x="392" y="680" on="1"/>
        <pt x="416" y="666" on="0"/>
        <pt x="416" y="645" on="1"/>
        <pt x="416" y="618" on="0"/>
        <pt x="390" y="555" on="0"/>
        <pt x="371" y="555" on="1"/>
        <pt x="362" y="555" on="0"/>
        <pt x="341" y="562" on="1"/>
        <pt x="304" y="575" on="0"/>
        <pt x="282" y="576" on="1"/>
        <pt x="264" y="412" on="1"/>
        <pt x="323" y="383" on="0"/>
        <pt x="387" y="329" on="0"/>
        <pt x="415" y="261" on="0"/>
        <pt x="415" y="210" on="1"/>
        <pt x="415" y="121" on="0"/>
        <pt x="311" y="7" on="0"/>
        <pt x="220" y="-5" on="1"/>
        <pt x="215" y="-55" on="1"/>
        <pt x="212" y="-75" on="0"/>
        <pt x="193" y="-75" on="1"/>
        <pt x="176" y="-75" on="1"/>
      </contour>
      <contour>
        <pt x="223" y="568" on="1"/>
        <pt x="197" y="557" on="0"/>
        <pt x="181" y="517" on="0"/>
        <pt x="181" y="493" on="1"/>
        <pt x="181" y="461" on="0"/>
        <pt x="210" y="440" on="1"/>
      </contour>
      <contour>
        <pt x="279" y="152" on="0"/>
        <pt x="279" y="215" on="1"/>
        <pt x="279" y="248" on="0"/>
        <pt x="249" y="271" on="1"/>
        <pt x="235" y="133" on="1"/>
      </contour>
    </TTGlyph>
    <TTGlyph name="dotaccent" xMin="93" yMin="578" xMax="244" yMax="702">
      <contour>
        <pt x="93" y="578" on="0"/>
        <pt x="98" y="610" on="1"/>
        <pt x="104" y="670" on="1"/>
        <pt x="107" y="702" on="0"/>
        <pt x="174" y="702" on="1"/>
        <pt x="244" y="702" on="0"/>
        <pt x="241" y="670" on="1"/>
        <pt x="235" y="610" on="1"/>
        <pt x="230" y="578" on="0"/>
        <pt x="164" y="578" on="1"/>
      </contour>
    </TTGlyph>
    <TTGlyph name="dotbelowcomb" xMin="-118" yMin="-204" xMax="33" yMax="-80">
      <contour>
        <pt x="-118" y="-204" on="0"/>
        <pt x="-113" y="-172" on="1"/>
        <pt x="-107" y="-112" on="1"/>
        <pt x="-104" y="-80" on="0"/>
        <pt x="-37" y="-80" on="1"/>
        <pt x="33" y="-80" on="0"/>
        <pt x="30" y="-112" on="1"/>
        <pt x="24" y="-172" on="1"/>
        <pt x="19" y="-204" on="0"/>
        <pt x="-47" y="-204" on="1"/>
      </contour>
    </TTGlyph>
    <TTGlyph name="dotlessi" xMin="29" yMin="-8" xMax="221" yMax="525">
      <contour>
        <pt x="79" y="-8" on="0"/>
        <pt x="29" y="45" on="0"/>
        <pt x="29" y="100" on="1"/>
        <pt x="29" y="112" on="0"/>
        <pt x="32" y="142" on="1"/>
        <pt x="69" y="493" on="1"/>
        <pt x="72" y="525" on="0"/>
        <pt x="132" y="525" on="1"/>
        <pt x="160" y="525" on="1"/>
        <pt x="188" y="525" on="0"/>
        <pt x="217" y="507" on="0"/>
        <pt x="217" y="494" on="1"/>
        <pt x="193" y="266" on="1"/>
        <pt x="190" y="242" on="0"/>
        <pt x="180" y="146" on="0"/>
        <pt x="180" y="133" on="1"/>
        <pt x="180" y="111" on="0"/>
        <pt x="193" y="111" on="1"/>
        <pt x="197" y="111" on="0"/>
        <pt x="203" y="113" on="0"/>
        <pt x="207" y="113" on="1"/>
        <pt x="214" y="113" on="0"/>
        <pt x="221" y="95" on="0"/>
        <pt x="221" y="84" on="1"/>
        <pt x="221" y="44" on="0"/>
        <pt x="170" y="-8" on="0"/>
        <pt x="123" y="-8" on="1"/>
      </contour>
    </TTGlyph>
    <TTGlyph name="e" xMin="32" yMin="-8" xMax="441" yMax="531">
      <contour>
        <pt x="441" y="334" on="0"/>
        <pt x="393" y="249" on="0"/>
        <pt x="309" y="203" on="0"/>
        <pt x="256" y="203" on="1"/>
        <pt x="212" y="203" on="0"/>
        <pt x="182" y="209" on="1"/>
        <pt x="183" y="152" on="0"/>
        <pt x="224" y="109" on="0"/>
        <pt x="261" y="109" on="1"/>
        <pt x="291" y="109" on="0"/>
        <pt x="334" y="127" on="0"/>
        <pt x="356" y="141" on="1"/>
        <pt x="373" y="153" on="0"/>
        <pt x="379" y="153" on="1"/>
        <pt x="389" y="153" on="0"/>
        <pt x="399" y="126" on="0"/>
        <pt x="399" y="105" on="1"/>
        <pt x="399" y="70" on="0"/>
        <pt x="386" y="47" on="1"/>
        <pt x="371" y="20" on="0"/>
        <pt x="276" y="-8" on="0"/>
        <pt x="232" y="-8" on="1"/>
        <pt x="131" y="-8" on="0"/>
        <pt x="32" y="104" on="0"/>
        <pt x="32" y="206" on="1"/>
        <pt x="32" y="349" on="0"/>
        <pt x="154" y="531" on="0"/>
        <pt x="275" y="531" on="1"/>
        <pt x="367" y="531" on="0"/>
        <pt x="441" y="442" on="0"/>
        <pt x="441" y="389" on="1"/>
      </contour>
      <contour>
        <pt x="219" y="292" on="1"/>
        <pt x="261" y="292" on="0"/>
        <pt x="307" y="329" on="0"/>
        <pt x="307" y="367" on="1"/>
        <pt x="307" y="414" on="0"/>
        <pt x="267" y="414" on="1"/>
        <pt x="211" y="414" on="0"/>
        <pt x="189" y="292" on="1"/>
      </contour>
    </TTGlyph>
    <TTGlyph name="eacute" xMin="32" yMin="-8" xMax="441" yMax="734">
      <component glyphName="e" x="0" y="0" flags="0x0"/>
      <component glyphName="acute" x="182" y="0" flags="0x0"/>
    </TTGlyph>
    <TTGlyph name="ebreve" xMin="32" yMin="-8" xMax="441" yMax="715">
      <component glyphName="e" x="0" y="0" flags="0x0"/>
      <component glyphName="breve" x="119" y="0" flags="0x0"/>
    </TTGlyph>
    <TTGlyph name="ecaron" xMin="32" yMin="-8" xMax="441" yMax="718">
      <component glyphName="e" x="0" y="0" flags="0x0"/>
      <component glyphName="caron" x="120" y="0" flags="0x0"/>
    </TTGlyph>
    <TTGlyph name="ecircumflex" xMin="32" yMin="-8" xMax="441" yMax="718">
      <component glyphName="e" x="0" y="0" flags="0x0"/>
      <component glyphName="circumflex" x="119" y="0" flags="0x0"/>
    </TTGlyph>
    <TTGlyph name="edieresis" xMin="32" yMin="-8" xMax="441" yMax="702">
      <component glyphName="e" x="0" y="0" flags="0x0"/>
      <component glyphName="dieresis" x="117" y="0" flags="0x0"/>
    </TTGlyph>
    <TTGlyph name="edotaccent" xMin="32" yMin="-8" xMax="441" yMax="702">
      <component glyphName="e" x="0" y="0" flags="0x0"/>
      <component glyphName="dotaccent" x="116" y="0" flags="0x0"/>
    </TTGlyph>
    <TTGlyph name="egrave" xMin="32" yMin="-8" xMax="441" yMax="734">
      <component glyphName="e" x="0" y="0" flags="0x0"/>
      <component glyphName="grave" x="111" y="0" flags="0x0"/>
    </TTGlyph>
    <TTGlyph name="eight" xMin="16" yMin="-8" xMax="451" yMax="708">
      <contour>
        <pt x="108" y="-8" on="0"/>
        <pt x="16" y="91" on="0"/>
        <pt x="16" y="171" on="1"/>
        <pt x="16" y="189" on="0"/>
        <pt x="17" y="199" on="1"/>
        <pt x="24" y="264" on="0"/>
        <pt x="82" y="349" on="0"/>
        <pt x="124" y="372" on="1"/>
        <pt x="95" y="397" on="0"/>
        <pt x="63" y="456" on="0"/>
        <pt x="63" y="497" on="1"/>
        <pt x="63" y="557" on="0"/>
        <pt x="115" y="653" on="0"/>
        <pt x="214" y="708" on="0"/>
        <pt x="281" y="708" on="1"/>
        <pt x="362" y="708" on="0"/>
        <pt x="451" y="624" on="0"/>
        <pt x="451" y="555" on="1"/>
        <pt x="451" y="540" on="0"/>
        <pt x="450" y="532" on="1"/>
        <pt x="444" y="472" on="0"/>
        <pt x="391" y="401" on="0"/>
        <pt x="352" y="379" on="1"/>
        <pt x="388" y="354" on="0"/>
        <pt x="429" y="283" on="0"/>
        <pt x="429" y="228" on="1"/>
        <pt x="429" y="219" on="0"/>
        <pt x="427" y="195" on="1"/>
        <pt x="422" y="142" on="0"/>
        <pt x="370" y="50" on="0"/>
        <pt x="273" y="-8" on="0"/>
        <pt x="203" y="-8" on="1"/>
      </contour>
      <contour>
        <pt x="308" y="478" on="0"/>
        <pt x="308" y="538" on="1"/>
        <pt x="308" y="563" on="0"/>
        <pt x="286" y="591" on="0"/>
        <pt x="268" y="591" on="1"/>
        <pt x="246" y="591" on="0"/>
        <pt x="212" y="553" on="0"/>
        <pt x="212" y="519" on="1"/>
        <pt x="212" y="493" on="0"/>
        <pt x="237" y="456" on="0"/>
        <pt x="260" y="440" on="1"/>
      </contour>
      <contour>
        <pt x="243" y="109" on="0"/>
        <pt x="277" y="169" on="0"/>
        <pt x="277" y="206" on="1"/>
        <pt x="277" y="240" on="0"/>
        <pt x="245" y="283" on="0"/>
        <pt x="214" y="305" on="1"/>
        <pt x="190" y="283" on="0"/>
        <pt x="166" y="225" on="0"/>
        <pt x="166" y="178" on="1"/>
        <pt x="166" y="143" on="0"/>
        <pt x="191" y="109" on="0"/>
        <pt x="214" y="109" on="1"/>
      </contour>
    </TTGlyph>
    <TTGlyph name="ellipsis" xMin="-8" yMin="-2" xMax="524" yMax="154">
      <contour>
        <pt x="-8" y="-2" on="0"/>
        <pt x="-3" y="30" on="1"/>
        <pt x="6" y="122" on="1"/>
        <pt x="8" y="138" on="0"/>
        <pt x="38" y="154" on="0"/>
        <pt x="68" y="154" on="1"/>
        <pt x="95" y="154" on="1"/>
        <pt x="154" y="154" on="0"/>
        <pt x="149" y="122" on="1"/>
        <pt x="140" y="30" on="1"/>
        <pt x="138" y="14" on="0"/>
        <pt x="108" y="-2" on="0"/>
        <pt x="78" y="-2" on="1"/>
        <pt x="51" y="-2" on="1"/>
      </contour>
      <contour>
        <pt x="177" y="-2" on="0"/>
        <pt x="182" y="30" on="1"/>
        <pt x="191" y="122" on="1"/>
        <pt x="193" y="138" on="0"/>
        <pt x="223" y="154" on="0"/>
        <pt x="253" y="154" on="1"/>
        <pt x="280" y="154" on="1"/>
        <pt x="339" y="154" on="0"/>
        <pt x="334" y="122" on="1"/>
        <pt x="325" y="30" on="1"/>
        <pt x="323" y="14" on="0"/>
        <pt x="293" y="-2" on="0"/>
        <pt x="263" y="-2" on="1"/>
        <pt x="236" y="-2" on="1"/>
      </contour>
      <contour>
        <pt x="362" y="-2" on="0"/>
        <pt x="367" y="30" on="1"/>
        <pt x="376" y="122" on="1"/>
        <pt x="378" y="138" on="0"/>
        <pt x="408" y="154" on="0"/>
        <pt x="438" y="154" on="1"/>
        <pt x="466" y="154" on="1"/>
        <pt x="524" y="154" on="0"/>
        <pt x="519" y="122" on="1"/>
        <pt x="510" y="30" on="1"/>
        <pt x="505" y="-2" on="0"/>
        <pt x="449" y="-2" on="1"/>
        <pt x="421" y="-2" on="1"/>
      </contour>
    </TTGlyph>
    <TTGlyph name="emacron" xMin="32" yMin="-8" xMax="441" yMax="692">
      <component glyphName="e" x="0" y="0" flags="0x0"/>
      <component glyphName="macron" x="119" y="0" flags="0x0"/>
    </TTGlyph>
    <TTGlyph name="emdash" xMin="-1" yMin="212" xMax="888" yMax="319">
      <contour>
        <pt x="11" y="212" on="0"/>
        <pt x="-1" y="228" on="0"/>
        <pt x="-1" y="246" on="1"/>
        <pt x="-1" y="256" on="0"/>
        <pt x="0" y="262" on="1"/>
        <pt x="1" y="269" on="1"/>
        <pt x="5" y="319" on="0"/>
        <pt x="35" y="319" on="1"/>
        <pt x="863" y="319" on="1"/>
        <pt x="888" y="319" on="0"/>
        <pt x="888" y="283" on="1"/>
        <pt x="887" y="269" on="1"/>
        <pt x="886" y="262" on="1"/>
        <pt x="883" y="236" on="0"/>
        <pt x="867" y="212" on="0"/>
        <pt x="852" y="212" on="1"/>
        <pt x="24" y="212" on="1"/>
      </contour>
    </TTGlyph>
    <TTGlyph name="endash" xMin="-1" yMin="212" xMax="445" yMax="319">
      <contour>
        <pt x="11" y="212" on="0"/>
        <pt x="-1" y="228" on="0"/>
        <pt x="-1" y="246" on="1"/>
        <pt x="-1" y="256" on="0"/>
        <pt x="0" y="262" on="1"/>
        <pt x="1" y="269" on="1"/>
        <pt x="5" y="319" on="0"/>
        <pt x="35" y="319" on="1"/>
        <pt x="420" y="319" on="1"/>
        <pt x="445" y="319" on="0"/>
        <pt x="445" y="283" on="1"/>
        <pt x="444" y="269" on="1"/>
        <pt x="443" y="262" on="1"/>
        <pt x="440" y="236" on="0"/>
        <pt x="424" y="212" on="0"/>
        <pt x="409" y="212" on="1"/>
        <pt x="24" y="212" on="1"/>
      </contour>
    </TTGlyph>
    <TTGlyph name="eng" xMin="17" yMin="-212" xMax="446" yMax="531">
      <contour>
        <pt x="199" y="-212" on="0"/>
        <pt x="153" y="-192" on="0"/>
        <pt x="153" y="-167" on="1"/>
        <pt x="153" y="-148" on="0"/>
        <pt x="176" y="-91" on="0"/>
        <pt x="191" y="-91" on="1"/>
        <pt x="196" y="-91" on="0"/>
        <pt x="215" y="-95" on="0"/>
        <pt x="221" y="-95" on="1"/>
        <pt x="234" y="-95" on="0"/>
        <pt x="247" y="-75" on="0"/>
        <pt x="249" y="-52" on="1"/>
        <pt x="291" y="358" on="1"/>
        <pt x="292" y="372" on="1"/>
        <pt x="292" y="391" on="0"/>
        <pt x="277" y="409" on="0"/>
        <pt x="259" y="409" on="1"/>
        <pt x="232" y="409" on="0"/>
        <pt x="206" y="377" on="1"/>
        <pt x="169" y="30" on="1"/>
        <pt x="168" y="14" on="0"/>
        <pt x="138" y="-2" on="0"/>
        <pt x="109" y="-2" on="1"/>
        <pt x="74" y="-2" on="1"/>
        <pt x="17" y="-2" on="0"/>
        <pt x="20" y="30" on="1"/>
        <pt x="54" y="349" on="1"/>
        <pt x="59" y="402" on="0"/>
        <pt x="59" y="440" on="1"/>
        <pt x="59" y="458" on="0"/>
        <pt x="57" y="480" on="0"/>
        <pt x="58" y="487" on="1"/>
        <pt x="60" y="505" on="0"/>
        <pt x="146" y="522" on="0"/>
        <pt x="177" y="522" on="1"/>
        <pt x="196" y="522" on="0"/>
        <pt x="206" y="499" on="0"/>
        <pt x="207" y="464" on="0"/>
        <pt x="208" y="455" on="1"/>
        <pt x="234" y="488" on="0"/>
        <pt x="305" y="531" on="0"/>
        <pt x="347" y="531" on="1"/>
        <pt x="396" y="531" on="0"/>
        <pt x="446" y="476" on="0"/>
        <pt x="446" y="422" on="1"/>
        <pt x="446" y="414" on="0"/>
        <pt x="444" y="392" on="1"/>
        <pt x="397" y="-50" on="1"/>
        <pt x="389" y="-129" on="0"/>
        <pt x="306" y="-212" on="0"/>
        <pt x="246" y="-212" on="1"/>
      </contour>
    </TTGlyph>
    <TTGlyph name="eogonek" xMin="32" yMin="-156" xMax="455" yMax="531">
      <contour>
        <pt x="441" y="-83" on="0"/>
        <pt x="455" y="-96" on="0"/>
        <pt x="455" y="-113" on="1"/>
        <pt x="455" y="-134" on="0"/>
        <pt x="438" y="-144" on="1"/>
        <pt x="413" y="-156" on="0"/>
        <pt x="382" y="-156" on="1"/>
        <pt x="325" y="-156" on="0"/>
        <pt x="285" y="-96" on="0"/>
        <pt x="285" y="-62" on="1"/>
        <pt x="285" y="-34" on="0"/>
        <pt x="296" y="-1" on="1"/>
        <pt x="264" y="-8" on="0"/>
        <pt x="232" y="-8" on="1"/>
        <pt x="131" y="-8" on="0"/>
        <pt x="32" y="104" on="0"/>
        <pt x="32" y="206" on="1"/>
        <pt x="32" y="349" on="0"/>
        <pt x="154" y="531" on="0"/>
        <pt x="275" y="531" on="1"/>
        <pt x="367" y="531" on="0"/>
        <pt x="441" y="442" on="0"/>
        <pt x="441" y="389" on="1"/>
        <pt x="441" y="334" on="0"/>
        <pt x="393" y="249" on="0"/>
        <pt x="309" y="203" on="0"/>
        <pt x="256" y="203" on="1"/>
        <pt x="212" y="203" on="0"/>
        <pt x="182" y="209" on="1"/>
        <pt x="183" y="152" on="0"/>
        <pt x="224" y="109" on="0"/>
        <pt x="261" y="109" on="1"/>
        <pt x="291" y="109" on="0"/>
        <pt x="334" y="127" on="0"/>
        <pt x="356" y="141" on="1"/>
        <pt x="373" y="153" on="0"/>
        <pt x="379" y="153" on="1"/>
        <pt x="389" y="153" on="0"/>
        <pt x="399" y="126" on="0"/>
        <pt x="399" y="105" on="1"/>
        <pt x="399" y="70" on="0"/>
        <pt x="386" y="47" on="1"/>
        <pt x="381" y="38" on="0"/>
        <pt x="367" y="27" on="1"/>
        <pt x="352" y="-7" on="0"/>
        <pt x="352" y="-43" on="1"/>
        <pt x="352" y="-87" on="0"/>
        <pt x="401" y="-87" on="1"/>
        <pt x="409" y="-87" on="0"/>
        <pt x="421" y="-83" on="0"/>
        <pt x="425" y="-83" on="1"/>
      </contour>
      <contour>
        <pt x="211" y="414" on="0"/>
        <pt x="189" y="292" on="1"/>
        <pt x="219" y="292" on="1"/>
        <pt x="261" y="292" on="0"/>
        <pt x="307" y="329" on="0"/>
        <pt x="307" y="367" on="1"/>
        <pt x="307" y="414" on="0"/>
        <pt x="267" y="414" on="1"/>
      </contour>
    </TTGlyph>
    <TTGlyph name="equal" xMin="16" yMin="86" xMax="427" yMax="374">
      <contour>
        <pt x="45" y="267" on="0"/>
        <pt x="35" y="281" on="0"/>
        <pt x="35" y="297" on="1"/>
        <pt x="35" y="310" on="0"/>
        <pt x="36" y="317" on="1"/>
        <pt x="37" y="324" on="1"/>
        <pt x="39" y="351" on="0"/>
        <pt x="53" y="374" on="0"/>
        <pt x="66" y="374" on="1"/>
        <pt x="408" y="374" on="1"/>
        <pt x="418" y="374" on="0"/>
        <pt x="427" y="359" on="0"/>
        <pt x="427" y="342" on="1"/>
        <pt x="427" y="331" on="0"/>
        <pt x="426" y="324" on="1"/>
        <pt x="425" y="317" on="1"/>
        <pt x="422" y="290" on="0"/>
        <pt x="409" y="267" on="0"/>
        <pt x="397" y="267" on="1"/>
        <pt x="55" y="267" on="1"/>
      </contour>
      <contour>
        <pt x="26" y="86" on="0"/>
        <pt x="16" y="100" on="0"/>
        <pt x="16" y="116" on="1"/>
        <pt x="16" y="129" on="0"/>
        <pt x="17" y="136" on="1"/>
        <pt x="18" y="143" on="1"/>
        <pt x="20" y="170" on="0"/>
        <pt x="34" y="193" on="0"/>
        <pt x="47" y="193" on="1"/>
        <pt x="389" y="193" on="1"/>
        <pt x="399" y="193" on="0"/>
        <pt x="408" y="178" on="0"/>
        <pt x="408" y="161" on="1"/>
        <pt x="408" y="150" on="0"/>
        <pt x="407" y="143" on="1"/>
        <pt x="406" y="136" on="1"/>
        <pt x="403" y="109" on="0"/>
        <pt x="390" y="86" on="0"/>
        <pt x="378" y="86" on="1"/>
        <pt x="36" y="86" on="1"/>
      </contour>
    </TTGlyph>
</ttFont>
